<svg width="477" height="131" viewBox="0 0 477 131" fill="none" xmlns="http://www.w3.org/2000/svg">
<path d="M192.5 130.388C184.063 130.388 177.223 123.536 177.223 115.084V15.4322C177.223 6.98017 184.063 0.128453 192.5 0.128453H238.247C229.81 0.128453 222.969 6.98017 222.969 15.4322V115.084C222.969 123.536 229.81 130.388 238.247 130.388H192.5Z" fill="black"/>
<path d="M284.214 130.388C292.652 130.388 299.492 123.536 299.492 115.084V15.4322C299.492 6.98017 292.652 0.128453 284.214 0.128453H238.467C246.905 0.128453 253.745 6.98017 253.745 15.4322V115.084C253.745 123.536 246.905 130.388 238.467 130.388H284.214Z" fill="black"/>
<path d="M15.2778 15.3037C15.2778 6.85172 8.4377 0 0 0H45.7608C54.1985 0 61.0387 6.85172 61.0387 15.3037L61.0387 69.1729C61.0387 77.6249 67.8788 84.4767 76.3165 84.4767H30.5556C22.1179 84.4767 15.2778 77.6249 15.2778 69.1729L15.2778 15.3037Z" fill="black"/>
<path d="M346.501 15.3037C346.501 6.85172 339.661 0 331.223 0H376.984C385.421 0 392.262 6.85172 392.262 15.3037L392.262 69.1729C392.262 77.6249 399.102 84.4767 407.539 84.4767H361.779C353.341 84.4767 346.501 77.6249 346.501 69.1729V15.3037Z" fill="black"/>
<path d="M84.2971 51.549C84.2971 43.097 91.1372 36.2453 99.5749 36.2453H145.777C137.339 36.2453 130.499 43.097 130.499 51.549L130.499 115.696C130.499 124.148 123.659 131 115.221 131H69.0193C77.457 131 84.2971 124.148 84.2971 115.696L84.2971 51.549Z" fill="black"/>
<path d="M415.52 51.549C415.52 43.097 422.36 36.2453 430.798 36.2453H477C468.562 36.2453 461.722 43.097 461.722 51.549L461.722 115.696C461.722 124.148 454.882 131 446.444 131H400.242C408.68 131 415.52 124.148 415.52 115.696L415.52 51.549Z" fill="black"/>
</svg>
