<svg width="480" height="160" viewBox="0 0 480 160" fill="none" xmlns="http://www.w3.org/2000/svg">
<path d="M196.5 145.388C188.063 145.388 181.223 138.536 181.223 130.084V30.4322C181.223 21.9801 188.063 15.1284 196.5 15.1284H242.247C233.81 15.1284 226.97 21.9801 226.97 30.4322V130.084C226.97 138.536 233.81 145.388 242.247 145.388H196.5Z" fill="black"/>
<path d="M288.214 145.388C296.652 145.388 303.492 138.536 303.492 130.084V30.4322C303.492 21.9801 296.652 15.1284 288.214 15.1284H242.467C250.905 15.1284 257.745 21.9801 257.745 30.4322V130.084C257.745 138.536 250.905 145.388 242.467 145.388H288.214Z" fill="black"/>
<path d="M372.278 145.388C363.84 145.388 357 138.536 357 130.084V30.4322C357 21.9801 363.84 15.1284 372.278 15.1284H418.025C409.587 15.1284 402.747 21.9801 402.747 30.4322V130.084C402.747 138.536 409.587 145.388 418.025 145.388H372.278Z" fill="black"/>
<path d="M463.991 145.388C472.429 145.388 479.269 138.536 479.269 130.084V30.4322C479.269 21.9801 472.429 15.1284 463.991 15.1284H418.244C426.682 15.1284 433.522 21.9801 433.522 30.4322V130.084C433.522 138.536 426.682 145.388 418.244 145.388H463.991Z" fill="black"/>
<path d="M115.482 145C122.396 145 128 141.423 128 137.011V84.9891C128 80.5768 122.396 77 115.482 77H78C84.9133 77 90.5177 80.5768 90.5177 84.9891V137.011C90.5177 141.423 84.9133 145 78 145H115.482Z" fill="black"/>
<path d="M17.0786 15.0995C7.64634 15.0995 0 21.8598 0 30.1991V75C0 66.6607 7.64634 59.9004 17.0786 59.9004L110.921 59.9005C120.354 59.9005 128 53.1402 128 44.8009V0C128 8.33926 120.354 15.0996 110.921 15.0996L17.0786 15.0995Z" fill="black"/>
<path d="M9.74013 96.1062C4.3608 96.1062 0 103.317 0 112.212V160C0 151.105 4.3608 143.894 9.74013 143.894L63.2599 143.894C68.6392 143.894 73 136.683 73 127.788V80C73 88.8952 68.6392 96.1062 63.2599 96.1062L9.74013 96.1062Z" fill="black"/>
</svg>
