<svg width="906" height="950" viewBox="0 0 906 950" fill="none" xmlns="http://www.w3.org/2000/svg">
<mask id="mask0" mask-type="alpha" maskUnits="userSpaceOnUse" x="0" y="0" width="906" height="950">
<rect width="906" height="950" fill="#C4C4C4"/>
</mask>
<g mask="url(#mask0)">
<g filter="url(#filter0_ddd)">
<path fill-rule="evenodd" clip-rule="evenodd" d="M268.751 543.203C245.189 520.541 248.807 478.468 276.832 449.229L455.451 262.874C483.476 233.635 487.094 191.561 463.532 168.9L335.746 46C359.308 68.6612 355.69 110.735 327.665 139.974L149.047 326.329C121.022 355.568 117.404 397.641 140.966 420.302L268.751 543.203ZM134.484 730.604L425.368 420.407C423.07 422.195 420.886 424.181 418.839 426.364L539.501 297.69C561.537 274.191 599.433 273.561 624.143 296.282L917.649 566.164C942.359 588.885 980.254 588.254 1002.29 564.755L881.628 693.429C859.592 716.928 821.696 717.559 796.986 694.837L589.094 503.678L264.332 850.002C231.998 884.482 186.562 894.758 162.849 872.953L33 753.556C56.7137 775.361 102.149 765.085 134.484 730.604ZM661.575 864.54C682.986 884.457 713.771 886.166 730.337 868.358L820.152 771.806C803.586 789.614 772.801 787.905 751.39 767.989L613.38 639.608C591.97 619.692 588.042 589.11 604.608 571.301L514.793 667.853C498.228 685.661 502.155 716.243 523.565 736.16L661.575 864.54Z" fill="#1E1E1E"/>
</g>
</g>
<defs>
<filter id="filter0_ddd" x="-12" y="-2" width="1047.29" height="922.399" filterUnits="userSpaceOnUse" color-interpolation-filters="sRGB">
<feFlood flood-opacity="0" result="BackgroundImageFix"/>
<feColorMatrix in="SourceAlpha" type="matrix" values="0 0 0 0 0 0 0 0 0 0 0 0 0 0 0 0 0 0 127 0"/>
<feOffset dx="-9" dy="-12"/>
<feGaussianBlur stdDeviation="18"/>
<feColorMatrix type="matrix" values="0 0 0 0 0.116667 0 0 0 0 0.116667 0 0 0 0 0.116667 0 0 0 0.53 0"/>
<feBlend mode="normal" in2="BackgroundImageFix" result="effect1_dropShadow"/>
<feColorMatrix in="SourceAlpha" type="matrix" values="0 0 0 0 0 0 0 0 0 0 0 0 0 0 0 0 0 0 127 0"/>
<feOffset dx="9" dy="12"/>
<feGaussianBlur stdDeviation="12"/>
<feColorMatrix type="matrix" values="0 0 0 0 0.0666667 0 0 0 0 0.0666667 0 0 0 0 0.0666667 0 0 0 0.6 0"/>
<feBlend mode="normal" in2="effect1_dropShadow" result="effect2_dropShadow"/>
<feColorMatrix in="SourceAlpha" type="matrix" values="0 0 0 0 0 0 0 0 0 0 0 0 0 0 0 0 0 0 127 0"/>
<feOffset dx="-9" dy="-10"/>
<feGaussianBlur stdDeviation="4"/>
<feColorMatrix type="matrix" values="0 0 0 0 1 0 0 0 0 1 0 0 0 0 1 0 0 0 0.03 0"/>
<feBlend mode="normal" in2="effect2_dropShadow" result="effect3_dropShadow"/>
<feBlend mode="normal" in="SourceGraphic" in2="effect3_dropShadow" result="shape"/>
</filter>
</defs>
</svg>
