<svg width="588" height="139" viewBox="0 0 588 139" fill="none" xmlns="http://www.w3.org/2000/svg">
<path d="M479.312 138.418C471.288 138.418 464.783 131.903 464.783 123.865V72.0584C464.783 64.0212 471.288 57.5058 479.312 57.5058H522.815C514.791 57.5058 508.286 64.0212 508.286 72.0584V123.865C508.286 131.903 514.791 138.418 522.815 138.418H479.312Z" fill="black"/>
<path d="M531.182 28.9829C531.182 20.9458 524.677 14.4304 516.653 14.4304H558.943C566.967 14.4304 573.471 20.9458 573.471 28.9829L573.472 123.865C573.472 131.903 579.976 138.418 588 138.418H545.71C537.686 138.418 531.182 131.903 531.182 123.865L531.182 28.9829Z" fill="black"/>
<path d="M341.368 14.5525C333.344 14.5525 326.839 21.0679 326.839 29.105V72.2828C326.839 64.2457 333.344 57.7303 341.368 57.7303L421.198 57.7303C429.222 57.7303 435.726 51.2149 435.726 43.1778V0C435.726 8.03714 429.222 14.5525 421.198 14.5525L341.368 14.5525Z" fill="black"/>
<path d="M422.312 94.8873C421.884 94.8494 421.451 94.83 421.014 94.83H341.444C333.772 94.83 327.488 100.787 326.953 108.336H326.916L326.916 123.882C326.907 131.911 320.406 138.418 312.387 138.418H421.014C428.05 138.418 433.919 133.407 435.256 126.754H435.542V124.764C435.664 124.007 435.726 123.231 435.726 122.441V80.3769C435.726 88.0386 429.815 94.3175 422.312 94.8873Z" fill="black"/>
<path d="M171.215 28.8627C171.215 20.8256 164.71 14.3102 156.687 14.3102H200.351C208.375 14.3102 214.88 20.8256 214.88 28.8627L214.88 123.745C214.88 131.782 221.384 138.298 229.408 138.298H185.743C177.72 138.298 171.215 131.782 171.215 123.745L171.215 28.8627Z" fill="black"/>
<path d="M237.475 28.8627C237.475 20.8256 230.971 14.3102 222.947 14.3102H266.814C274.838 14.3102 281.343 20.8256 281.343 28.8627L281.343 123.745C281.343 131.782 287.847 138.298 295.871 138.298H252.004C243.98 138.298 237.475 131.782 237.475 123.745L237.475 28.8627Z" fill="black"/>
<path d="M14.5284 28.9829C14.5284 20.9458 8.02384 14.4304 0 14.4304H43.5163C51.5401 14.4304 58.0448 20.9458 58.0448 28.9829L58.0448 80.2078C58.0448 88.2449 64.5494 94.7603 72.5732 94.7603H29.0569C21.0331 94.7603 14.5284 88.2449 14.5284 80.2078L14.5284 28.9829Z" fill="black"/>
<path d="M124.099 28.9829C124.099 20.9458 130.603 14.4304 138.627 14.4304H94.691C86.6671 14.4304 80.1625 20.9458 80.1625 28.9829L80.1625 124.447C80.1625 132.485 73.6579 139 65.6341 139H109.57C117.594 139 124.099 132.485 124.099 124.447L124.099 28.9829Z" fill="black"/>
</svg>
