<svg width="641" height="144" viewBox="0 0 641 144" fill="none" xmlns="http://www.w3.org/2000/svg">
<path d="M362 0.00781908V0H435C448.807 0 460 11.1929 460 25L460 75H459.721C458.085 64.1282 449.449 55.5491 438.549 54H362V53.9922C361.763 53.9974 361.526 54 361.288 54C345.113 54 332 41.9117 332 27C332 12.0883 345.113 0 361.288 0C361.526 0 361.763 0.00261619 362 0.00781908Z" fill="white"/>
<path d="M353.451 90H430V90.0078C430.237 90.0026 430.474 90 430.712 90C446.887 90 460 102.088 460 117C460 131.912 446.887 144 430.712 144C430.474 144 430.237 143.997 430 143.992V144H357C343.193 144 332 132.807 332 119L332 69H332.279C333.915 79.8718 342.551 88.4509 353.451 90Z" fill="white"/>
<path d="M222.316 0H169V119C169 132.807 180.193 144 194 144H247.316C233.509 144 222.316 132.807 222.316 119V0Z" fill="white"/>
<path d="M291.502 0H246V119C246 132.807 257.193 144 271 144H316.502C302.695 144 291.502 132.807 291.502 119V0Z" fill="white"/>
<path d="M49.7727 0H0V65C0 78.8071 11.1929 90 25 90H74.7727C60.9656 90 49.7727 78.8071 49.7727 65V0Z" fill="white"/>
<path d="M74 0H128V119C128 132.807 116.807 144 103 144H49C62.8071 144 74 132.807 74 119V0Z" fill="white"/>
<path d="M517 144C503.193 144 492 132.807 492 119V79C492 65.1929 503.193 54 517 54H560V54.0058C549.822 54.2555 541.647 62.5849 541.647 72.8235V125.176C541.647 135.415 549.822 143.744 560 143.994V144H517Z" fill="white"/>
<path d="M620 25C620 11.1929 608.807 0 595 0H541C554.807 0 566 11.1929 566 25V120.5C566 128.333 571.4 144 593 144H640.5C624.5 144 620.167 128.333 620 120.5V25Z" fill="white"/>
</svg>
