<svg width="593" height="144" viewBox="0 0 593 144" fill="none" xmlns="http://www.w3.org/2000/svg">
<path d="M330 0.00781908V0H403C416.807 0 428 11.1929 428 25L428 75H427.721C426.085 64.1282 417.449 55.5491 406.549 54H330V53.9922C329.763 53.9974 329.526 54 329.288 54C313.113 54 300 41.9117 300 27C300 12.0883 313.113 0 329.288 0C329.526 0 329.763 0.00261619 330 0.00781908Z" fill="black"/>
<path d="M321.451 90H398V90.0078C398.237 90.0026 398.474 90 398.712 90C414.887 90 428 102.088 428 117C428 131.912 414.887 144 398.712 144C398.474 144 398.237 143.997 398 143.992V144H325C311.193 144 300 132.807 300 119L300 69H300.279C301.915 79.8718 310.551 88.4509 321.451 90Z" fill="black"/>
<path d="M205.316 0H152V119C152 132.807 163.193 144 177 144H230.316C216.509 144 205.316 132.807 205.316 119V0Z" fill="black"/>
<path d="M274.502 0H229V119C229 132.807 240.193 144 254 144H299.502C285.695 144 274.502 132.807 274.502 119V0Z" fill="black"/>
<path d="M49.7727 0H0V65C0 78.8071 11.1929 90 25 90H74.7727C60.9656 90 49.7727 78.8071 49.7727 65V0Z" fill="black"/>
<path d="M74 0H128V119C128 132.807 116.807 144 103 144H49C62.8071 144 74 132.807 74 119V0Z" fill="black"/>
<path d="M469 144C455.193 144 444 132.807 444 119V79C444 65.1929 455.193 54 469 54H512V54.0058C501.822 54.2555 493.647 62.5849 493.647 72.8235V125.176C493.647 135.415 501.822 143.744 512 143.994V144H469Z" fill="black"/>
<path d="M572 25C572 11.1929 560.807 0 547 0H493C506.807 0 518 11.1929 518 25V120.5C518 128.333 523.4 144 545 144H592.5C576.5 144 572.167 128.333 572 120.5V25Z" fill="black"/>
</svg>
