<svg width="664" height="157" viewBox="0 0 664 157" fill="none" xmlns="http://www.w3.org/2000/svg">
<path d="M541.264 156.343C532.203 156.343 524.857 148.983 524.857 139.906V81.3897C524.857 72.3118 532.203 64.9527 541.264 64.9527H590.39C581.329 64.9527 573.983 72.3118 573.983 81.3897V139.906C573.983 148.983 581.329 156.343 590.39 156.343H541.264Z" fill="white"/>
<path d="M599.838 32.7361C599.838 23.6582 592.492 16.2991 583.432 16.2991H631.187C640.248 16.2991 647.594 23.6582 647.594 32.7361L647.594 139.906C647.594 148.983 654.939 156.343 664 156.343H616.244C607.183 156.343 599.838 148.983 599.838 139.906L599.838 32.7361Z" fill="white"/>
<path d="M385.49 16.437C376.429 16.437 369.084 23.7961 369.084 32.874V81.6432C369.084 72.5653 376.429 65.2062 385.49 65.2062L475.639 65.2062C484.699 65.2062 492.045 57.8471 492.045 48.7692V0C492.045 9.07792 484.699 16.437 475.639 16.437L385.49 16.437Z" fill="white"/>
<path d="M476.896 107.175C476.414 107.132 475.925 107.11 475.431 107.11H385.576C376.912 107.11 369.816 113.839 369.212 122.365H369.17L369.17 139.924C369.16 148.993 361.819 156.343 352.764 156.343H475.431C483.377 156.343 490.003 150.683 491.514 143.168H491.837V140.92C491.974 140.066 492.045 139.189 492.045 138.296V90.7855C492.045 99.4393 485.37 106.531 476.896 107.175Z" fill="white"/>
<path d="M193.345 32.6004C193.345 23.5224 185.999 16.1633 176.938 16.1633H226.247C235.308 16.1633 242.653 23.5224 242.653 32.6004L242.653 139.77C242.653 148.848 249.998 156.207 259.059 156.207H209.751C200.69 156.207 193.345 148.848 193.345 139.77L193.345 32.6004Z" fill="white"/>
<path d="M268.169 32.6004C268.169 23.5225 260.824 16.1633 251.763 16.1633H301.3C310.361 16.1633 317.707 23.5225 317.707 32.6004L317.707 139.77C317.707 148.848 325.052 156.207 334.113 156.207H284.576C275.515 156.207 268.169 148.848 268.169 139.77L268.169 32.6004Z" fill="white"/>
<path d="M16.4063 32.7361C16.4063 23.6582 9.06093 16.2991 0 16.2991H49.1409C58.2018 16.2991 65.5471 23.6582 65.5471 32.7361L65.5472 90.5945C65.5472 99.6724 72.8925 107.031 81.9534 107.031H32.8125C23.7516 107.031 16.4063 99.6724 16.4063 90.5945L16.4063 32.7361Z" fill="white"/>
<path d="M140.138 32.7361C140.138 23.6582 147.484 16.2991 156.545 16.2991H106.93C97.869 16.2991 90.5237 23.6582 90.5237 32.7361L90.5237 140.563C90.5237 149.641 83.1783 157 74.1174 157H123.732C132.793 157 140.138 149.641 140.138 140.563L140.138 32.7361Z" fill="white"/>
</svg>
