<svg width="1200" height="628" viewBox="0 0 1200 628" fill="none" xmlns="http://www.w3.org/2000/svg">
<rect width="1200" height="628" fill="white"/>
<rect width="1200" height="628" fill="#1E1E1E"/>
<g clip-path="url(#clip0)">
<g filter="url(#filter0_dddi)">
<path fill-rule="evenodd" clip-rule="evenodd" d="M347.989 367.43C324.18 344.531 327.836 302.015 356.155 272.469L536.652 84.1539C564.972 54.6076 568.628 12.0918 544.818 -10.8076L415.689 -135C439.499 -112.101 435.842 -69.5849 407.523 -40.0385L227.026 148.276C198.706 177.823 195.05 220.338 218.86 243.238L347.989 367.43ZM212.31 556.802L506.251 243.345C503.93 245.152 501.724 247.158 499.655 249.363L621.587 119.337C643.854 95.5904 682.148 94.9532 707.118 117.913L1003.71 390.633C1028.68 413.593 1066.97 412.956 1089.24 389.209L967.31 519.236C945.042 542.982 906.749 543.62 881.779 520.659L671.7 327.49L343.524 677.455C310.85 712.298 264.936 722.682 240.973 700.648L109.759 579.995C133.722 602.03 179.636 591.646 212.31 556.802ZM744.944 692.147C766.579 712.273 797.688 714 814.428 696.004L905.188 598.437C888.448 616.433 857.338 614.706 835.703 594.58L696.242 464.849C674.606 444.724 670.638 413.82 687.378 395.825L596.618 493.391C579.878 511.387 583.847 542.29 605.482 562.416L744.944 692.147Z" fill="#1E1E1E"/>
</g>
</g>
<path d="M811.785 342.334C802.615 342.334 795.181 334.881 795.181 325.688V266.427C795.181 257.233 802.615 249.78 811.785 249.78H861.503C852.333 249.78 844.899 257.233 844.899 266.427V325.688C844.899 334.881 852.333 342.334 861.503 342.334H811.785Z" fill="#F7FBFA"/>
<path d="M871.065 217.153C871.065 207.96 863.631 200.507 854.461 200.507H902.792C911.962 200.507 919.396 207.96 919.396 217.153L919.396 325.688C919.396 334.881 926.83 342.334 936 342.334H887.669C878.499 342.334 871.065 334.881 871.065 325.688L871.065 217.153Z" fill="#F7FBFA"/>
<path d="M654.135 200.646C644.964 200.646 637.531 208.099 637.531 217.293V266.683C637.531 257.49 644.964 250.037 654.135 250.037L745.369 250.037C754.539 250.037 761.973 242.584 761.973 233.39V184C761.973 193.194 754.539 200.646 745.369 200.646L654.135 200.646Z" fill="#F7FBFA"/>
<path d="M746.642 292.54C746.154 292.497 745.659 292.475 745.159 292.475H654.222C645.453 292.475 638.272 299.289 637.66 307.924H637.618L637.618 325.706C637.608 334.891 630.178 342.334 621.014 342.334H745.159C753.201 342.334 759.907 336.602 761.436 328.991H761.763V326.715C761.901 325.85 761.973 324.962 761.973 324.058V275.942C761.973 284.706 755.218 291.888 746.642 292.54Z" fill="#F7FBFA"/>
<path d="M459.674 217.016C459.674 207.822 452.241 200.369 443.07 200.369H492.973C502.143 200.369 509.577 207.822 509.577 217.016L509.577 325.55C509.577 334.744 517.011 342.197 526.181 342.197H476.278C467.108 342.197 459.674 334.744 459.674 325.55L459.674 217.016Z" fill="#F7FBFA"/>
<path d="M535.4 217.016C535.4 207.822 527.967 200.369 518.797 200.369H568.931C578.101 200.369 585.535 207.822 585.535 217.016L585.535 325.55C585.535 334.744 592.969 342.197 602.139 342.197H552.004C542.834 342.197 535.4 334.744 535.4 325.55L535.4 217.016Z" fill="#F7FBFA"/>
<path d="M280.604 217.153C280.604 207.96 273.17 200.507 264 200.507H313.733C322.903 200.507 330.337 207.96 330.337 217.153L330.337 275.749C330.337 284.942 337.771 292.395 346.941 292.395H297.208C288.038 292.395 280.604 284.942 280.604 275.749L280.604 217.153Z" fill="#F7FBFA"/>
<path d="M405.827 217.153C405.827 207.96 413.261 200.507 422.431 200.507H372.218C363.048 200.507 355.614 207.96 355.614 217.153L355.614 326.354C355.614 335.547 348.18 343 339.01 343H389.223C398.393 343 405.827 335.547 405.827 326.354L405.827 217.153Z" fill="#F7FBFA"/>
<path d="M281.67 422.318C279.88 422.318 278.146 422.046 276.468 421.502C274.814 420.935 273.51 420.21 272.558 419.326L273.816 416.674C274.723 417.49 275.879 418.159 277.284 418.68C278.712 419.179 280.174 419.428 281.67 419.428C283.642 419.428 285.116 419.099 286.09 418.442C287.065 417.762 287.552 416.867 287.552 415.756C287.552 414.94 287.28 414.283 286.736 413.784C286.215 413.263 285.558 412.866 284.764 412.594C283.994 412.322 282.894 412.016 281.466 411.676C279.676 411.245 278.225 410.815 277.114 410.384C276.026 409.953 275.086 409.296 274.292 408.412C273.522 407.505 273.136 406.293 273.136 404.774C273.136 403.505 273.465 402.36 274.122 401.34C274.802 400.32 275.822 399.504 277.182 398.892C278.542 398.28 280.231 397.974 282.248 397.974C283.654 397.974 285.036 398.155 286.396 398.518C287.756 398.881 288.924 399.402 289.898 400.082L288.776 402.802C287.779 402.167 286.714 401.691 285.58 401.374C284.447 401.034 283.336 400.864 282.248 400.864C280.322 400.864 278.871 401.215 277.896 401.918C276.944 402.621 276.468 403.527 276.468 404.638C276.468 405.454 276.74 406.123 277.284 406.644C277.828 407.143 278.497 407.539 279.29 407.834C280.106 408.106 281.206 408.401 282.588 408.718C284.379 409.149 285.818 409.579 286.906 410.01C287.994 410.441 288.924 411.098 289.694 411.982C290.488 412.866 290.884 414.056 290.884 415.552C290.884 416.799 290.544 417.943 289.864 418.986C289.184 420.006 288.153 420.822 286.77 421.434C285.388 422.023 283.688 422.318 281.67 422.318ZM306.969 403.856C308.715 403.856 310.279 404.241 311.661 405.012C313.044 405.783 314.121 406.859 314.891 408.242C315.685 409.625 316.081 411.223 316.081 413.036C316.081 414.849 315.685 416.459 314.891 417.864C314.121 419.247 313.044 420.323 311.661 421.094C310.279 421.865 308.715 422.25 306.969 422.25C305.677 422.25 304.487 422.001 303.399 421.502C302.334 421.003 301.427 420.278 300.679 419.326V428.642H297.415V404.026H300.543V406.882C301.269 405.885 302.187 405.137 303.297 404.638C304.408 404.117 305.632 403.856 306.969 403.856ZM306.697 419.394C307.853 419.394 308.885 419.133 309.791 418.612C310.721 418.068 311.446 417.32 311.967 416.368C312.511 415.393 312.783 414.283 312.783 413.036C312.783 411.789 312.511 410.69 311.967 409.738C311.446 408.763 310.721 408.015 309.791 407.494C308.885 406.973 307.853 406.712 306.697 406.712C305.564 406.712 304.533 406.984 303.603 407.528C302.697 408.049 301.971 408.786 301.427 409.738C300.906 410.69 300.645 411.789 300.645 413.036C300.645 414.283 300.906 415.393 301.427 416.368C301.949 417.32 302.674 418.068 303.603 418.612C304.533 419.133 305.564 419.394 306.697 419.394ZM325.759 407.052C326.326 406.009 327.165 405.216 328.275 404.672C329.386 404.128 330.735 403.856 332.321 403.856V407.018C332.14 406.995 331.891 406.984 331.573 406.984C329.805 406.984 328.411 407.517 327.391 408.582C326.394 409.625 325.895 411.121 325.895 413.07V422.046H322.631V404.026H325.759V407.052ZM338.384 404.026H341.648V422.046H338.384V404.026ZM340.016 400.558C339.381 400.558 338.849 400.354 338.418 399.946C338.01 399.538 337.806 399.039 337.806 398.45C337.806 397.861 338.01 397.362 338.418 396.954C338.849 396.523 339.381 396.308 340.016 396.308C340.651 396.308 341.172 396.512 341.58 396.92C342.011 397.305 342.226 397.793 342.226 398.382C342.226 398.994 342.011 399.515 341.58 399.946C341.172 400.354 340.651 400.558 340.016 400.558ZM359.542 403.856C361.832 403.856 363.645 404.525 364.982 405.862C366.342 407.177 367.022 409.115 367.022 411.676V422.046H363.758V412.05C363.758 410.305 363.339 408.99 362.5 408.106C361.662 407.222 360.46 406.78 358.896 406.78C357.128 406.78 355.734 407.301 354.714 408.344C353.694 409.364 353.184 410.837 353.184 412.764V422.046H349.92V404.026H353.048V406.746C353.706 405.817 354.59 405.103 355.7 404.604C356.834 404.105 358.114 403.856 359.542 403.856ZM385.235 420.992C384.759 421.4 384.169 421.717 383.467 421.944C382.764 422.148 382.039 422.25 381.291 422.25C379.477 422.25 378.072 421.763 377.075 420.788C376.077 419.813 375.579 418.419 375.579 416.606V406.712H372.519V404.026H375.579V400.082H378.843V404.026H384.011V406.712H378.843V416.47C378.843 417.445 379.081 418.193 379.557 418.714C380.055 419.235 380.758 419.496 381.665 419.496C382.662 419.496 383.512 419.213 384.215 418.646L385.235 420.992ZM411.98 413.818V422.046H408.614V413.75L399.162 398.246H402.8L410.416 410.792L418.066 398.246H421.432L411.98 413.818ZM432.138 422.25C430.347 422.25 428.738 421.853 427.31 421.06C425.882 420.267 424.76 419.179 423.944 417.796C423.151 416.391 422.754 414.804 422.754 413.036C422.754 411.268 423.151 409.693 423.944 408.31C424.76 406.905 425.882 405.817 427.31 405.046C428.738 404.253 430.347 403.856 432.138 403.856C433.929 403.856 435.527 404.253 436.932 405.046C438.36 405.817 439.471 406.905 440.264 408.31C441.08 409.693 441.488 411.268 441.488 413.036C441.488 414.804 441.08 416.391 440.264 417.796C439.471 419.179 438.36 420.267 436.932 421.06C435.527 421.853 433.929 422.25 432.138 422.25ZM432.138 419.394C433.294 419.394 434.325 419.133 435.232 418.612C436.161 418.068 436.887 417.32 437.408 416.368C437.929 415.393 438.19 414.283 438.19 413.036C438.19 411.789 437.929 410.69 437.408 409.738C436.887 408.763 436.161 408.015 435.232 407.494C434.325 406.973 433.294 406.712 432.138 406.712C430.982 406.712 429.939 406.973 429.01 407.494C428.103 408.015 427.378 408.763 426.834 409.738C426.313 410.69 426.052 411.789 426.052 413.036C426.052 414.283 426.313 415.393 426.834 416.368C427.378 417.32 428.103 418.068 429.01 418.612C429.939 419.133 430.982 419.394 432.138 419.394ZM464.838 404.026V422.046H461.744V419.326C461.087 420.255 460.214 420.981 459.126 421.502C458.061 422.001 456.893 422.25 455.624 422.25C453.221 422.25 451.329 421.593 449.946 420.278C448.563 418.941 447.872 416.98 447.872 414.396V404.026H451.136V414.022C451.136 415.767 451.555 417.093 452.394 418C453.233 418.884 454.434 419.326 455.998 419.326C457.721 419.326 459.081 418.805 460.078 417.762C461.075 416.719 461.574 415.246 461.574 413.342V404.026H464.838ZM476.22 407.052C476.786 406.009 477.625 405.216 478.736 404.672C479.846 404.128 481.195 403.856 482.782 403.856V407.018C482.6 406.995 482.351 406.984 482.034 406.984C480.266 406.984 478.872 407.517 477.852 408.582C476.854 409.625 476.356 411.121 476.356 413.07V422.046H473.092V404.026H476.22V407.052ZM500.724 398.246H510.754C513.27 398.246 515.503 398.745 517.452 399.742C519.401 400.739 520.909 402.145 521.974 403.958C523.062 405.749 523.606 407.811 523.606 410.146C523.606 412.481 523.062 414.555 521.974 416.368C520.909 418.159 519.401 419.553 517.452 420.55C515.503 421.547 513.27 422.046 510.754 422.046H500.724V398.246ZM510.55 419.088C512.477 419.088 514.165 418.714 515.616 417.966C517.089 417.218 518.223 416.175 519.016 414.838C519.809 413.478 520.206 411.914 520.206 410.146C520.206 408.378 519.809 406.825 519.016 405.488C518.223 404.128 517.089 403.074 515.616 402.326C514.165 401.578 512.477 401.204 510.55 401.204H504.124V419.088H510.55ZM530.378 404.026H533.642V422.046H530.378V404.026ZM532.01 400.558C531.375 400.558 530.842 400.354 530.412 399.946C530.004 399.538 529.8 399.039 529.8 398.45C529.8 397.861 530.004 397.362 530.412 396.954C530.842 396.523 531.375 396.308 532.01 396.308C532.644 396.308 533.166 396.512 533.574 396.92C534.004 397.305 534.22 397.793 534.22 398.382C534.22 398.994 534.004 399.515 533.574 399.946C533.166 400.354 532.644 400.558 532.01 400.558ZM559.152 404.026V419.598C559.152 422.749 558.37 425.072 556.806 426.568C555.242 428.087 552.907 428.846 549.802 428.846C548.102 428.846 546.481 428.608 544.94 428.132C543.399 427.679 542.152 427.021 541.2 426.16L542.764 423.644C543.603 424.369 544.634 424.936 545.858 425.344C547.105 425.775 548.385 425.99 549.7 425.99C551.808 425.99 553.361 425.491 554.358 424.494C555.378 423.497 555.888 421.978 555.888 419.938V418.51C555.117 419.439 554.165 420.142 553.032 420.618C551.921 421.071 550.709 421.298 549.394 421.298C547.671 421.298 546.107 420.935 544.702 420.21C543.319 419.462 542.231 418.431 541.438 417.116C540.645 415.779 540.248 414.26 540.248 412.56C540.248 410.86 540.645 409.353 541.438 408.038C542.231 406.701 543.319 405.669 544.702 404.944C546.107 404.219 547.671 403.856 549.394 403.856C550.754 403.856 552.012 404.105 553.168 404.604C554.347 405.103 555.31 405.839 556.058 406.814V404.026H559.152ZM549.768 418.442C550.947 418.442 552.001 418.193 552.93 417.694C553.882 417.195 554.619 416.504 555.14 415.62C555.684 414.713 555.956 413.693 555.956 412.56C555.956 410.815 555.378 409.409 554.222 408.344C553.066 407.256 551.581 406.712 549.768 406.712C547.932 406.712 546.436 407.256 545.28 408.344C544.124 409.409 543.546 410.815 543.546 412.56C543.546 413.693 543.807 414.713 544.328 415.62C544.872 416.504 545.609 417.195 546.538 417.694C547.49 418.193 548.567 418.442 549.768 418.442ZM567.429 404.026H570.693V422.046H567.429V404.026ZM569.061 400.558C568.426 400.558 567.893 400.354 567.463 399.946C567.055 399.538 566.851 399.039 566.851 398.45C566.851 397.861 567.055 397.362 567.463 396.954C567.893 396.523 568.426 396.308 569.061 396.308C569.695 396.308 570.217 396.512 570.625 396.92C571.055 397.305 571.271 397.793 571.271 398.382C571.271 398.994 571.055 399.515 570.625 399.946C570.217 400.354 569.695 400.558 569.061 400.558ZM589.097 420.992C588.621 421.4 588.031 421.717 587.329 421.944C586.626 422.148 585.901 422.25 585.153 422.25C583.339 422.25 581.934 421.763 580.937 420.788C579.939 419.813 579.441 418.419 579.441 416.606V406.712H576.381V404.026H579.441V400.082H582.705V404.026H587.873V406.712H582.705V416.47C582.705 417.445 582.943 418.193 583.419 418.714C583.917 419.235 584.62 419.496 585.527 419.496C586.524 419.496 587.374 419.213 588.077 418.646L589.097 420.992ZM601.645 403.856C604.138 403.856 606.042 404.468 607.357 405.692C608.694 406.916 609.363 408.741 609.363 411.166V422.046H606.269V419.666C605.725 420.505 604.943 421.151 603.923 421.604C602.925 422.035 601.735 422.25 600.353 422.25C598.335 422.25 596.715 421.763 595.491 420.788C594.289 419.813 593.689 418.533 593.689 416.946C593.689 415.359 594.267 414.09 595.423 413.138C596.579 412.163 598.415 411.676 600.931 411.676H606.099V411.03C606.099 409.625 605.691 408.548 604.875 407.8C604.059 407.052 602.857 406.678 601.271 406.678C600.205 406.678 599.163 406.859 598.143 407.222C597.123 407.562 596.261 408.027 595.559 408.616L594.199 406.168C595.128 405.42 596.239 404.853 597.531 404.468C598.823 404.06 600.194 403.856 601.645 403.856ZM600.897 419.734C602.143 419.734 603.22 419.462 604.127 418.918C605.033 418.351 605.691 417.558 606.099 416.538V414.022H601.067C598.301 414.022 596.919 414.951 596.919 416.81C596.919 417.717 597.27 418.431 597.973 418.952C598.675 419.473 599.65 419.734 600.897 419.734ZM617.443 396.818H620.707V422.046H617.443V396.818ZM645.352 401.204H637.192V398.246H656.878V401.204H648.718V422.046H645.352V401.204ZM664.841 407.052C665.408 406.009 666.247 405.216 667.357 404.672C668.468 404.128 669.817 403.856 671.403 403.856V407.018C671.222 406.995 670.973 406.984 670.655 406.984C668.887 406.984 667.493 407.517 666.473 408.582C665.476 409.625 664.977 411.121 664.977 413.07V422.046H661.713V404.026H664.841V407.052ZM683.995 403.856C686.488 403.856 688.392 404.468 689.707 405.692C691.044 406.916 691.713 408.741 691.713 411.166V422.046H688.619V419.666C688.075 420.505 687.293 421.151 686.273 421.604C685.276 422.035 684.086 422.25 682.703 422.25C680.686 422.25 679.065 421.763 677.841 420.788C676.64 419.813 676.039 418.533 676.039 416.946C676.039 415.359 676.617 414.09 677.773 413.138C678.929 412.163 680.765 411.676 683.281 411.676H688.449V411.03C688.449 409.625 688.041 408.548 687.225 407.8C686.409 407.052 685.208 406.678 683.621 406.678C682.556 406.678 681.513 406.859 680.493 407.222C679.473 407.562 678.612 408.027 677.909 408.616L676.549 406.168C677.478 405.42 678.589 404.853 679.881 404.468C681.173 404.06 682.544 403.856 683.995 403.856ZM683.247 419.734C684.494 419.734 685.57 419.462 686.477 418.918C687.384 418.351 688.041 417.558 688.449 416.538V414.022H683.417C680.652 414.022 679.269 414.951 679.269 416.81C679.269 417.717 679.62 418.431 680.323 418.952C681.026 419.473 682 419.734 683.247 419.734ZM709.415 403.856C711.705 403.856 713.518 404.525 714.855 405.862C716.215 407.177 716.895 409.115 716.895 411.676V422.046H713.631V412.05C713.631 410.305 713.212 408.99 712.373 408.106C711.535 407.222 710.333 406.78 708.769 406.78C707.001 406.78 705.607 407.301 704.587 408.344C703.567 409.364 703.057 410.837 703.057 412.764V422.046H699.793V404.026H702.921V406.746C703.579 405.817 704.463 405.103 705.573 404.604C706.707 404.105 707.987 403.856 709.415 403.856ZM730.144 422.25C728.671 422.25 727.254 422.057 725.894 421.672C724.534 421.264 723.469 420.754 722.698 420.142L724.058 417.558C724.851 418.125 725.815 418.578 726.948 418.918C728.081 419.258 729.226 419.428 730.382 419.428C733.238 419.428 734.666 418.612 734.666 416.98C734.666 416.436 734.473 416.005 734.088 415.688C733.703 415.371 733.215 415.144 732.626 415.008C732.059 414.849 731.243 414.679 730.178 414.498C728.727 414.271 727.537 414.011 726.608 413.716C725.701 413.421 724.919 412.923 724.262 412.22C723.605 411.517 723.276 410.531 723.276 409.262C723.276 407.63 723.956 406.327 725.316 405.352C726.676 404.355 728.501 403.856 730.79 403.856C731.991 403.856 733.193 404.003 734.394 404.298C735.595 404.593 736.581 404.989 737.352 405.488L735.958 408.072C734.485 407.12 732.751 406.644 730.756 406.644C729.373 406.644 728.319 406.871 727.594 407.324C726.869 407.777 726.506 408.378 726.506 409.126C726.506 409.715 726.71 410.18 727.118 410.52C727.526 410.86 728.025 411.109 728.614 411.268C729.226 411.427 730.076 411.608 731.164 411.812C732.615 412.061 733.782 412.333 734.666 412.628C735.573 412.9 736.343 413.376 736.978 414.056C737.613 414.736 737.93 415.688 737.93 416.912C737.93 418.544 737.227 419.847 735.822 420.822C734.439 421.774 732.547 422.25 730.144 422.25ZM750.645 399.3C748.696 399.3 747.721 400.354 747.721 402.462V404.026H752.957V406.712H747.789V422.046H744.525V406.712H741.465V404.026H744.525V402.428C744.525 400.637 745.047 399.221 746.089 398.178C747.132 397.135 748.594 396.614 750.475 396.614C751.201 396.614 751.881 396.705 752.515 396.886C753.15 397.067 753.694 397.328 754.147 397.668L753.161 400.15C752.413 399.583 751.575 399.3 750.645 399.3ZM765.528 422.25C763.737 422.25 762.128 421.853 760.7 421.06C759.272 420.267 758.15 419.179 757.334 417.796C756.541 416.391 756.144 414.804 756.144 413.036C756.144 411.268 756.541 409.693 757.334 408.31C758.15 406.905 759.272 405.817 760.7 405.046C762.128 404.253 763.737 403.856 765.528 403.856C767.319 403.856 768.917 404.253 770.322 405.046C771.75 405.817 772.861 406.905 773.654 408.31C774.47 409.693 774.878 411.268 774.878 413.036C774.878 414.804 774.47 416.391 773.654 417.796C772.861 419.179 771.75 420.267 770.322 421.06C768.917 421.853 767.319 422.25 765.528 422.25ZM765.528 419.394C766.684 419.394 767.715 419.133 768.622 418.612C769.551 418.068 770.277 417.32 770.798 416.368C771.319 415.393 771.58 414.283 771.58 413.036C771.58 411.789 771.319 410.69 770.798 409.738C770.277 408.763 769.551 408.015 768.622 407.494C767.715 406.973 766.684 406.712 765.528 406.712C764.372 406.712 763.329 406.973 762.4 407.494C761.493 408.015 760.768 408.763 760.224 409.738C759.703 410.69 759.442 411.789 759.442 413.036C759.442 414.283 759.703 415.393 760.224 416.368C760.768 417.32 761.493 418.068 762.4 418.612C763.329 419.133 764.372 419.394 765.528 419.394ZM784.56 407.052C785.127 406.009 785.965 405.216 787.076 404.672C788.187 404.128 789.535 403.856 791.122 403.856V407.018C790.941 406.995 790.691 406.984 790.374 406.984C788.606 406.984 787.212 407.517 786.192 408.582C785.195 409.625 784.696 411.121 784.696 413.07V422.046H781.432V404.026H784.56V407.052ZM819.727 403.856C821.993 403.856 823.784 404.513 825.099 405.828C826.436 407.143 827.105 409.092 827.105 411.676V422.046H823.841V412.05C823.841 410.305 823.433 408.99 822.617 408.106C821.823 407.222 820.679 406.78 819.183 406.78C817.528 406.78 816.213 407.301 815.239 408.344C814.264 409.364 813.777 410.837 813.777 412.764V422.046H810.513V412.05C810.513 410.305 810.105 408.99 809.289 408.106C808.495 407.222 807.351 406.78 805.855 406.78C804.2 406.78 802.885 407.301 801.911 408.344C800.936 409.364 800.449 410.837 800.449 412.764V422.046H797.185V404.026H800.313V406.712C800.97 405.783 801.831 405.08 802.897 404.604C803.962 404.105 805.175 403.856 806.535 403.856C807.94 403.856 809.187 404.139 810.275 404.706C811.363 405.273 812.201 406.1 812.791 407.188C813.471 406.145 814.411 405.329 815.613 404.74C816.837 404.151 818.208 403.856 819.727 403.856ZM841.713 403.856C844.206 403.856 846.11 404.468 847.425 405.692C848.762 406.916 849.431 408.741 849.431 411.166V422.046H846.337V419.666C845.793 420.505 845.011 421.151 843.991 421.604C842.993 422.035 841.803 422.25 840.421 422.25C838.403 422.25 836.783 421.763 835.559 420.788C834.357 419.813 833.757 418.533 833.757 416.946C833.757 415.359 834.335 414.09 835.491 413.138C836.647 412.163 838.483 411.676 840.999 411.676H846.167V411.03C846.167 409.625 845.759 408.548 844.943 407.8C844.127 407.052 842.925 406.678 841.339 406.678C840.273 406.678 839.231 406.859 838.211 407.222C837.191 407.562 836.329 408.027 835.627 408.616L834.267 406.168C835.196 405.42 836.307 404.853 837.599 404.468C838.891 404.06 840.262 403.856 841.713 403.856ZM840.965 419.734C842.211 419.734 843.288 419.462 844.195 418.918C845.101 418.351 845.759 417.558 846.167 416.538V414.022H841.135C838.369 414.022 836.987 414.951 836.987 416.81C836.987 417.717 837.338 418.431 838.041 418.952C838.743 419.473 839.718 419.734 840.965 419.734ZM867.643 420.992C867.167 421.4 866.578 421.717 865.875 421.944C865.172 422.148 864.447 422.25 863.699 422.25C861.886 422.25 860.48 421.763 859.483 420.788C858.486 419.813 857.987 418.419 857.987 416.606V406.712H854.927V404.026H857.987V400.082H861.251V404.026H866.419V406.712H861.251V416.47C861.251 417.445 861.489 418.193 861.965 418.714C862.464 419.235 863.166 419.496 864.073 419.496C865.07 419.496 865.92 419.213 866.623 418.646L867.643 420.992ZM873.629 404.026H876.893V422.046H873.629V404.026ZM875.261 400.558C874.626 400.558 874.094 400.354 873.663 399.946C873.255 399.538 873.051 399.039 873.051 398.45C873.051 397.861 873.255 397.362 873.663 396.954C874.094 396.523 874.626 396.308 875.261 396.308C875.896 396.308 876.417 396.512 876.825 396.92C877.256 397.305 877.471 397.793 877.471 398.382C877.471 398.994 877.256 399.515 876.825 399.946C876.417 400.354 875.896 400.558 875.261 400.558ZM892.883 422.25C891.093 422.25 889.483 421.853 888.055 421.06C886.627 420.267 885.505 419.179 884.689 417.796C883.896 416.391 883.499 414.804 883.499 413.036C883.499 411.268 883.896 409.693 884.689 408.31C885.505 406.905 886.627 405.817 888.055 405.046C889.483 404.253 891.093 403.856 892.883 403.856C894.674 403.856 896.272 404.253 897.677 405.046C899.105 405.817 900.216 406.905 901.009 408.31C901.825 409.693 902.233 411.268 902.233 413.036C902.233 414.804 901.825 416.391 901.009 417.796C900.216 419.179 899.105 420.267 897.677 421.06C896.272 421.853 894.674 422.25 892.883 422.25ZM892.883 419.394C894.039 419.394 895.071 419.133 895.977 418.612C896.907 418.068 897.632 417.32 898.153 416.368C898.675 415.393 898.935 414.283 898.935 413.036C898.935 411.789 898.675 410.69 898.153 409.738C897.632 408.763 896.907 408.015 895.977 407.494C895.071 406.973 894.039 406.712 892.883 406.712C891.727 406.712 890.685 406.973 889.755 407.494C888.849 408.015 888.123 408.763 887.579 409.738C887.058 410.69 886.797 411.789 886.797 413.036C886.797 414.283 887.058 415.393 887.579 416.368C888.123 417.32 888.849 418.068 889.755 418.612C890.685 419.133 891.727 419.394 892.883 419.394ZM918.409 403.856C920.699 403.856 922.512 404.525 923.849 405.862C925.209 407.177 925.889 409.115 925.889 411.676V422.046H922.625V412.05C922.625 410.305 922.206 408.99 921.367 408.106C920.529 407.222 919.327 406.78 917.763 406.78C915.995 406.78 914.601 407.301 913.581 408.344C912.561 409.364 912.051 410.837 912.051 412.764V422.046H908.787V404.026H911.915V406.746C912.573 405.817 913.457 405.103 914.567 404.604C915.701 404.105 916.981 403.856 918.409 403.856Z" fill="white"/>
<defs>
<filter id="filter0_dddi" x="64.7593" y="-183" width="1057.48" height="931.214" filterUnits="userSpaceOnUse" color-interpolation-filters="sRGB">
<feFlood flood-opacity="0" result="BackgroundImageFix"/>
<feColorMatrix in="SourceAlpha" type="matrix" values="0 0 0 0 0 0 0 0 0 0 0 0 0 0 0 0 0 0 127 0"/>
<feOffset dx="-9" dy="-12"/>
<feGaussianBlur stdDeviation="18"/>
<feColorMatrix type="matrix" values="0 0 0 0 0.116667 0 0 0 0 0.116667 0 0 0 0 0.116667 0 0 0 0.53 0"/>
<feBlend mode="normal" in2="BackgroundImageFix" result="effect1_dropShadow"/>
<feColorMatrix in="SourceAlpha" type="matrix" values="0 0 0 0 0 0 0 0 0 0 0 0 0 0 0 0 0 0 127 0"/>
<feOffset dx="9" dy="12"/>
<feGaussianBlur stdDeviation="12"/>
<feColorMatrix type="matrix" values="0 0 0 0 0.0666667 0 0 0 0 0.0666667 0 0 0 0 0.0666667 0 0 0 0.6 0"/>
<feBlend mode="normal" in2="effect1_dropShadow" result="effect2_dropShadow"/>
<feColorMatrix in="SourceAlpha" type="matrix" values="0 0 0 0 0 0 0 0 0 0 0 0 0 0 0 0 0 0 127 0"/>
<feOffset dx="-6" dy="-18"/>
<feGaussianBlur stdDeviation="2"/>
<feColorMatrix type="matrix" values="0 0 0 0 0.116667 0 0 0 0 0.116667 0 0 0 0 0.116667 0 0 0 0.09 0"/>
<feBlend mode="normal" in2="effect2_dropShadow" result="effect3_dropShadow"/>
<feBlend mode="normal" in="SourceGraphic" in2="effect3_dropShadow" result="shape"/>
<feColorMatrix in="SourceAlpha" type="matrix" values="0 0 0 0 0 0 0 0 0 0 0 0 0 0 0 0 0 0 127 0" result="hardAlpha"/>
<feOffset dx="4" dy="6"/>
<feGaussianBlur stdDeviation="3"/>
<feComposite in2="hardAlpha" operator="arithmetic" k2="-1" k3="1"/>
<feColorMatrix type="matrix" values="0 0 0 0 1 0 0 0 0 1 0 0 0 0 1 0 0 0 0.06 0"/>
<feBlend mode="normal" in2="shape" result="effect4_innerShadow"/>
</filter>
<clipPath id="clip0">
<rect width="1200" height="628" fill="white"/>
</clipPath>
</defs>
</svg>
