<svg width="439" height="331" viewBox="0 0 439 331" fill="none" xmlns="http://www.w3.org/2000/svg">
<g filter="url(#filter0_dddi)">
<path opacity="0.18" d="M366.417 97.7408C369.847 117.272 350.238 136.533 356.296 155.397C359.783 166.294 370.244 173.089 379.262 180.097C393.593 191.212 406.817 207.361 404.838 225.388C402.698 244.832 384.183 258.579 365.781 265.209C296.753 290.053 60.3792 333.696 46.3705 223.531C43.703 202.475 55.7982 181.61 69.371 165.291C80.1674 152.315 140.304 93.9968 162.284 83.1089C260.197 34.5928 356.331 40.2503 366.417 97.7408Z" fill="#FCFCFC"/>
<path opacity="0.05" d="M246.493 69.5449C246.493 69.5449 375.945 68.416 354.23 121.369C337.41 162.34 356.632 165.343 362.642 185.158C368.653 204.972 361.657 227.546 347.178 238.242C332.698 248.938 274.75 247.046 274.75 262.881C274.75 278.716 258.623 272.937 258.623 272.937H157.11L175.652 217.024L246.493 69.5449Z" fill="#000405"/>
<g filter="url(#filter1_d)">
<path d="M266.081 266.743H157.11V272.954H266.081V266.743Z" fill="#FCFCFC"/>
</g>
<path d="M249.435 217.037H175.652V266.743H249.435V217.037Z" fill="#FCFCFC"/>
<path d="M249.435 217.037H175.652V266.743H249.435V217.037Z" fill="#FCFCFC"/>
<path d="M249.435 217.037H175.652V266.743H249.435V217.037Z" fill="url(#paint0_linear)"/>
<g filter="url(#filter2_d)">
<path d="M347.178 76.4097V206.585C347.178 210.316 346.443 214.011 345.015 217.458C343.586 220.904 341.493 224.036 338.854 226.674C336.215 229.311 333.082 231.403 329.634 232.829C326.186 234.255 322.491 234.988 318.76 234.986H102.545C95.0126 234.986 87.7887 231.994 82.4625 226.667C77.1363 221.341 74.144 214.117 74.144 206.585V76.4097C74.1435 72.6794 74.8776 68.9856 76.3046 65.5391C77.7316 62.0926 79.8234 58.9609 82.4607 56.3228C85.0979 53.6847 88.229 51.5919 91.6751 50.1639C95.1211 48.7359 98.8147 48.0006 102.545 48H318.734C322.466 47.9954 326.163 48.7263 329.612 50.1509C333.062 51.5755 336.197 53.6658 338.839 56.3025C341.48 58.9392 343.576 62.0705 345.007 65.5176C346.438 68.9647 347.176 72.66 347.178 76.3922V76.4097Z" fill="#FCFCFC"/>
</g>
<path d="M347.178 76.4097V199.759H74.1743V76.4097C74.1737 72.6794 74.9079 68.9856 76.3349 65.5391C77.7618 62.0926 79.8537 58.9609 82.4909 56.3228C85.1282 53.6847 88.2593 51.5919 91.7053 50.1639C95.1514 48.7359 98.845 48.0006 102.575 48H318.733C322.466 47.9954 326.162 48.7263 329.612 50.1509C333.062 51.5755 336.197 53.6658 338.839 56.3025C341.48 58.9392 343.576 62.0705 345.007 65.5176C346.438 68.9647 347.176 72.66 347.178 76.3922V76.4097Z" fill="url(#paint1_linear)"/>
<path d="M300.022 73.7378H107.134V111.776H300.022V73.7378Z" fill="#FBFBFB"/>
<path d="M194.752 116.631H107.134V193.243H194.752V116.631Z" fill="url(#paint2_linear)"/>
<path d="M298.466 116.631H200.941V142.217H298.466V116.631Z" fill="url(#paint3_linear)"/>
<path d="M298.466 147.072H200.941V172.658H298.466V147.072Z" fill="url(#paint4_linear)"/>
<path d="M298.466 177.513H200.941V193.243H298.466V177.513Z" fill="url(#paint5_linear)"/>
<path d="M256.519 284.835H260.681L247.854 123.465L244.336 124.411L245.134 134.955L232.494 135.752L231.522 123.465L228.004 124.411L240.174 284.835H244.336L242.885 266.529L255.089 265.779L254.906 262.881L242.654 263.635L241.612 250.559L254.139 249.766L253.96 246.876L241.385 247.652L240.348 234.55L252.631 233.77L256.519 284.835ZM232.725 138.629L245.365 137.823L246.359 150.925L233.775 151.736L232.725 138.629ZM233.993 154.608L246.568 153.802L247.562 166.96L235.048 167.745L233.993 154.608ZM235.27 170.617L247.78 169.815L248.843 183.802L236.356 184.56L235.27 170.617ZM236.604 187.442L249.061 186.696L249.985 198.9L237.576 199.681L236.604 187.442ZM237.803 202.575L250.203 201.786L251.197 214.905L238.844 215.686L237.803 202.575ZM240.117 231.677L239.071 218.558L251.419 217.769L252.413 230.897L240.117 231.677Z" fill="#FCFCFC"/>
<path d="M150.525 133.713V123.465H147.958V133.713H135.47V136.886H147.958V278.755H150.525V153.405L165.745 136.886H177.4V133.695L150.525 133.713ZM150.525 148.92V136.886H162.102L150.525 148.92Z" fill="#FCFCFC"/>
<path d="M277.327 133.713V123.465H274.759V133.713H250.094V136.886H260.803L274.751 152.01V278.755H277.327V136.886H292.033V133.695L277.327 133.713ZM274.759 147.604L264.442 136.886H274.751L274.759 147.604Z" fill="#FCFCFC"/>
<path opacity="0.92" d="M256.519 284.835H260.681L247.854 123.465L244.336 124.411L245.134 134.955L232.494 135.752L231.522 123.465L228.004 124.411L240.174 284.835H244.336L242.885 266.529L255.089 265.779L254.906 262.881L242.654 263.635L241.612 250.559L254.139 249.766L253.96 246.876L241.385 247.652L240.348 234.55L252.631 233.77L256.519 284.835ZM232.725 138.629L245.365 137.823L246.359 150.925L233.775 151.736L232.725 138.629ZM233.993 154.608L246.568 153.802L247.562 166.96L235.048 167.745L233.993 154.608ZM235.27 170.617L247.78 169.815L248.843 183.802L236.356 184.56L235.27 170.617ZM236.604 187.442L249.061 186.696L249.985 198.9L237.576 199.681L236.604 187.442ZM237.803 202.575L250.203 201.786L251.197 214.905L238.844 215.686L237.803 202.575ZM240.117 231.677L239.071 218.558L251.419 217.769L252.413 230.897L240.117 231.677Z" fill="#202C40"/>
<path opacity="0.61" d="M150.525 133.713V123.465H147.958V133.713H135.47V136.886H147.958V278.755H150.525V153.405L165.745 136.886H177.4V133.695L150.525 133.713ZM150.525 148.92V136.886H162.102L150.525 148.92Z" fill="url(#paint6_linear)"/>
<path opacity="0.61" d="M277.327 133.713V123.465H274.759V133.713H250.094V136.886H260.803L274.751 152.01V278.755H277.327V136.886H292.033V133.695L277.327 133.713ZM274.759 147.604L264.442 136.886H274.751L274.759 147.604Z" fill="url(#paint7_linear)"/>
<path d="M250.477 166.368L250.181 169.026H244.04C244.04 169.026 243.538 167.492 244.658 167.109C245.273 166.892 245.906 166.733 246.55 166.634L250.477 166.368Z" fill="#FCFCFC"/>
<path d="M241.913 111.3C241.63 113.68 241.777 116.091 242.349 118.418C242.691 118.859 243.145 119.202 243.664 119.409C244.182 119.617 244.747 119.682 245.299 119.599V121.369H248.237L249.492 112.508C249.492 112.508 244.868 106.606 241.913 111.3Z" fill="url(#paint8_linear)"/>
<path d="M243.983 112.186C244.446 113.111 244.741 114.112 244.854 115.141C244.854 115.141 245.443 113.96 245.726 114.548C246.01 115.136 245.138 116.322 245.138 116.322L246.01 117.795H248.995C248.995 117.795 250.473 111.331 249.645 110.442C248.816 109.553 248.259 109.57 248.259 109.57C248.259 109.57 248.259 108.699 246.485 108.699C244.711 108.699 242.353 108.699 241.468 110.176C240.583 111.654 240.287 111.048 240.287 111.048C240.287 111.048 240.788 112.142 241.555 111.876C241.738 111.833 243.686 111.301 243.983 112.186Z" fill="#333333"/>
<path d="M245.308 121.369H250.272C250.272 121.369 252.369 121.805 252.661 126.831C252.84 130.264 252.84 133.705 252.661 137.139V145.377L250.272 144.579L241.411 146.558L240.54 134.48C239.62 134.368 238.737 134.057 237.949 133.569C237.162 133.082 236.49 132.429 235.98 131.656C235.335 130.688 234.929 129.582 234.796 128.427C234.663 127.272 234.806 126.102 235.213 125.013L241.381 128.26L241.708 126.517C242.046 124.627 243.104 122.943 244.658 121.818L245.308 121.369Z" fill="#FFD02B"/>
<path d="M236.037 123.378L234.564 118.653L240.439 117.764L242.418 124.202L241.381 128.26L237.859 126.425L236.037 123.378Z" fill="#FCFDFF"/>
<path d="M234.856 126.02C234.956 125.031 235.37 124.101 236.037 123.365L236.334 123.657H238.212L238.509 124.812L237.829 125.784C237.42 126.129 236.913 126.337 236.38 126.379C235.847 126.421 235.314 126.295 234.856 126.02Z" fill="url(#paint9_linear)"/>
<path d="M237.859 126.425L239.259 130.138L241.381 128.26L237.859 126.425Z" fill="url(#paint10_linear)"/>
<path opacity="0.61" d="M240.439 134.271C240.439 134.271 245.186 132.497 245.186 129.546L246.372 143.106L241.346 144.296L240.439 134.271Z" fill="url(#paint11_linear)"/>
<path d="M241.324 144.282L240.439 158.988L241.621 166.664H245.164L245.753 153.998L247.819 148.68L246.345 166.664L250.477 166.96L252.513 143.101L250.181 142.216L241.324 144.282Z" fill="#333333"/>
<path d="M244.985 166.664V169.606L238.757 167.383C238.757 167.383 238.757 165.757 239.964 165.757C240.618 165.754 241.27 165.813 241.913 165.936L244.985 166.664Z" fill="#FCFCFC"/>
<path d="M163.679 283.301L163.984 285.951H170.13C170.13 285.951 170.631 284.417 169.507 284.034C168.894 283.816 168.262 283.658 167.619 283.563L163.679 283.301Z" fill="#FCFCFC"/>
<path d="M167.946 227.668C169.014 229.795 169.695 232.096 169.956 234.463C169.603 236.145 167.532 236.529 167.532 236.529L168.094 238.211L165.144 239.244L161.125 231.272C161.125 231.272 163.636 224.155 167.946 227.668Z" fill="url(#paint12_linear)"/>
<path d="M166.264 229.176C166.094 230.152 166.094 231.15 166.264 232.126C166.264 232.126 165.318 231.211 165.231 231.861C165.144 232.51 166.351 233.338 166.351 233.338L165.998 235.021L163.313 235.936C163.313 235.936 159.826 230.27 160.358 229.176C160.89 228.082 161.156 227.964 161.156 227.964C161.156 227.964 160.859 227.136 162.542 226.547C164.224 225.959 166.464 225.24 167.772 226.343C169.08 227.445 169.158 226.778 169.158 226.778C169.158 226.778 169.158 227.96 168.212 227.99C168.304 228.112 166.264 228.23 166.264 229.176Z" fill="#333333"/>
<path d="M169.01 238.242H164.05C164.05 238.242 161.953 238.678 161.657 243.703C161.478 247.135 161.478 250.575 161.657 254.007V262.245L164.05 261.447L172.907 263.426L173.778 251.353C174.695 251.202 175.568 250.854 176.337 250.334C177.107 249.815 177.755 249.134 178.237 248.341C178.88 247.372 179.285 246.265 179.419 245.109C179.552 243.954 179.41 242.784 179.004 241.694L172.833 244.941L172.506 243.197C172.167 241.31 171.109 239.627 169.555 238.503L169.01 238.242Z" fill="#FFD02B"/>
<path d="M178.137 240.277L179.61 235.583L173.704 234.698L171.756 241.136L172.819 245.002L176.363 243.232L178.137 240.277Z" fill="#FCFDFF"/>
<path d="M179.314 242.966C179.218 241.976 178.803 241.043 178.133 240.308L177.841 240.604H175.979L175.683 241.755L176.363 242.727C176.77 243.067 177.272 243.273 177.8 243.316C178.329 243.359 178.858 243.237 179.314 242.966V242.966Z" fill="url(#paint13_linear)"/>
<path opacity="0.61" d="M173.704 251.292C173.704 251.292 168.979 249.522 168.979 246.567L169.363 262.572L172.819 263.339L173.704 251.292Z" fill="url(#paint14_linear)"/>
<path d="M172.819 261.212L173.704 275.918L172.554 283.593H169.01L168.422 270.927L166.351 265.609L167.829 283.593L163.697 283.89L161.631 260.03L163.989 259.146L172.819 261.212Z" fill="#333333"/>
<path d="M169.188 283.593V285.664L175.652 285.367C175.652 285.367 175.36 283.301 174.179 283.301C173.541 283.32 172.909 283.17 172.348 282.865L169.188 283.593Z" fill="#FCFCFC"/>
<path d="M273.626 111.606H258.537C256.477 111.604 254.503 110.786 253.047 109.329C251.592 107.873 250.774 105.898 250.774 103.839V100.53C250.774 98.4715 251.592 96.497 253.048 95.0412C254.503 93.5854 256.478 92.7676 258.537 92.7676H273.626C274.646 92.767 275.655 92.9672 276.597 93.3568C277.539 93.7464 278.395 94.3177 279.117 95.0382C279.838 95.7586 280.41 96.614 280.801 97.5556C281.191 98.4972 281.393 99.5066 281.393 100.526V100.526V103.834C281.393 104.854 281.193 105.864 280.802 106.807C280.412 107.749 279.84 108.605 279.118 109.326C278.397 110.048 277.541 110.62 276.599 111.01C275.656 111.4 274.646 111.601 273.626 111.601V111.606Z" fill="white"/>
<path d="M252.513 115.698C252.513 115.698 258.685 115.995 260.162 111.566H264.739C264.739 111.566 261.67 117.176 252.513 115.698Z" fill="white"/>
<path opacity="0.15" d="M256 95.6792H276.73C276.871 95.6792 277.006 95.7352 277.106 95.8349C277.205 95.9347 277.261 96.0699 277.261 96.211V96.6468C277.261 96.7878 277.205 96.9231 277.106 97.0228C277.006 97.1225 276.871 97.1786 276.73 97.1786H256C255.93 97.1786 255.861 97.1648 255.797 97.1381C255.732 97.1114 255.673 97.0722 255.624 97.0228C255.575 96.9734 255.535 96.9148 255.509 96.8503C255.482 96.7858 255.468 96.7166 255.468 96.6468V96.211C255.468 96.1411 255.482 96.072 255.509 96.0075C255.535 95.9429 255.575 95.8843 255.624 95.8349C255.673 95.7856 255.732 95.7464 255.797 95.7197C255.861 95.693 255.93 95.6792 256 95.6792V95.6792Z" fill="#020202"/>
<path opacity="0.15" d="M256 99.2227H276.73C276.871 99.2227 277.006 99.2787 277.106 99.3784C277.205 99.4781 277.261 99.6134 277.261 99.7544V100.19C277.261 100.331 277.205 100.467 277.106 100.566C277.006 100.666 276.871 100.722 276.73 100.722H256C255.93 100.722 255.861 100.708 255.797 100.682C255.732 100.655 255.673 100.616 255.624 100.566C255.575 100.517 255.535 100.458 255.509 100.394C255.482 100.329 255.468 100.26 255.468 100.19V100.19V99.7544C255.468 99.6846 255.482 99.6154 255.509 99.5509C255.535 99.4864 255.575 99.4278 255.624 99.3784C255.673 99.329 255.732 99.2899 255.797 99.2631C255.861 99.2364 255.93 99.2227 256 99.2227Z" fill="#020202"/>
<path opacity="0.15" d="M256 102.736H276.73C276.871 102.736 277.006 102.792 277.106 102.892C277.205 102.991 277.261 103.127 277.261 103.268V103.703C277.261 103.773 277.248 103.842 277.221 103.907C277.194 103.971 277.155 104.03 277.106 104.079C277.056 104.129 276.998 104.168 276.933 104.195C276.869 104.221 276.8 104.235 276.73 104.235H256C255.93 104.235 255.861 104.221 255.797 104.195C255.732 104.168 255.673 104.129 255.624 104.079C255.575 104.03 255.535 103.971 255.509 103.907C255.482 103.842 255.468 103.773 255.468 103.703V103.703V103.268C255.468 103.198 255.482 103.129 255.509 103.064C255.535 103 255.575 102.941 255.624 102.892C255.673 102.842 255.732 102.803 255.797 102.776C255.861 102.75 255.93 102.736 256 102.736V102.736Z" fill="#020202"/>
<path opacity="0.15" d="M256 106.279H267.302C267.442 106.28 267.576 106.337 267.675 106.437C267.774 106.536 267.829 106.671 267.829 106.811V107.247C267.829 107.387 267.774 107.522 267.675 107.621C267.576 107.721 267.442 107.778 267.302 107.779H256C255.93 107.779 255.861 107.765 255.797 107.738C255.732 107.711 255.673 107.672 255.624 107.623C255.575 107.574 255.535 107.515 255.509 107.45C255.482 107.386 255.468 107.317 255.468 107.247V106.811C255.468 106.741 255.482 106.672 255.509 106.608C255.535 106.543 255.575 106.484 255.624 106.435C255.673 106.386 255.732 106.346 255.797 106.32C255.861 106.293 255.93 106.279 256 106.279Z" fill="#020202"/>
<path d="M136.059 229.381H151.148C153.178 229.375 155.125 228.574 156.571 227.15C158.018 225.726 158.848 223.791 158.885 221.762V218.31C158.885 216.251 158.067 214.276 156.611 212.821C155.155 211.365 153.181 210.547 151.122 210.547H136.059C133.999 210.547 132.023 211.365 130.566 212.822C129.11 214.278 128.292 216.254 128.292 218.314V221.766C128.331 223.799 129.167 225.736 130.62 227.16C132.072 228.584 134.025 229.381 136.059 229.381V229.381Z" fill="white"/>
<path d="M157.111 233.574C157.111 233.574 150.939 233.87 149.461 229.442H144.937C144.937 229.442 147.875 234.986 157.111 233.574Z" fill="white"/>
<path opacity="0.15" d="M153.628 214.936H132.898C132.757 214.936 132.622 214.88 132.522 214.78C132.423 214.681 132.367 214.545 132.367 214.404V213.99C132.367 213.849 132.423 213.714 132.522 213.614C132.622 213.515 132.757 213.458 132.898 213.458H153.628C153.769 213.458 153.904 213.515 154.004 213.614C154.104 213.714 154.16 213.849 154.16 213.99V213.99V214.404C154.16 214.545 154.104 214.681 154.004 214.78C153.904 214.88 153.769 214.936 153.628 214.936V214.936Z" fill="#020202"/>
<path opacity="0.15" d="M153.628 218.515H132.898C132.757 218.515 132.622 218.459 132.522 218.359C132.423 218.259 132.367 218.124 132.367 217.983V217.983V217.551C132.368 217.411 132.424 217.277 132.524 217.178C132.624 217.079 132.758 217.024 132.898 217.024H153.628C153.768 217.024 153.903 217.079 154.003 217.178C154.102 217.277 154.159 217.411 154.16 217.551V217.987C154.16 218.128 154.104 218.263 154.004 218.363C153.904 218.463 153.769 218.519 153.628 218.519V218.515Z" fill="#020202"/>
<path opacity="0.15" d="M153.628 222.027H132.898C132.758 222.027 132.624 221.972 132.524 221.873C132.424 221.774 132.368 221.64 132.367 221.5V221.086C132.367 220.945 132.423 220.81 132.522 220.71C132.622 220.61 132.757 220.554 132.898 220.554H153.628C153.769 220.554 153.904 220.61 154.004 220.71C154.104 220.81 154.16 220.945 154.16 221.086V221.086V221.5C154.159 221.64 154.102 221.774 154.003 221.873C153.903 221.972 153.768 222.027 153.628 222.027V222.027Z" fill="#020202"/>
<path opacity="0.15" d="M153.628 225.571H142.322C142.181 225.571 142.046 225.515 141.946 225.416C141.846 225.316 141.79 225.181 141.79 225.04V225.04V224.63C141.789 224.559 141.802 224.489 141.828 224.424C141.854 224.358 141.893 224.298 141.943 224.248C141.992 224.198 142.051 224.158 142.116 224.131C142.181 224.103 142.251 224.089 142.322 224.089H153.633C153.774 224.089 153.909 224.145 154.009 224.245C154.108 224.345 154.164 224.48 154.164 224.621V225.031C154.164 225.101 154.151 225.17 154.124 225.234C154.097 225.299 154.058 225.357 154.009 225.407C153.959 225.456 153.901 225.495 153.836 225.522C153.772 225.549 153.702 225.563 153.633 225.563L153.628 225.571Z" fill="#020202"/>
<path d="M176.363 243.232C176.363 243.232 175.374 247.364 174.184 246.776C173.849 246.591 173.556 246.339 173.323 246.035C173.091 245.731 172.923 245.382 172.833 245.011L176.363 243.232Z" fill="url(#paint15_linear)"/>
</g>
<defs>
<filter id="filter0_dddi" x="0.998535" y="0" width="437.037" height="331.001" filterUnits="userSpaceOnUse" color-interpolation-filters="sRGB">
<feFlood flood-opacity="0" result="BackgroundImageFix"/>
<feColorMatrix in="SourceAlpha" type="matrix" values="0 0 0 0 0 0 0 0 0 0 0 0 0 0 0 0 0 0 127 0"/>
<feOffset dx="-9" dy="-12"/>
<feGaussianBlur stdDeviation="18"/>
<feColorMatrix type="matrix" values="0 0 0 0 1 0 0 0 0 1 0 0 0 0 1 0 0 0 1 0"/>
<feBlend mode="normal" in2="BackgroundImageFix" result="effect1_dropShadow"/>
<feColorMatrix in="SourceAlpha" type="matrix" values="0 0 0 0 0 0 0 0 0 0 0 0 0 0 0 0 0 0 127 0"/>
<feOffset dx="9" dy="12"/>
<feGaussianBlur stdDeviation="12"/>
<feColorMatrix type="matrix" values="0 0 0 0 0.716667 0 0 0 0 0.716667 0 0 0 0 0.716667 0 0 0 0.33 0"/>
<feBlend mode="normal" in2="effect1_dropShadow" result="effect2_dropShadow"/>
<feColorMatrix in="SourceAlpha" type="matrix" values="0 0 0 0 0 0 0 0 0 0 0 0 0 0 0 0 0 0 127 0"/>
<feOffset dx="-6" dy="-18"/>
<feGaussianBlur stdDeviation="2"/>
<feColorMatrix type="matrix" values="0 0 0 0 1 0 0 0 0 1 0 0 0 0 1 0 0 0 0.38 0"/>
<feBlend mode="normal" in2="effect2_dropShadow" result="effect3_dropShadow"/>
<feBlend mode="normal" in="SourceGraphic" in2="effect3_dropShadow" result="shape"/>
<feColorMatrix in="SourceAlpha" type="matrix" values="0 0 0 0 0 0 0 0 0 0 0 0 0 0 0 0 0 0 127 0" result="hardAlpha"/>
<feOffset dx="4" dy="6"/>
<feGaussianBlur stdDeviation="3"/>
<feComposite in2="hardAlpha" operator="arithmetic" k2="-1" k3="1"/>
<feColorMatrix type="matrix" values="0 0 0 0 1 0 0 0 0 1 0 0 0 0 1 0 0 0 0.08 0"/>
<feBlend mode="normal" in2="shape" result="effect4_innerShadow"/>
</filter>
<filter id="filter1_d" x="153.11" y="266.743" width="116.97" height="14.2111" filterUnits="userSpaceOnUse" color-interpolation-filters="sRGB">
<feFlood flood-opacity="0" result="BackgroundImageFix"/>
<feColorMatrix in="SourceAlpha" type="matrix" values="0 0 0 0 0 0 0 0 0 0 0 0 0 0 0 0 0 0 127 0"/>
<feOffset dy="4"/>
<feGaussianBlur stdDeviation="2"/>
<feColorMatrix type="matrix" values="0 0 0 0 0 0 0 0 0 0 0 0 0 0 0 0 0 0 0.25 0"/>
<feBlend mode="normal" in2="BackgroundImageFix" result="effect1_dropShadow"/>
<feBlend mode="normal" in="SourceGraphic" in2="effect1_dropShadow" result="shape"/>
</filter>
<filter id="filter2_d" x="70.144" y="48" width="281.034" height="194.986" filterUnits="userSpaceOnUse" color-interpolation-filters="sRGB">
<feFlood flood-opacity="0" result="BackgroundImageFix"/>
<feColorMatrix in="SourceAlpha" type="matrix" values="0 0 0 0 0 0 0 0 0 0 0 0 0 0 0 0 0 0 127 0"/>
<feOffset dy="4"/>
<feGaussianBlur stdDeviation="2"/>
<feColorMatrix type="matrix" values="0 0 0 0 0 0 0 0 0 0 0 0 0 0 0 0 0 0 0.25 0"/>
<feBlend mode="normal" in2="BackgroundImageFix" result="effect1_dropShadow"/>
<feBlend mode="normal" in="SourceGraphic" in2="effect1_dropShadow" result="shape"/>
</filter>
<linearGradient id="paint0_linear" x1="212.544" y1="226.87" x2="212.544" y2="293.767" gradientUnits="userSpaceOnUse">
<stop stop-opacity="0.4"/>
<stop offset="1" stop-color="white" stop-opacity="0"/>
</linearGradient>
<linearGradient id="paint1_linear" x1="120.363" y1="30.8226" x2="422.5" y2="243.5" gradientUnits="userSpaceOnUse">
<stop stop-color="#B6B6B6"/>
<stop offset="1" stop-color="white" stop-opacity="0"/>
</linearGradient>
<linearGradient id="paint2_linear" x1="20255.6" y1="11724.7" x2="21467.6" y2="-48571.7" gradientUnits="userSpaceOnUse">
<stop offset="0.02" stop-color="#F5F5F5"/>
<stop offset="1" stop-color="white"/>
</linearGradient>
<linearGradient id="paint3_linear" x1="44634.2" y1="3609.71" x2="44755.6" y2="-16534.2" gradientUnits="userSpaceOnUse">
<stop offset="0.02" stop-color="white"/>
<stop offset="1" stop-color="white"/>
</linearGradient>
<linearGradient id="paint4_linear" x1="44597.1" y1="5792.15" x2="44718.6" y2="-14351.8" gradientUnits="userSpaceOnUse">
<stop offset="0.02" stop-color="white"/>
<stop offset="1" stop-color="white"/>
</linearGradient>
<linearGradient id="paint5_linear" x1="45169.6" y1="507.95" x2="45215.5" y2="-11877.1" gradientUnits="userSpaceOnUse">
<stop offset="0.02" stop-color="white"/>
<stop offset="1" stop-color="white"/>
</linearGradient>
<linearGradient id="paint6_linear" x1="15674.8" y1="-13625.9" x2="-30322" y2="19706.2" gradientUnits="userSpaceOnUse">
<stop offset="0.58"/>
<stop offset="0.78" stop-opacity="0.16"/>
</linearGradient>
<linearGradient id="paint7_linear" x1="25991.8" y1="446.47" x2="-20008" y2="33787.7" gradientUnits="userSpaceOnUse">
<stop offset="0.58"/>
<stop offset="0.78" stop-opacity="0.16"/>
</linearGradient>
<linearGradient id="paint8_linear" x1="241.773" y1="115.428" x2="249.492" y2="115.428" gradientUnits="userSpaceOnUse">
<stop stop-color="#ECC4D7"/>
<stop offset="0.42" stop-color="#EFD4D1"/>
<stop offset="1" stop-color="#F2EAC9"/>
</linearGradient>
<linearGradient id="paint9_linear" x1="1818.46" y1="1252" x2="1848.92" y2="1252" gradientUnits="userSpaceOnUse">
<stop stop-color="#ECC4D7"/>
<stop offset="0.42" stop-color="#EFD4D1"/>
<stop offset="1" stop-color="#F2EAC9"/>
</linearGradient>
<linearGradient id="paint10_linear" x1="236.73" y1="127.584" x2="244.014" y2="130.365" gradientUnits="userSpaceOnUse">
<stop stop-opacity="0"/>
<stop offset="0.91" stop-opacity="0.8"/>
<stop offset="1"/>
</linearGradient>
<linearGradient id="paint11_linear" x1="229.434" y1="137.688" x2="251.907" y2="136.437" gradientUnits="userSpaceOnUse">
<stop offset="0.36" stop-color="#00272E"/>
<stop offset="1" stop-color="#69B9EB" stop-opacity="0"/>
</linearGradient>
<linearGradient id="paint12_linear" x1="2495.93" y1="1802.57" x2="2674.84" y2="1802.57" gradientUnits="userSpaceOnUse">
<stop stop-color="#ECC4D7"/>
<stop offset="0.42" stop-color="#EFD4D1"/>
<stop offset="1" stop-color="#F2EAC9"/>
</linearGradient>
<linearGradient id="paint13_linear" x1="1256.92" y1="557.821" x2="1287.16" y2="557.821" gradientUnits="userSpaceOnUse">
<stop stop-color="#ECC4D7"/>
<stop offset="0.42" stop-color="#EFD4D1"/>
<stop offset="1" stop-color="#F2EAC9"/>
</linearGradient>
<linearGradient id="paint14_linear" x1="1627.52" y1="1460.7" x2="1459.87" y2="1466.6" gradientUnits="userSpaceOnUse">
<stop offset="0.36" stop-color="#00272E"/>
<stop offset="1" stop-color="#69B9EB" stop-opacity="0"/>
</linearGradient>
<linearGradient id="paint15_linear" x1="1217.12" y1="1857.42" x2="1200.13" y2="1901.7" gradientUnits="userSpaceOnUse">
<stop stop-opacity="0"/>
<stop offset="0.91" stop-opacity="0.8"/>
<stop offset="1"/>
</linearGradient>
</defs>
</svg>
