<svg width="391" height="371" viewBox="0 0 391 371" fill="none" xmlns="http://www.w3.org/2000/svg">
<g filter="url(#filter0_dddi)">
<path opacity="0.53" d="M303.191 284.146C293.911 287.706 284.105 289.883 275.008 293.878C260.158 300.436 247.844 311.58 233.794 319.704C227.734 323.218 221.329 326.103 214.68 328.312C208.113 330.495 201.349 332.038 194.485 332.919C185.37 334.096 176.158 334.32 166.997 333.586C158.173 332.907 149.413 331.572 140.788 329.59C127.798 326.596 115.047 322.648 102.637 317.78C64.128 302.95 38.9868 226.091 55.7687 189.754C63.1586 173.73 77.6153 162.236 88.0329 147.996C107.351 121.566 113.16 85.2711 138.512 64.536C154.936 51.1106 177.295 46.6729 198.432 48.33C219.57 49.9871 239.836 57.2475 259.547 65.0837C269.058 68.8544 278.696 72.8918 286.388 79.6607C299.946 91.5555 305.432 109.854 314.002 125.73C328.016 151.71 351.717 173.527 356.283 202.631C361.685 237.276 335.919 271.556 303.191 284.146Z" fill="#FCFCFC"/>
<path d="M241.838 242.894H139.313V282.475H241.838V242.894Z" fill="#E5E5E5"/>
<g filter="url(#filter1_d)">
<path d="M241.838 242.894H139.313V282.475H241.838V242.894Z" fill="url(#paint0_linear)"/>
</g>
<g filter="url(#filter2_d)">
<path d="M241.838 240.436H139.313V280.017H241.838V240.436Z" fill="#E5E5E5"/>
</g>
<path d="M150.089 247.016H143.331V252.851H150.089V247.016Z" fill="url(#paint1_linear)"/>
<path d="M150.089 253.925H143.331V259.76H150.089V253.925Z" fill="url(#paint2_linear)"/>
<path d="M150.089 260.834H143.331V266.669H150.089V260.834Z" fill="url(#paint3_linear)"/>
<path d="M150.089 267.75H143.331V273.585H150.089V267.75Z" fill="url(#paint4_linear)"/>
<path d="M158.996 247.016H152.238V252.851H158.996V247.016Z" fill="url(#paint5_linear)"/>
<path d="M158.996 253.925H152.238V259.76H158.996V253.925Z" fill="url(#paint6_linear)"/>
<path d="M158.996 260.834H152.238V266.669H158.996V260.834Z" fill="url(#paint7_linear)"/>
<path d="M158.996 267.75H152.238V273.585H158.996V267.75Z" fill="url(#paint8_linear)"/>
<path d="M167.911 247.016H161.153V252.851H167.911V247.016Z" fill="url(#paint9_linear)"/>
<path d="M167.911 253.925H161.153V259.76H167.911V253.925Z" fill="url(#paint10_linear)"/>
<path d="M167.911 260.834H161.153V266.669H167.911V260.834Z" fill="url(#paint11_linear)"/>
<path d="M167.911 267.75H161.153V273.585H167.911V267.75Z" fill="url(#paint12_linear)"/>
<path d="M176.818 247.016H170.06V252.851H176.818V247.016Z" fill="url(#paint13_linear)"/>
<path d="M176.818 253.925H170.06V259.76H176.818V253.925Z" fill="url(#paint14_linear)"/>
<path d="M176.818 260.834H170.06V266.669H176.818V260.834Z" fill="url(#paint15_linear)"/>
<path d="M185.732 247.016H178.974V252.851H185.732V247.016Z" fill="url(#paint16_linear)"/>
<path d="M185.732 253.925H178.974V259.76H185.732V253.925Z" fill="url(#paint17_linear)"/>
<path d="M185.732 260.834H178.974V266.669H185.732V260.834Z" fill="url(#paint18_linear)"/>
<path d="M194.639 247.016H187.881V252.851H194.639V247.016Z" fill="url(#paint19_linear)"/>
<path d="M194.639 253.925H187.881V259.76H194.639V253.925Z" fill="url(#paint20_linear)"/>
<path d="M194.639 260.834H187.881V266.669H194.639V260.834Z" fill="url(#paint21_linear)"/>
<path d="M203.554 247.016H196.796V252.851H203.554V247.016Z" fill="url(#paint22_linear)"/>
<path d="M203.554 253.925H196.796V259.76H203.554V253.925Z" fill="url(#paint23_linear)"/>
<path d="M203.554 260.834H196.796V266.669H203.554V260.834Z" fill="url(#paint24_linear)"/>
<path d="M212.461 247.016H205.703V252.851H212.461V247.016Z" fill="url(#paint25_linear)"/>
<path d="M212.461 253.925H205.703V259.76H212.461V253.925Z" fill="url(#paint26_linear)"/>
<path d="M212.461 260.834H205.703V266.669H212.461V260.834Z" fill="url(#paint27_linear)"/>
<path d="M221.368 247.016H214.61V252.851H221.368V247.016Z" fill="url(#paint28_linear)"/>
<path d="M221.368 253.925H214.61V259.76H221.368V253.925Z" fill="url(#paint29_linear)"/>
<path d="M221.368 260.834H214.61V266.669H221.368V260.834Z" fill="url(#paint30_linear)"/>
<path d="M221.368 267.75H214.61V273.585H221.368V267.75Z" fill="url(#paint31_linear)"/>
<path d="M230.282 247.016H223.524V252.851H230.282V247.016Z" fill="url(#paint32_linear)"/>
<path d="M230.282 253.925H223.524V259.76H230.282V253.925Z" fill="url(#paint33_linear)"/>
<path d="M230.282 260.834H223.524V266.669H230.282V260.834Z" fill="url(#paint34_linear)"/>
<path d="M230.282 267.75H223.524V273.585H230.282V267.75Z" fill="url(#paint35_linear)"/>
<path d="M239.189 247.016H232.432V252.851H239.189V247.016Z" fill="url(#paint36_linear)"/>
<path d="M239.189 253.925H232.432V259.76H239.189V253.925Z" fill="url(#paint37_linear)"/>
<path d="M239.189 260.834H232.432V266.669H239.189V260.834Z" fill="url(#paint38_linear)"/>
<path d="M239.189 267.75H232.432V273.585H239.189V267.75Z" fill="url(#paint39_linear)"/>
<path d="M212.657 268.129H159.818V273.852H212.657V268.129Z" fill="url(#paint40_linear)"/>
<path d="M153.994 267.743C154.177 266.964 154.697 265.988 155.484 266.241C155.898 266.374 156.102 266.831 156.256 267.238C156.685 268.354 158.364 269.885 158.771 271.008C158.848 268.2 158.954 261.094 160.64 257.028C160.728 256.817 160.884 256.64 161.083 256.526C161.281 256.411 161.512 256.365 161.74 256.395C161.967 256.425 162.179 256.528 162.342 256.689C162.505 256.851 162.61 257.061 162.642 257.288C163.295 261.908 163.724 269.386 163.99 267.856C164.335 265.925 165.395 250.428 168.297 252.197C169.21 254.95 168.563 265.602 168.219 268.481C168.992 264.668 170.446 249.585 173.368 251.193C175.216 256.01 171.387 268.333 173.144 273.185C173.467 274.077 174.162 275.032 175.117 274.962C176.073 274.891 176.572 273.88 176.628 272.975C176.684 272.069 176.431 271.163 176.501 270.257C176.502 270.011 176.567 269.769 176.69 269.556C176.813 269.343 176.99 269.165 177.204 269.042C178.047 268.677 178.763 269.745 179.002 270.65C180.141 274.897 180.068 279.377 178.791 283.584C177.457 287.973 174.865 291.856 172.315 295.669C171.984 296.233 171.55 296.731 171.036 297.136C170.765 297.316 170.469 297.456 170.158 297.55C167.965 298.277 165.66 298.605 163.351 298.519C153.397 297.972 154.303 291.561 153.517 286.077C152.501 279.991 152.664 273.768 153.994 267.743V267.743Z" fill="url(#paint41_linear)"/>
<path d="M154.128 299.046C154.533 298.123 155.256 297.375 156.165 296.939C156.701 296.769 157.261 296.693 157.823 296.715C162.451 296.624 167.077 297.01 171.626 297.866C172.066 297.9 172.478 298.092 172.785 298.407C172.944 298.655 173.033 298.941 173.045 299.235C173.327 301.502 173.087 303.803 172.343 305.962C172.268 306.289 172.078 306.578 171.809 306.777C171.515 306.904 171.187 306.933 170.875 306.861C166.187 306.33 161.473 306.072 156.755 306.089C152.006 306.068 152.07 302.81 154.128 299.046Z" fill="white"/>
<path d="M171.865 333.572C162.68 332.864 153.56 331.472 144.581 329.408C144.307 328.51 144.247 327.56 144.406 326.634C145.53 319.668 147.91 312.963 151.43 306.847C151.73 306.199 152.22 305.658 152.835 305.295C153.318 305.089 153.843 305 154.367 305.036C160.143 304.901 165.918 305.346 171.605 306.363C172.026 306.383 172.438 306.485 172.819 306.665C173.2 306.844 173.542 307.097 173.825 307.409C174.129 307.937 174.273 308.542 174.239 309.15C174.558 317.361 173.759 325.576 171.865 333.572V333.572Z" fill="#FFD02B"/>
<path d="M192.49 296.371C192.11 295.669 191.822 294.679 192.49 294.264C192.819 294.088 193.204 294.045 193.564 294.145C194.873 294.358 196.117 294.865 197.203 295.627C198.882 296.799 200.715 298.674 202.598 297.831C204.228 297.094 204.368 294.875 204.263 293.085C203.907 287.093 203.546 281.099 203.181 275.102C203.181 274.505 203.181 273.775 203.701 273.487C204.495 273.059 205.267 274.077 205.598 274.892L209.897 285.775C210.718 283.156 209.763 274.161 210.164 270.166C210.188 269.908 210.299 269.666 210.477 269.477C210.655 269.289 210.89 269.165 211.147 269.126C211.403 269.086 211.665 269.133 211.891 269.259C212.118 269.386 212.296 269.583 212.397 269.822C213.697 272.947 215.109 281.057 215.355 282.981C216.057 288.71 216.415 283.683 216.626 282.721C217.132 280.333 216.472 272.188 217.912 271.563C220.019 271.718 220.722 274.456 220.771 276.577C220.82 278.697 219.71 286.913 221.775 287.404C222.689 285.115 222.618 280.951 223.848 280.797C225.772 281.681 224.072 290.438 223.461 292.467C221.635 298.548 222.808 297.747 220.989 303.821C220.635 305.347 219.965 306.783 219.022 308.034C217.824 309.249 216.298 310.091 214.631 310.456C204.488 313.279 196.88 304.319 192.49 296.371Z" fill="url(#paint42_linear)"/>
<path d="M204.706 318.707C204.704 318.972 204.759 319.234 204.867 319.476C204.975 319.718 205.133 319.935 205.331 320.111C205.573 320.242 205.842 320.319 206.117 320.336C210.255 320.832 214.449 320.52 218.467 319.416C218.896 319.338 219.296 319.146 219.626 318.861C219.935 318.5 220.122 318.05 220.16 317.576C220.553 314.859 219.345 312.198 218.165 309.719C218.098 309.54 217.981 309.384 217.828 309.27C217.633 309.191 217.418 309.179 217.216 309.234C215.25 309.557 213.271 309.792 211.281 309.937C209.834 310.035 207.459 309.571 206.117 310.126C203.49 311.215 204.446 316.326 204.706 318.707Z" fill="white"/>
<path d="M223.18 327.561C216.326 329.835 209.269 331.443 202.106 332.364C202.198 329.555 202.282 326.648 202.521 323.833C202.718 321.431 205.099 316.699 208.021 316.699C210.95 315.435 214.245 315.344 217.427 315.259C218.544 315.259 219.787 315.259 220.637 315.997C221.487 316.734 221.642 317.787 221.818 318.805C222.323 321.691 222.829 324.619 223.18 327.561Z" fill="#FFD02B"/>
<path opacity="0.52" d="M268.588 220.607H98.9846L53.0996 124.986H325.944L268.588 220.607Z" fill="url(#paint43_linear)"/>
<path opacity="0.27" d="M137.072 210.868H70.4009C66.5233 210.868 62.3717 208.705 61.1213 206.03L49.6571 181.496C48.4137 178.821 50.5422 176.658 54.4128 176.658H121.091C124.961 176.658 129.113 178.821 130.363 181.496L141.828 206.009C143.078 208.684 140.949 210.868 137.072 210.868Z" fill="white"/>
<path d="M132.773 216.991H66.0948C62.2242 216.991 58.0656 214.828 56.8222 212.153L45.358 187.64C44.1287 184.965 46.2361 182.781 50.1137 182.781H116.785C120.662 182.781 124.814 184.951 126.064 187.626L137.557 212.153C138.772 214.828 136.643 216.991 132.773 216.991Z" fill="#FFD02B"/>
<path opacity="0.27" d="M256.133 189.276H322.811C326.688 189.276 330.84 187.106 332.09 184.438L343.548 159.919C344.798 157.25 342.67 155.081 338.799 155.081H272.121C268.25 155.081 264.092 157.25 262.841 159.919L251.356 184.438C250.134 187.106 252.262 189.276 256.133 189.276Z" fill="white"/>
<path d="M256.133 197.878H322.811C326.688 197.878 330.84 195.708 332.09 193.033L343.548 168.52C344.798 165.852 342.67 163.682 338.799 163.682H272.121C268.25 163.682 264.092 165.852 262.841 168.52L251.356 193.033C250.134 195.708 252.262 197.878 256.133 197.878Z" fill="#202C40"/>
<path d="M117.27 143.179H167.299L167.861 146.767H118.92L117.27 143.179Z" fill="url(#paint44_linear)"/>
<path d="M120.403 149.983H149.675L150.532 153.086H121.829L120.403 149.983Z" fill="url(#paint45_linear)"/>
<path d="M161.483 149.983H253.604L252.403 153.101H162.108L161.483 149.983Z" fill="url(#paint46_linear)"/>
<path d="M137.908 156.26H176.558L176.881 159.273H139.004L137.908 156.26Z" fill="url(#paint47_linear)"/>
<path d="M151.943 162.039H196.234L196.164 164.862H152.737L151.943 162.039Z" fill="url(#paint48_linear)"/>
<path d="M199.121 162.039H236.239L235.312 165.164H198.987L199.121 162.039Z" fill="url(#paint49_linear)"/>
<path d="M153.391 167.396H186.329L186.449 169.861H154.086L153.391 167.396Z" fill="url(#paint50_linear)"/>
<path d="M189.49 167.396H257.461L256.203 170.114H189.56L189.49 167.396Z" fill="url(#paint51_linear)"/>
<path d="M131.487 174.046H172.118L172.49 176.42H132.583L131.487 174.046Z" fill="url(#paint52_linear)"/>
<path d="M133.574 178.568H157.528L158.104 180.653H134.529L133.574 178.568Z" fill="url(#paint53_linear)"/>
<path d="M167.194 178.568H242.589L241.782 180.667H167.615L167.194 178.568Z" fill="url(#paint54_linear)"/>
<path d="M147.567 182.795H179.431L179.656 184.852H148.312L147.567 182.795Z" fill="url(#paint55_linear)"/>
<path d="M158.912 186.762H195.672L195.629 188.707H159.467L158.912 186.762Z" fill="url(#paint56_linear)"/>
<path d="M198.067 186.762H228.878L228.238 188.918H197.976L198.067 186.762Z" fill="url(#paint57_linear)"/>
<path d="M159.909 190.47H187.418L187.502 192.197H160.394L159.909 190.47Z" fill="url(#paint58_linear)"/>
<path d="M190.059 190.47H246.825L245.947 192.373H190.108L190.059 190.47Z" fill="url(#paint59_linear)"/>
<path d="M141.209 195.146H175.412L175.672 196.839H141.989L141.209 195.146Z" fill="url(#paint60_linear)"/>
<path d="M142.692 198.369H162.972L163.387 199.865H143.387L142.692 198.369Z" fill="url(#paint61_linear)"/>
<path d="M171.149 198.369H234.961L234.378 199.872H171.451L171.149 198.369Z" fill="url(#paint62_linear)"/>
<path d="M154.346 201.41H181.447L181.608 202.905H154.887L154.346 201.41Z" fill="url(#paint63_linear)"/>
<path d="M163.857 204.289H195.278L195.243 205.714H164.257L163.857 204.289Z" fill="url(#paint64_linear)"/>
<path d="M197.322 204.289H223.658L223.187 205.868H197.259L197.322 204.289Z" fill="url(#paint65_linear)"/>
<path d="M164.581 207.02H188.197L188.261 208.291H164.939L164.581 207.02Z" fill="url(#paint66_linear)"/>
<path d="M190.466 207.02H239.203L238.557 208.424H190.501L190.466 207.02Z" fill="url(#paint67_linear)"/>
<g opacity="0.52">
<path opacity="0.52" d="M51.4556 189.396H77.1377L77.4257 190.758H52.3055L51.4556 189.396Z" fill="#E5E5E5"/>
<path opacity="0.52" d="M53.064 191.979H68.0897L68.5323 193.159H53.8016L53.064 191.979Z" fill="#333333"/>
<path opacity="0.52" d="M74.1523 191.979H121.449L120.831 193.166H74.4755L74.1523 191.979Z" fill="#333333"/>
<path opacity="0.52" d="M62.0488 194.367H81.8935L82.0621 195.511H62.6108L62.0488 194.367Z" fill="#333333"/>
<path opacity="0.52" d="M69.2559 196.564H91.9947L91.9595 197.632H69.6633L69.2559 196.564Z" fill="#333333"/>
<path opacity="0.52" d="M93.477 196.564H112.535L112.057 197.751H93.4067L93.477 196.564Z" fill="#333333"/>
<path opacity="0.52" d="M70.0005 198.601H86.9088L86.9721 199.535H70.3587L70.0005 198.601Z" fill="#333333"/>
<path opacity="0.52" d="M88.5317 198.601H123.423L122.784 199.633H88.5669L88.5317 198.601Z" fill="#333333"/>
<path opacity="0.52" d="M58.7539 201.129H79.6101L79.8068 202.035H59.3159L58.7539 201.129Z" fill="#333333"/>
<path opacity="0.52" d="M59.8218 202.849H72.1219L72.417 203.643H60.3205L59.8218 202.849Z" fill="#333333"/>
<path opacity="0.52" d="M77.0884 202.849H115.794L115.38 203.643H77.2991L77.0884 202.849Z" fill="#333333"/>
<path opacity="0.52" d="M67.0083 204.45H83.3687L83.4811 205.237H67.3947L67.0083 204.45Z" fill="#333333"/>
<path opacity="0.52" d="M72.8389 205.959H91.7071L91.686 206.697H73.1199L72.8389 205.959Z" fill="#333333"/>
<path opacity="0.52" d="M92.9364 205.959H108.756L108.426 206.781H92.8872L92.9364 205.959Z" fill="#333333"/>
<path opacity="0.52" d="M73.3442 207.371H87.4708L87.513 208.024H73.5971L73.3442 207.371Z" fill="#333333"/>
<path opacity="0.52" d="M88.8267 207.371H117.972L117.515 208.094H88.8477L88.8267 207.371Z" fill="#333333"/>
<path opacity="0.52" d="M63.7485 209.147H81.3031L81.4436 209.793H64.1419L63.7485 209.147Z" fill="#333333"/>
<path opacity="0.52" d="M64.5073 210.376H74.9179L75.1286 210.945H64.8656L64.5073 210.376Z" fill="#333333"/>
<path opacity="0.52" d="M79.1187 210.376H111.875L111.58 210.945H79.2732L79.1187 210.376Z" fill="#333333"/>
<path opacity="0.52" d="M70.4922 211.528H84.401L84.4853 212.097H70.7661L70.4922 211.528Z" fill="#333333"/>
<path opacity="0.52" d="M75.3745 212.623H91.5031L91.482 213.164H75.5782L75.3745 212.623Z" fill="#333333"/>
<path opacity="0.52" d="M92.5566 212.623H106.072L105.833 213.227H92.5215L92.5566 212.623Z" fill="#333333"/>
<path opacity="0.52" d="M75.7466 213.663H87.8711L87.8992 214.147H75.9292L75.7466 213.663Z" fill="#E5E5E5"/>
<path opacity="0.52" d="M89.0376 213.663H114.052L113.722 214.196H89.0516L89.0376 213.663Z" fill="#E5E5E5"/>
</g>
<g opacity="0.52">
<path opacity="0.52" d="M276.75 170.971H297.866L297.283 172.136H276.631L276.75 170.971Z" fill="white"/>
<path opacity="0.52" d="M276.518 173.189H288.875L288.524 174.201H276.413L276.518 173.189Z" fill="white"/>
<path opacity="0.52" d="M293.855 173.189H332.73L331.507 174.208H293.406L293.855 173.189Z" fill="white"/>
<path opacity="0.52" d="M282.468 175.233H298.78L298.225 176.216H282.244L282.468 175.233Z" fill="white"/>
<path opacity="0.52" d="M287.07 177.115H305.762L305.088 178.035H286.761L287.07 177.115Z" fill="white"/>
<path opacity="0.52" d="M306.978 177.115H322.643L321.54 178.133H306.212L306.978 177.115Z" fill="white"/>
<path opacity="0.52" d="M286.459 178.863H300.353L299.84 179.663H286.185L286.459 178.863Z" fill="white"/>
<path opacity="0.52" d="M301.688 178.863H330.376L329.224 179.748H301.098L301.688 178.863Z" fill="white"/>
<path opacity="0.52" d="M275.69 181.026H292.837L292.451 181.805H275.605L275.69 181.026Z" fill="white"/>
<path opacity="0.52" d="M275.535 182.5H285.644L285.412 183.182H275.465L275.535 182.5Z" fill="white"/>
<path opacity="0.52" d="M289.725 182.5H321.54L320.718 183.182H289.423L289.725 182.5Z" fill="white"/>
<path opacity="0.52" d="M280.473 183.876H293.919L293.546 184.551H280.319L280.473 183.876Z" fill="white"/>
<path opacity="0.52" d="M284.358 185.168H299.869L299.405 185.8H284.141L284.358 185.168Z" fill="white"/>
<path opacity="0.52" d="M300.88 185.168H313.883L313.117 185.871H300.346L300.88 185.168Z" fill="white"/>
<path opacity="0.52" d="M283.922 186.376H295.534L295.176 186.938H283.74L283.922 186.376Z" fill="white"/>
<path opacity="0.52" d="M296.651 186.376H320.605L319.805 187.001H296.237L296.651 186.376Z" fill="white"/>
<path opacity="0.52" d="M274.966 187.9H289.402L289.121 188.455H274.903L274.966 187.9Z" fill="white"/>
<path opacity="0.52" d="M274.854 188.953H283.41L283.241 189.438H274.805L274.854 188.953Z" fill="white"/>
<path opacity="0.52" d="M286.866 188.953H313.792L313.202 189.445H286.648L286.866 188.953Z" fill="white"/>
<path opacity="0.52" d="M279.076 189.943H290.512L290.238 190.428H278.963L279.076 189.943Z" fill="white"/>
<path opacity="0.52" d="M282.434 190.884H295.689L295.352 191.348H282.272L282.434 190.884Z" fill="white"/>
<path opacity="0.52" d="M296.553 190.884H307.666L307.111 191.397H296.167L296.553 190.884Z" fill="white"/>
<path opacity="0.52" d="M282.11 191.769H292.078L291.811 192.183H281.97L282.11 191.769Z" fill="white"/>
<path opacity="0.52" d="M293.034 191.769H313.602L313.012 192.232H292.731L293.034 191.769Z" fill="white"/>
</g>
</g>
<defs>
<filter id="filter0_dddi" x="0.0078125" y="-0.000976562" width="389.994" height="370.009" filterUnits="userSpaceOnUse" color-interpolation-filters="sRGB">
<feFlood flood-opacity="0" result="BackgroundImageFix"/>
<feColorMatrix in="SourceAlpha" type="matrix" values="0 0 0 0 0 0 0 0 0 0 0 0 0 0 0 0 0 0 127 0"/>
<feOffset dx="-9" dy="-12"/>
<feGaussianBlur stdDeviation="18"/>
<feColorMatrix type="matrix" values="0 0 0 0 1 0 0 0 0 1 0 0 0 0 1 0 0 0 1 0"/>
<feBlend mode="normal" in2="BackgroundImageFix" result="effect1_dropShadow"/>
<feColorMatrix in="SourceAlpha" type="matrix" values="0 0 0 0 0 0 0 0 0 0 0 0 0 0 0 0 0 0 127 0"/>
<feOffset dx="9" dy="12"/>
<feGaussianBlur stdDeviation="12"/>
<feColorMatrix type="matrix" values="0 0 0 0 0.716667 0 0 0 0 0.716667 0 0 0 0 0.716667 0 0 0 0.33 0"/>
<feBlend mode="normal" in2="effect1_dropShadow" result="effect2_dropShadow"/>
<feColorMatrix in="SourceAlpha" type="matrix" values="0 0 0 0 0 0 0 0 0 0 0 0 0 0 0 0 0 0 127 0"/>
<feOffset dx="-6" dy="-18"/>
<feGaussianBlur stdDeviation="2"/>
<feColorMatrix type="matrix" values="0 0 0 0 1 0 0 0 0 1 0 0 0 0 1 0 0 0 0.38 0"/>
<feBlend mode="normal" in2="effect2_dropShadow" result="effect3_dropShadow"/>
<feBlend mode="normal" in="SourceGraphic" in2="effect3_dropShadow" result="shape"/>
<feColorMatrix in="SourceAlpha" type="matrix" values="0 0 0 0 0 0 0 0 0 0 0 0 0 0 0 0 0 0 127 0" result="hardAlpha"/>
<feOffset dx="4" dy="6"/>
<feGaussianBlur stdDeviation="3"/>
<feComposite in2="hardAlpha" operator="arithmetic" k2="-1" k3="1"/>
<feColorMatrix type="matrix" values="0 0 0 0 1 0 0 0 0 1 0 0 0 0 1 0 0 0 0.08 0"/>
<feBlend mode="normal" in2="shape" result="effect4_innerShadow"/>
</filter>
<filter id="filter1_d" x="135.313" y="242.894" width="110.525" height="47.5812" filterUnits="userSpaceOnUse" color-interpolation-filters="sRGB">
<feFlood flood-opacity="0" result="BackgroundImageFix"/>
<feColorMatrix in="SourceAlpha" type="matrix" values="0 0 0 0 0 0 0 0 0 0 0 0 0 0 0 0 0 0 127 0"/>
<feOffset dy="4"/>
<feGaussianBlur stdDeviation="2"/>
<feColorMatrix type="matrix" values="0 0 0 0 0 0 0 0 0 0 0 0 0 0 0 0 0 0 0.25 0"/>
<feBlend mode="normal" in2="BackgroundImageFix" result="effect1_dropShadow"/>
<feBlend mode="normal" in="SourceGraphic" in2="effect1_dropShadow" result="shape"/>
</filter>
<filter id="filter2_d" x="135.313" y="240.436" width="110.525" height="47.5812" filterUnits="userSpaceOnUse" color-interpolation-filters="sRGB">
<feFlood flood-opacity="0" result="BackgroundImageFix"/>
<feColorMatrix in="SourceAlpha" type="matrix" values="0 0 0 0 0 0 0 0 0 0 0 0 0 0 0 0 0 0 127 0"/>
<feOffset dy="4"/>
<feGaussianBlur stdDeviation="2"/>
<feColorMatrix type="matrix" values="0 0 0 0 0 0 0 0 0 0 0 0 0 0 0 0 0 0 0.25 0"/>
<feBlend mode="normal" in2="BackgroundImageFix" result="effect1_dropShadow"/>
<feBlend mode="normal" in="SourceGraphic" in2="effect1_dropShadow" result="shape"/>
</filter>
<linearGradient id="paint0_linear" x1="190.818" y1="270.074" x2="192.348" y2="318.145" gradientUnits="userSpaceOnUse">
<stop stop-color="#010101" stop-opacity="0"/>
<stop offset="0.95" stop-color="#010101"/>
</linearGradient>
<linearGradient id="paint1_linear" x1="1956.02" y1="1865.77" x2="2056.68" y2="2215.38" gradientUnits="userSpaceOnUse">
<stop stop-color="#282828"/>
<stop offset="0.95" stop-color="#090909"/>
</linearGradient>
<linearGradient id="paint2_linear" x1="1956.02" y1="1872.68" x2="2056.68" y2="2222.29" gradientUnits="userSpaceOnUse">
<stop stop-color="#282828"/>
<stop offset="0.95" stop-color="#090909"/>
</linearGradient>
<linearGradient id="paint3_linear" x1="1956.02" y1="1879.59" x2="2056.68" y2="2229.2" gradientUnits="userSpaceOnUse">
<stop stop-color="#282828"/>
<stop offset="0.95" stop-color="#090909"/>
</linearGradient>
<linearGradient id="paint4_linear" x1="1956.02" y1="1886.5" x2="2056.68" y2="2236.11" gradientUnits="userSpaceOnUse">
<stop stop-color="#282828"/>
<stop offset="0.95" stop-color="#090909"/>
</linearGradient>
<linearGradient id="paint5_linear" x1="1964.93" y1="1865.77" x2="2065.59" y2="2215.38" gradientUnits="userSpaceOnUse">
<stop stop-color="#282828"/>
<stop offset="0.95" stop-color="#090909"/>
</linearGradient>
<linearGradient id="paint6_linear" x1="1964.93" y1="1872.68" x2="2065.59" y2="2222.29" gradientUnits="userSpaceOnUse">
<stop stop-color="#282828"/>
<stop offset="0.95" stop-color="#090909"/>
</linearGradient>
<linearGradient id="paint7_linear" x1="1964.93" y1="1879.59" x2="2065.59" y2="2229.2" gradientUnits="userSpaceOnUse">
<stop stop-color="#282828"/>
<stop offset="0.95" stop-color="#090909"/>
</linearGradient>
<linearGradient id="paint8_linear" x1="1964.93" y1="1886.5" x2="2065.59" y2="2236.11" gradientUnits="userSpaceOnUse">
<stop stop-color="#282828"/>
<stop offset="0.95" stop-color="#090909"/>
</linearGradient>
<linearGradient id="paint9_linear" x1="1973.84" y1="1865.77" x2="2074.5" y2="2215.38" gradientUnits="userSpaceOnUse">
<stop stop-color="#282828"/>
<stop offset="0.95" stop-color="#090909"/>
</linearGradient>
<linearGradient id="paint10_linear" x1="1973.84" y1="1872.68" x2="2074.5" y2="2222.29" gradientUnits="userSpaceOnUse">
<stop stop-color="#282828"/>
<stop offset="0.95" stop-color="#090909"/>
</linearGradient>
<linearGradient id="paint11_linear" x1="1973.84" y1="1879.59" x2="2074.5" y2="2229.2" gradientUnits="userSpaceOnUse">
<stop stop-color="#282828"/>
<stop offset="0.95" stop-color="#090909"/>
</linearGradient>
<linearGradient id="paint12_linear" x1="1973.84" y1="1886.5" x2="2074.5" y2="2236.11" gradientUnits="userSpaceOnUse">
<stop stop-color="#282828"/>
<stop offset="0.95" stop-color="#090909"/>
</linearGradient>
<linearGradient id="paint13_linear" x1="1982.75" y1="1865.77" x2="2083.41" y2="2215.38" gradientUnits="userSpaceOnUse">
<stop stop-color="#282828"/>
<stop offset="0.95" stop-color="#090909"/>
</linearGradient>
<linearGradient id="paint14_linear" x1="1982.75" y1="1872.68" x2="2083.41" y2="2222.29" gradientUnits="userSpaceOnUse">
<stop stop-color="#282828"/>
<stop offset="0.95" stop-color="#090909"/>
</linearGradient>
<linearGradient id="paint15_linear" x1="1982.75" y1="1879.59" x2="2083.41" y2="2229.2" gradientUnits="userSpaceOnUse">
<stop stop-color="#282828"/>
<stop offset="0.95" stop-color="#090909"/>
</linearGradient>
<linearGradient id="paint16_linear" x1="1991.67" y1="1865.77" x2="2092.32" y2="2215.38" gradientUnits="userSpaceOnUse">
<stop stop-color="#282828"/>
<stop offset="0.95" stop-color="#090909"/>
</linearGradient>
<linearGradient id="paint17_linear" x1="1991.67" y1="1872.68" x2="2092.32" y2="2222.29" gradientUnits="userSpaceOnUse">
<stop stop-color="#282828"/>
<stop offset="0.95" stop-color="#090909"/>
</linearGradient>
<linearGradient id="paint18_linear" x1="1991.67" y1="1879.59" x2="2092.32" y2="2229.2" gradientUnits="userSpaceOnUse">
<stop stop-color="#282828"/>
<stop offset="0.95" stop-color="#090909"/>
</linearGradient>
<linearGradient id="paint19_linear" x1="2000.57" y1="1865.77" x2="2101.23" y2="2215.38" gradientUnits="userSpaceOnUse">
<stop stop-color="#282828"/>
<stop offset="0.95" stop-color="#090909"/>
</linearGradient>
<linearGradient id="paint20_linear" x1="2000.57" y1="1872.68" x2="2101.23" y2="2222.29" gradientUnits="userSpaceOnUse">
<stop stop-color="#282828"/>
<stop offset="0.95" stop-color="#090909"/>
</linearGradient>
<linearGradient id="paint21_linear" x1="2000.57" y1="1879.59" x2="2101.23" y2="2229.2" gradientUnits="userSpaceOnUse">
<stop stop-color="#282828"/>
<stop offset="0.95" stop-color="#090909"/>
</linearGradient>
<linearGradient id="paint22_linear" x1="2009.49" y1="1865.77" x2="2110.15" y2="2215.38" gradientUnits="userSpaceOnUse">
<stop stop-color="#282828"/>
<stop offset="0.95" stop-color="#090909"/>
</linearGradient>
<linearGradient id="paint23_linear" x1="2009.49" y1="1872.68" x2="2110.15" y2="2222.29" gradientUnits="userSpaceOnUse">
<stop stop-color="#282828"/>
<stop offset="0.95" stop-color="#090909"/>
</linearGradient>
<linearGradient id="paint24_linear" x1="2009.49" y1="1879.59" x2="2110.15" y2="2229.2" gradientUnits="userSpaceOnUse">
<stop stop-color="#282828"/>
<stop offset="0.95" stop-color="#090909"/>
</linearGradient>
<linearGradient id="paint25_linear" x1="2018.39" y1="1865.77" x2="2119.05" y2="2215.38" gradientUnits="userSpaceOnUse">
<stop stop-color="#282828"/>
<stop offset="0.95" stop-color="#090909"/>
</linearGradient>
<linearGradient id="paint26_linear" x1="2018.39" y1="1872.68" x2="2119.05" y2="2222.29" gradientUnits="userSpaceOnUse">
<stop stop-color="#282828"/>
<stop offset="0.95" stop-color="#090909"/>
</linearGradient>
<linearGradient id="paint27_linear" x1="2018.39" y1="1879.59" x2="2119.05" y2="2229.2" gradientUnits="userSpaceOnUse">
<stop stop-color="#282828"/>
<stop offset="0.95" stop-color="#090909"/>
</linearGradient>
<linearGradient id="paint28_linear" x1="2027.31" y1="1865.77" x2="2127.96" y2="2215.38" gradientUnits="userSpaceOnUse">
<stop stop-color="#282828"/>
<stop offset="0.95" stop-color="#090909"/>
</linearGradient>
<linearGradient id="paint29_linear" x1="2027.31" y1="1872.68" x2="2127.96" y2="2222.29" gradientUnits="userSpaceOnUse">
<stop stop-color="#282828"/>
<stop offset="0.95" stop-color="#090909"/>
</linearGradient>
<linearGradient id="paint30_linear" x1="2027.31" y1="1879.59" x2="2127.96" y2="2229.2" gradientUnits="userSpaceOnUse">
<stop stop-color="#282828"/>
<stop offset="0.95" stop-color="#090909"/>
</linearGradient>
<linearGradient id="paint31_linear" x1="2027.31" y1="1886.5" x2="2127.96" y2="2236.11" gradientUnits="userSpaceOnUse">
<stop stop-color="#282828"/>
<stop offset="0.95" stop-color="#090909"/>
</linearGradient>
<linearGradient id="paint32_linear" x1="2036.21" y1="1865.77" x2="2136.87" y2="2215.38" gradientUnits="userSpaceOnUse">
<stop stop-color="#282828"/>
<stop offset="0.95" stop-color="#090909"/>
</linearGradient>
<linearGradient id="paint33_linear" x1="2036.21" y1="1872.68" x2="2136.87" y2="2222.29" gradientUnits="userSpaceOnUse">
<stop stop-color="#282828"/>
<stop offset="0.95" stop-color="#090909"/>
</linearGradient>
<linearGradient id="paint34_linear" x1="2036.21" y1="1879.59" x2="2136.87" y2="2229.2" gradientUnits="userSpaceOnUse">
<stop stop-color="#282828"/>
<stop offset="0.95" stop-color="#090909"/>
</linearGradient>
<linearGradient id="paint35_linear" x1="2036.21" y1="1886.5" x2="2136.87" y2="2236.1" gradientUnits="userSpaceOnUse">
<stop stop-color="#282828"/>
<stop offset="0.95" stop-color="#090909"/>
</linearGradient>
<linearGradient id="paint36_linear" x1="2045.12" y1="1865.77" x2="2145.78" y2="2215.38" gradientUnits="userSpaceOnUse">
<stop stop-color="#282828"/>
<stop offset="0.95" stop-color="#090909"/>
</linearGradient>
<linearGradient id="paint37_linear" x1="2045.12" y1="1872.68" x2="2145.78" y2="2222.29" gradientUnits="userSpaceOnUse">
<stop stop-color="#282828"/>
<stop offset="0.95" stop-color="#090909"/>
</linearGradient>
<linearGradient id="paint38_linear" x1="2045.12" y1="1879.59" x2="2145.78" y2="2229.2" gradientUnits="userSpaceOnUse">
<stop stop-color="#282828"/>
<stop offset="0.95" stop-color="#090909"/>
</linearGradient>
<linearGradient id="paint39_linear" x1="2045.12" y1="1886.5" x2="2145.78" y2="2236.11" gradientUnits="userSpaceOnUse">
<stop stop-color="#282828"/>
<stop offset="0.95" stop-color="#090909"/>
</linearGradient>
<linearGradient id="paint40_linear" x1="14333.5" y1="1855.71" x2="14346.9" y2="2226.53" gradientUnits="userSpaceOnUse">
<stop stop-color="#282828"/>
<stop offset="0.95" stop-color="#090909"/>
</linearGradient>
<linearGradient id="paint41_linear" x1="8172.98" y1="16661.4" x2="9424.92" y2="16661.4" gradientUnits="userSpaceOnUse">
<stop stop-color="#E9DCE3"/>
<stop offset="0.42" stop-color="#EAD4D0"/>
<stop offset="1" stop-color="#F0E9CB"/>
</linearGradient>
<linearGradient id="paint42_linear" x1="9909.47" y1="14748.9" x2="11426.3" y2="14748.9" gradientUnits="userSpaceOnUse">
<stop stop-color="#E9DCE3"/>
<stop offset="0.42" stop-color="#EAD4D0"/>
<stop offset="1" stop-color="#F0E9CB"/>
</linearGradient>
<linearGradient id="paint43_linear" x1="157" y1="127" x2="230.5" y2="228.5" gradientUnits="userSpaceOnUse">
<stop stop-color="#1E1E1E"/>
<stop offset="1" stop-color="#1E1E1E" stop-opacity="0"/>
</linearGradient>
<linearGradient id="paint44_linear" x1="144.413" y1="46.1039" x2="141.732" y2="189.634" gradientUnits="userSpaceOnUse">
<stop stop-color="white" stop-opacity="0"/>
<stop offset="0.99" stop-color="white"/>
</linearGradient>
<linearGradient id="paint45_linear" x1="6737.58" y1="1518.85" x2="6736.45" y2="932.132" gradientUnits="userSpaceOnUse">
<stop stop-color="white" stop-opacity="0"/>
<stop offset="0.99" stop-color="white"/>
</linearGradient>
<linearGradient id="paint46_linear" x1="29844.8" y1="1527.01" x2="29844.4" y2="927.12" gradientUnits="userSpaceOnUse">
<stop stop-color="white" stop-opacity="0"/>
<stop offset="0.99" stop-color="white"/>
</linearGradient>
<linearGradient id="paint47_linear" x1="9913.84" y1="1454.44" x2="9913.07" y2="923.277" gradientUnits="userSpaceOnUse">
<stop stop-color="white" stop-opacity="0"/>
<stop offset="0.99" stop-color="white"/>
</linearGradient>
<linearGradient id="paint48_linear" x1="12311.9" y1="1352.83" x2="12311.3" y2="886.21" gradientUnits="userSpaceOnUse">
<stop stop-color="white" stop-opacity="0"/>
<stop offset="0.99" stop-color="white"/>
</linearGradient>
<linearGradient id="paint49_linear" x1="12734.2" y1="1475.54" x2="12733.4" y2="960.739" gradientUnits="userSpaceOnUse">
<stop stop-color="white" stop-opacity="0"/>
<stop offset="0.99" stop-color="white"/>
</linearGradient>
<linearGradient id="paint50_linear" x1="9032.77" y1="1184.08" x2="9032.24" y2="804.566" gradientUnits="userSpaceOnUse">
<stop stop-color="white" stop-opacity="0"/>
<stop offset="0.99" stop-color="white"/>
</linearGradient>
<linearGradient id="paint51_linear" x1="23628.5" y1="1293.32" x2="23628.1" y2="865.348" gradientUnits="userSpaceOnUse">
<stop stop-color="white" stop-opacity="0"/>
<stop offset="0.99" stop-color="white"/>
</linearGradient>
<linearGradient id="paint52_linear" x1="10069.4" y1="1041.64" x2="10069" y2="705.128" gradientUnits="userSpaceOnUse">
<stop stop-color="white" stop-opacity="0"/>
<stop offset="0.99" stop-color="white"/>
</linearGradient>
<linearGradient id="paint53_linear" x1="5863.8" y1="926.16" x2="5863.37" y2="652.391" gradientUnits="userSpaceOnUse">
<stop stop-color="white" stop-opacity="0"/>
<stop offset="0.99" stop-color="white"/>
</linearGradient>
<linearGradient id="paint54_linear" x1="24123.4" y1="940.976" x2="24123.2" y2="648.267" gradientUnits="userSpaceOnUse">
<stop stop-color="white" stop-opacity="0"/>
<stop offset="0.99" stop-color="white"/>
</linearGradient>
<linearGradient id="paint55_linear" x1="8456.28" y1="910.642" x2="8455.97" y2="653.075" gradientUnits="userSpaceOnUse">
<stop stop-color="white" stop-opacity="0"/>
<stop offset="0.99" stop-color="white"/>
</linearGradient>
<linearGradient id="paint56_linear" x1="10393.3" y1="866.12" x2="10393" y2="633.666" gradientUnits="userSpaceOnUse">
<stop stop-color="white" stop-opacity="0"/>
<stop offset="0.99" stop-color="white"/>
</linearGradient>
<linearGradient id="paint57_linear" x1="10390.2" y1="935.513" x2="10389.9" y2="681.012" gradientUnits="userSpaceOnUse">
<stop stop-color="white" stop-opacity="0"/>
<stop offset="0.99" stop-color="white"/>
</linearGradient>
<linearGradient id="paint58_linear" x1="7701.03" y1="783.379" x2="7700.81" y2="590.057" gradientUnits="userSpaceOnUse">
<stop stop-color="white" stop-opacity="0"/>
<stop offset="0.99" stop-color="white"/>
</linearGradient>
<linearGradient id="paint59_linear" x1="19322" y1="850.407" x2="19321.8" y2="627.711" gradientUnits="userSpaceOnUse">
<stop stop-color="white" stop-opacity="0"/>
<stop offset="0.99" stop-color="white"/>
</linearGradient>
<linearGradient id="paint60_linear" x1="8794.51" y1="721.21" x2="8794.35" y2="543.058" gradientUnits="userSpaceOnUse">
<stop stop-color="white" stop-opacity="0"/>
<stop offset="0.99" stop-color="white"/>
</linearGradient>
<linearGradient id="paint61_linear" x1="5179.35" y1="655.456" x2="5179.15" y2="510.003" gradientUnits="userSpaceOnUse">
<stop stop-color="white" stop-opacity="0"/>
<stop offset="0.99" stop-color="white"/>
</linearGradient>
<linearGradient id="paint62_linear" x1="20252.1" y1="667.218" x2="20252.1" y2="505.944" gradientUnits="userSpaceOnUse">
<stop stop-color="white" stop-opacity="0"/>
<stop offset="0.99" stop-color="white"/>
</linearGradient>
<linearGradient id="paint63_linear" x1="7370.78" y1="655.365" x2="7370.63" y2="514.217" gradientUnits="userSpaceOnUse">
<stop stop-color="white" stop-opacity="0"/>
<stop offset="0.99" stop-color="white"/>
</linearGradient>
<linearGradient id="paint64_linear" x1="8999.83" y1="633.804" x2="8999.72" y2="503.562" gradientUnits="userSpaceOnUse">
<stop stop-color="white" stop-opacity="0"/>
<stop offset="0.99" stop-color="white"/>
</linearGradient>
<linearGradient id="paint65_linear" x1="8781.04" y1="677.047" x2="8780.88" y2="535.616" gradientUnits="userSpaceOnUse">
<stop stop-color="white" stop-opacity="0"/>
<stop offset="0.99" stop-color="white"/>
</linearGradient>
<linearGradient id="paint66_linear" x1="6717.58" y1="584.542" x2="6717.47" y2="475.537" gradientUnits="userSpaceOnUse">
<stop stop-color="white" stop-opacity="0"/>
<stop offset="0.99" stop-color="white"/>
</linearGradient>
<linearGradient id="paint67_linear" x1="16345.8" y1="630.2" x2="16345.7" y2="501.743" gradientUnits="userSpaceOnUse">
<stop stop-color="white" stop-opacity="0"/>
<stop offset="0.99" stop-color="white"/>
</linearGradient>
</defs>
</svg>
