<svg width="751" height="920" viewBox="0 0 751 920" fill="none" xmlns="http://www.w3.org/2000/svg">
<path opacity="0.19" d="M258.408 481.388C258.408 483.269 258.159 485.094 257.66 486.862C257.139 488.607 256.47 490.013 255.654 491.078L251.506 489.208C252.254 488.188 252.855 486.975 253.308 485.57C253.761 484.165 253.988 482.759 253.988 481.354C253.988 479.79 253.761 478.634 253.308 477.886C252.832 477.138 252.209 476.764 251.438 476.764C250.871 476.764 250.407 476.991 250.044 477.444C249.659 477.875 249.353 478.441 249.126 479.144C248.899 479.824 248.65 480.753 248.378 481.932C247.947 483.745 247.517 485.23 247.086 486.386C246.655 487.542 245.964 488.539 245.012 489.378C244.06 490.194 242.791 490.602 241.204 490.602C239.821 490.602 238.575 490.228 237.464 489.48C236.331 488.732 235.435 487.61 234.778 486.114C234.121 484.595 233.792 482.748 233.792 480.572C233.792 479.053 233.973 477.569 234.336 476.118C234.699 474.667 235.22 473.398 235.9 472.31L240.082 474.01C238.835 476.209 238.212 478.407 238.212 480.606C238.212 482.147 238.461 483.292 238.96 484.04C239.459 484.765 240.116 485.128 240.932 485.128C241.748 485.128 242.36 484.709 242.768 483.87C243.153 483.009 243.539 481.705 243.924 479.96C244.355 478.147 244.785 476.662 245.216 475.506C245.647 474.35 246.327 473.364 247.256 472.548C248.185 471.709 249.443 471.29 251.03 471.29C252.39 471.29 253.637 471.675 254.77 472.446C255.881 473.194 256.765 474.327 257.422 475.846C258.079 477.365 258.408 479.212 258.408 481.388ZM234.2 443.624C234.2 441.516 234.551 439.692 235.254 438.15C235.957 436.586 236.954 435.385 238.246 434.546C239.538 433.708 241.068 433.288 242.836 433.288C244.581 433.288 246.111 433.708 247.426 434.546C248.718 435.385 249.715 436.586 250.418 438.15C251.098 439.692 251.438 441.516 251.438 443.624V448.418H258V453.926H234.2V443.624ZM246.95 443.93C246.95 442.276 246.599 441.018 245.896 440.156C245.171 439.295 244.151 438.864 242.836 438.864C241.499 438.864 240.479 439.295 239.776 440.156C239.051 441.018 238.688 442.276 238.688 443.93V448.418H246.95V443.93ZM258 400.592L251.37 405.182V405.454V410.248H258V415.756H234.2V405.454C234.2 403.346 234.551 401.521 235.254 399.98C235.957 398.416 236.954 397.215 238.246 396.376C239.538 395.537 241.068 395.118 242.836 395.118C244.604 395.118 246.134 395.549 247.426 396.41C248.695 397.249 249.67 398.45 250.35 400.014L258 394.676V400.592ZM242.836 400.694C241.499 400.694 240.479 401.125 239.776 401.986C239.051 402.847 238.688 404.105 238.688 405.76V410.248H246.984V405.76C246.984 404.105 246.621 402.847 245.896 401.986C245.171 401.125 244.151 400.694 242.836 400.694ZM234.2 377.154V371.646H258V377.154H234.2ZM234.2 330.57H258V335.092L243.55 346.958H258V352.398H234.2V347.842L248.65 336.01H234.2V330.57ZM238.688 306.409V314.025H234.2V293.285H238.688V300.901H258L258 306.409H238.688ZM234.2 245.808H258V251.316H238.62V256.076H234.2V245.808Z" fill="white"/>
<path opacity="0.19" d="M372.408 488.128C372.408 490.01 372.159 491.834 371.66 493.602C371.139 495.348 370.47 496.753 369.654 497.818L365.506 495.948C366.254 494.928 366.855 493.716 367.308 492.31C367.761 490.905 367.988 489.5 367.988 488.094C367.988 486.53 367.761 485.374 367.308 484.626C366.832 483.878 366.209 483.504 365.438 483.504C364.871 483.504 364.407 483.731 364.044 484.184C363.659 484.615 363.353 485.182 363.126 485.884C362.899 486.564 362.65 487.494 362.378 488.672C361.947 490.486 361.517 491.97 361.086 493.126C360.655 494.282 359.964 495.28 359.012 496.118C358.06 496.934 356.791 497.342 355.204 497.342C353.821 497.342 352.575 496.968 351.464 496.22C350.331 495.472 349.435 494.35 348.778 492.854C348.121 491.336 347.792 489.488 347.792 487.312C347.792 485.794 347.973 484.309 348.336 482.858C348.699 481.408 349.22 480.138 349.9 479.05L354.082 480.75C352.835 482.949 352.212 485.148 352.212 487.346C352.212 488.888 352.461 490.032 352.96 490.78C353.459 491.506 354.116 491.868 354.932 491.868C355.748 491.868 356.36 491.449 356.768 490.61C357.153 489.749 357.539 488.446 357.924 486.7C358.355 484.887 358.785 483.402 359.216 482.246C359.647 481.09 360.327 480.104 361.256 479.288C362.185 478.45 363.443 478.03 365.03 478.03C366.39 478.03 367.637 478.416 368.77 479.186C369.881 479.934 370.765 481.068 371.422 482.586C372.079 484.105 372.408 485.952 372.408 488.128ZM348.2 450.365C348.2 448.257 348.551 446.432 349.254 444.891C349.957 443.327 350.954 442.125 352.246 441.287C353.538 440.448 355.068 440.029 356.836 440.029C358.581 440.029 360.111 440.448 361.426 441.287C362.718 442.125 363.715 443.327 364.418 444.891C365.098 446.432 365.438 448.257 365.438 450.365V455.159H372V460.667H348.2V450.365ZM360.95 450.671C360.95 449.016 360.599 447.758 359.896 446.897C359.171 446.035 358.151 445.605 356.836 445.605C355.499 445.605 354.479 446.035 353.776 446.897C353.051 447.758 352.688 449.016 352.688 450.671V455.159H360.95V450.671ZM372 407.332L365.37 411.922V412.194V416.988H372V422.496H348.2V412.194C348.2 410.086 348.551 408.262 349.254 406.72C349.957 405.156 350.954 403.955 352.246 403.116C353.538 402.278 355.068 401.858 356.836 401.858C358.604 401.858 360.134 402.289 361.426 403.15C362.695 403.989 363.67 405.19 364.35 406.754L372 401.416V407.332ZM356.836 407.434C355.499 407.434 354.479 407.865 353.776 408.726C353.051 409.588 352.688 410.846 352.688 412.5V416.988H360.984V412.5C360.984 410.846 360.621 409.588 359.896 408.726C359.171 407.865 358.151 407.434 356.836 407.434ZM348.2 383.894V378.386H372V383.894H348.2ZM348.2 337.31H372V341.832L357.55 353.698H372V359.138H348.2V354.582L362.65 342.75H348.2V337.31ZM352.688 313.149L352.688 320.765H348.2V300.025H352.688V307.641H372V313.149H352.688ZM367.512 243.947H372V261.933H368.43L359.76 252.753C358.831 251.778 358.037 251.121 357.38 250.781C356.7 250.441 356.031 250.271 355.374 250.271C354.422 250.271 353.697 250.599 353.198 251.257C352.677 251.891 352.416 252.832 352.416 254.079C352.416 255.121 352.62 256.062 353.028 256.901C353.413 257.739 354.003 258.442 354.796 259.009L352.212 263.021C350.829 262.091 349.753 260.811 348.982 259.179C348.189 257.547 347.792 255.677 347.792 253.569C347.792 251.801 348.087 250.259 348.676 248.945C349.243 247.607 350.059 246.576 351.124 245.851C352.167 245.103 353.402 244.729 354.83 244.729C356.122 244.729 357.335 245.001 358.468 245.545C359.601 246.089 360.893 247.143 362.344 248.707L367.512 254.181V243.947Z" fill="white"/>
<path opacity="0.19" d="M484.408 488.195C484.408 490.076 484.159 491.901 483.66 493.669C483.139 495.414 482.47 496.819 481.654 497.885L477.506 496.015C478.254 494.995 478.855 493.782 479.308 492.377C479.761 490.971 479.988 489.566 479.988 488.161C479.988 486.597 479.761 485.441 479.308 484.693C478.832 483.945 478.209 483.571 477.438 483.571C476.871 483.571 476.407 483.797 476.044 484.251C475.659 484.681 475.353 485.248 475.126 485.951C474.899 486.631 474.65 487.56 474.378 488.739C473.947 490.552 473.517 492.037 473.086 493.193C472.655 494.349 471.964 495.346 471.012 496.185C470.06 497.001 468.791 497.409 467.204 497.409C465.821 497.409 464.575 497.035 463.464 496.287C462.331 495.539 461.435 494.417 460.778 492.921C460.121 491.402 459.792 489.555 459.792 487.379C459.792 485.86 459.973 484.375 460.336 482.925C460.699 481.474 461.22 480.205 461.9 479.117L466.082 480.817C464.835 483.015 464.212 485.214 464.212 487.413C464.212 488.954 464.461 490.099 464.96 490.847C465.459 491.572 466.116 491.935 466.932 491.935C467.748 491.935 468.36 491.515 468.768 490.677C469.153 489.815 469.539 488.512 469.924 486.767C470.355 484.953 470.785 483.469 471.216 482.313C471.647 481.157 472.327 480.171 473.256 479.355C474.185 478.516 475.443 478.097 477.03 478.097C478.39 478.097 479.637 478.482 480.77 479.253C481.881 480.001 482.765 481.134 483.422 482.653C484.079 484.171 484.408 486.019 484.408 488.195ZM460.2 450.431C460.2 448.323 460.551 446.498 461.254 444.957C461.957 443.393 462.954 442.192 464.246 441.353C465.538 440.514 467.068 440.095 468.836 440.095C470.581 440.095 472.111 440.514 473.426 441.353C474.718 442.192 475.715 443.393 476.418 444.957C477.098 446.498 477.438 448.323 477.438 450.431V455.225H484V460.733H460.2V450.431ZM472.95 450.737C472.95 449.082 472.599 447.824 471.896 446.963C471.171 446.102 470.151 445.671 468.836 445.671C467.499 445.671 466.479 446.102 465.776 446.963C465.051 447.824 464.688 449.082 464.688 450.737V455.225H472.95V450.737ZM484 407.399L477.37 411.989V412.261V417.055H484V422.563H460.2V412.261C460.2 410.153 460.551 408.328 461.254 406.787C461.957 405.223 462.954 404.021 464.246 403.183C465.538 402.344 467.068 401.925 468.836 401.925C470.604 401.925 472.134 402.355 473.426 403.217C474.695 404.055 475.67 405.257 476.35 406.821L484 401.483V407.399ZM468.836 407.501C467.499 407.501 466.479 407.931 465.776 408.793C465.051 409.654 464.688 410.912 464.688 412.567V417.055H472.984V412.567C472.984 410.912 472.621 409.654 471.896 408.793C471.171 407.931 470.151 407.501 468.836 407.501ZM460.2 383.961V378.453H484V383.961H460.2ZM460.2 337.377H484V341.899L469.55 353.765H484V359.205H460.2V354.649L474.65 342.817H460.2V337.377ZM464.688 313.216L464.688 320.832H460.2V300.092H464.688V307.708H484V313.216H464.688ZM469.89 250.677C470.23 248.592 471.012 246.994 472.236 245.883C473.437 244.772 474.933 244.217 476.724 244.217C478.107 244.217 479.387 244.58 480.566 245.305C481.722 246.03 482.651 247.141 483.354 248.637C484.057 250.11 484.408 251.924 484.408 254.077C484.408 255.754 484.193 257.409 483.762 259.041C483.309 260.65 482.674 262.022 481.858 263.155L477.642 261.013C478.322 260.106 478.855 259.064 479.24 257.885C479.603 256.684 479.784 255.46 479.784 254.213C479.784 252.83 479.523 251.742 479.002 250.949C478.458 250.156 477.699 249.759 476.724 249.759C474.775 249.759 473.8 251.244 473.8 254.213V256.729H470.162L464.62 251.833V261.965H460.2V245.305H463.77L469.89 250.677Z" fill="white"/>
<path opacity="0.19" d="M598.408 491.515C598.408 493.396 598.159 495.221 597.66 496.989C597.139 498.734 596.47 500.14 595.654 501.205L591.506 499.335C592.254 498.315 592.855 497.102 593.308 495.697C593.761 494.292 593.988 492.886 593.988 491.481C593.988 489.917 593.761 488.761 593.308 488.013C592.832 487.265 592.209 486.891 591.438 486.891C590.871 486.891 590.407 487.118 590.044 487.571C589.659 488.002 589.353 488.568 589.126 489.271C588.899 489.951 588.65 490.88 588.378 492.059C587.947 493.872 587.517 495.357 587.086 496.513C586.655 497.669 585.964 498.666 585.012 499.505C584.06 500.321 582.791 500.729 581.204 500.729C579.821 500.729 578.575 500.355 577.464 499.607C576.331 498.859 575.435 497.737 574.778 496.241C574.121 494.722 573.792 492.875 573.792 490.699C573.792 489.18 573.973 487.696 574.336 486.245C574.699 484.794 575.22 483.525 575.9 482.437L580.082 484.137C578.835 486.336 578.212 488.534 578.212 490.733C578.212 492.274 578.461 493.419 578.96 494.167C579.459 494.892 580.116 495.255 580.932 495.255C581.748 495.255 582.36 494.836 582.768 493.997C583.153 493.136 583.539 491.832 583.924 490.087C584.355 488.274 584.785 486.789 585.216 485.633C585.647 484.477 586.327 483.491 587.256 482.675C588.185 481.836 589.443 481.417 591.03 481.417C592.39 481.417 593.637 481.802 594.77 482.573C595.881 483.321 596.765 484.454 597.422 485.973C598.079 487.492 598.408 489.339 598.408 491.515ZM574.2 453.751C574.2 451.643 574.551 449.819 575.254 448.277C575.957 446.713 576.954 445.512 578.246 444.673C579.538 443.835 581.068 443.415 582.836 443.415C584.581 443.415 586.111 443.835 587.426 444.673C588.718 445.512 589.715 446.713 590.418 448.277C591.098 449.819 591.438 451.643 591.438 453.751V458.545H598V464.053H574.2V453.751ZM586.95 454.057C586.95 452.403 586.599 451.145 585.896 450.283C585.171 449.422 584.151 448.991 582.836 448.991C581.499 448.991 580.479 449.422 579.776 450.283C579.051 451.145 578.688 452.403 578.688 454.057V458.545H586.95V454.057ZM598 410.719L591.37 415.309V415.581V420.375H598V425.883H574.2V415.581C574.2 413.473 574.551 411.648 575.254 410.107C575.957 408.543 576.954 407.342 578.246 406.503C579.538 405.664 581.068 405.245 582.836 405.245C584.604 405.245 586.134 405.676 587.426 406.537C588.695 407.376 589.67 408.577 590.35 410.141L598 404.803V410.719ZM582.836 410.821C581.499 410.821 580.479 411.252 579.776 412.113C579.051 412.974 578.688 414.232 578.688 415.887V420.375H586.984V415.887C586.984 414.232 586.621 412.974 585.896 412.113C585.171 411.252 584.151 410.821 582.836 410.821ZM574.2 387.281V381.773H598V387.281H574.2ZM574.2 340.697H598V345.219L583.55 357.085H598V362.525H574.2V357.969L588.65 346.137H574.2V340.697ZM578.688 316.536V324.152H574.2V303.412H578.688V311.028H598V316.536H578.688ZM593.002 243.321V247.197H598V252.569H593.002V265.387H589.296L574.2 254.167V248.387L588.514 258.791V252.399H584.06V247.197H588.514V243.321H593.002Z" fill="white"/>
<g filter="url(#filter0_d)">
<path d="M293.83 229.714V334.361" stroke="#FF772A"/>
</g>
<g filter="url(#filter1_d)">
<path d="M407.957 229.714V334.361" stroke="#FF772A"/>
</g>
<g filter="url(#filter2_d)">
<path d="M407.957 338.372V443.02" stroke="#2AFF4C"/>
</g>
<g filter="url(#filter3_d)">
<path d="M407.957 455.052V559.7" stroke="#2AFFFF"/>
</g>
<g filter="url(#filter4_d)">
<path d="M523.179 229.714V334.361" stroke="#FF772A"/>
</g>
<g filter="url(#filter5_d)">
<path d="M629.649 439.009V543.656" stroke="#68E1FD"/>
</g>
<g filter="url(#filter6_d)">
<path d="M523.179 338.372V443.02" stroke="#2AFF4C"/>
</g>
<g filter="url(#filter7_d)">
<path d="M629.649 560.064L629.649 652.679" stroke="#F129B8"/>
</g>
<g filter="url(#filter8_d)">
<path d="M523.179 455.052V559.7" stroke="#2AFFFF"/>
</g>
<g filter="url(#filter9_d)">
<path d="M629.649 670.911V775.193" stroke="#FF1818"/>
</g>
<g filter="url(#filter10_d)">
<circle cx="293.917" cy="332.99" r="20.1412" fill="#FF772A"/>
</g>
<g filter="url(#filter11_d)">
<circle cx="407.679" cy="332.99" r="20.1412" fill="#FF772A"/>
</g>
<g filter="url(#filter12_d)">
<circle cx="407.679" cy="439.46" r="20.1412" fill="#2AFF4C"/>
</g>
<g filter="url(#filter13_d)">
<circle cx="407.679" cy="559.787" r="20.1412" fill="#2AFFFF"/>
</g>
<g filter="url(#filter14_d)">
<circle cx="522.172" cy="332.99" r="20.1412" fill="#FF772A"/>
</g>
<g filter="url(#filter15_d)">
<circle cx="522.172" cy="439.46" r="20.1412" fill="#2AFF4C"/>
</g>
<g filter="url(#filter16_d)">
<circle cx="629.372" cy="559.787" r="20.1412" fill="#2AFFFF"/>
</g>
<g filter="url(#filter17_d)">
<circle cx="629.372" cy="670.633" r="20.1412" fill="#F129B8"/>
</g>
<g filter="url(#filter18_d)">
<circle cx="629.284" cy="774.829" r="41.9319" fill="#FF1818"/>
</g>
<path d="M16.608 226.2V243H15.384V235.008H4.152V243H2.928V226.2H4.152V233.928H15.384V226.2H16.608ZM28.8589 237.216V243H27.6349V237.216L20.8669 226.2H22.2109L28.2829 236.088L34.3549 226.2H35.6269L28.8589 237.216ZM45.5004 226.2C47.6124 226.2 49.2684 226.704 50.4684 227.712C51.6684 228.704 52.2684 230.088 52.2684 231.864C52.2684 233.624 51.6684 235.008 50.4684 236.016C49.2684 237.008 47.6124 237.504 45.5004 237.504H40.7004V243H39.4764V226.2H45.5004ZM45.5004 236.4C47.2924 236.4 48.6604 236.008 49.6044 235.224C50.5484 234.44 51.0204 233.32 51.0204 231.864C51.0204 230.408 50.5484 229.288 49.6044 228.504C48.6604 227.704 47.2924 227.304 45.5004 227.304H40.7004V236.4H45.5004ZM64.9607 243.12C63.3127 243.12 61.8247 242.752 60.4967 242.016C59.1687 241.264 58.1207 240.24 57.3527 238.944C56.6007 237.648 56.2247 236.2 56.2247 234.6C56.2247 233 56.6007 231.552 57.3527 230.256C58.1207 228.96 59.1687 227.944 60.4967 227.208C61.8247 226.456 63.3127 226.08 64.9607 226.08C66.6087 226.08 68.0967 226.448 69.4247 227.184C70.7527 227.92 71.7927 228.936 72.5447 230.232C73.3127 231.528 73.6967 232.984 73.6967 234.6C73.6967 236.216 73.3127 237.672 72.5447 238.968C71.7927 240.264 70.7527 241.28 69.4247 242.016C68.0967 242.752 66.6087 243.12 64.9607 243.12ZM64.9607 241.992C66.3687 241.992 67.6407 241.672 68.7767 241.032C69.9127 240.392 70.8087 239.512 71.4647 238.392C72.1207 237.256 72.4487 235.992 72.4487 234.6C72.4487 233.208 72.1207 231.952 71.4647 230.832C70.8087 229.696 69.9127 228.808 68.7767 228.168C67.6407 227.528 66.3687 227.208 64.9607 227.208C63.5527 227.208 62.2727 227.528 61.1207 228.168C59.9847 228.808 59.0887 229.696 58.4327 230.832C57.7767 231.952 57.4487 233.208 57.4487 234.6C57.4487 235.992 57.7767 237.256 58.4327 238.392C59.0887 239.512 59.9847 240.392 61.1207 241.032C62.2727 241.672 63.5527 241.992 64.9607 241.992ZM82.1237 227.304H76.0757V226.2H89.3957V227.304H83.3477V243H82.1237V227.304ZM107.311 226.2V243H106.087V235.008H94.8551V243H93.6311V226.2H94.8551V233.928H106.087V226.2H107.311ZM125.97 241.896V243H114.378V226.2H125.61V227.304H115.602V233.928H124.554V235.008H115.602V241.896H125.97ZM116.322 222H118.05L121.386 224.832H120.09L116.322 222ZM136.049 243.12C134.817 243.12 133.641 242.912 132.521 242.496C131.417 242.064 130.553 241.512 129.929 240.84L130.481 239.928C131.073 240.552 131.865 241.064 132.857 241.464C133.865 241.848 134.921 242.04 136.025 242.04C137.625 242.04 138.833 241.736 139.649 241.128C140.465 240.52 140.873 239.728 140.873 238.752C140.873 238 140.657 237.4 140.225 236.952C139.793 236.504 139.257 236.16 138.617 235.92C137.977 235.68 137.113 235.432 136.025 235.176C134.793 234.872 133.801 234.576 133.049 234.288C132.313 234 131.681 233.56 131.153 232.968C130.641 232.36 130.385 231.552 130.385 230.544C130.385 229.728 130.601 228.984 131.033 228.312C131.465 227.624 132.121 227.08 133.001 226.68C133.897 226.28 135.009 226.08 136.337 226.08C137.265 226.08 138.177 226.216 139.073 226.488C139.969 226.76 140.745 227.128 141.401 227.592L140.945 228.576C140.273 228.112 139.529 227.76 138.713 227.52C137.913 227.28 137.121 227.16 136.337 227.16C134.785 227.16 133.609 227.472 132.809 228.096C132.009 228.72 131.609 229.528 131.609 230.52C131.609 231.272 131.825 231.872 132.257 232.32C132.689 232.768 133.225 233.112 133.865 233.352C134.505 233.592 135.377 233.848 136.481 234.12C137.713 234.424 138.697 234.72 139.433 235.008C140.169 235.296 140.793 235.736 141.305 236.328C141.833 236.904 142.097 237.688 142.097 238.68C142.097 239.496 141.873 240.24 141.425 240.912C140.993 241.584 140.321 242.12 139.409 242.52C138.497 242.92 137.377 243.12 136.049 243.12ZM159.05 241.896V243H147.458V226.2H158.69V227.304H148.682V233.928H157.634V235.008H148.682V241.896H159.05Z" fill="white"/>
<path d="M8.952 430.2C11.064 430.2 12.72 430.704 13.92 431.712C15.12 432.704 15.72 434.088 15.72 435.864C15.72 437.624 15.12 439.008 13.92 440.016C12.72 441.008 11.064 441.504 8.952 441.504H4.152V447H2.928V430.2H8.952ZM8.952 440.4C10.744 440.4 12.112 440.008 13.056 439.224C14 438.44 14.472 437.32 14.472 435.864C14.472 434.408 14 433.288 13.056 432.504C12.112 431.704 10.744 431.304 8.952 431.304H4.152V440.4H8.952ZM32.7139 447L28.7059 441.384C28.1139 441.464 27.5699 441.504 27.0739 441.504H22.2739V447H21.0499V430.2H27.0739C29.1859 430.2 30.8419 430.704 32.0419 431.712C33.2419 432.704 33.8419 434.088 33.8419 435.864C33.8419 437.192 33.4979 438.312 32.8099 439.224C32.1379 440.12 31.1699 440.752 29.9059 441.12L34.1059 447H32.7139ZM27.0739 440.424C28.8659 440.424 30.2339 440.032 31.1779 439.248C32.1219 438.448 32.5939 437.32 32.5939 435.864C32.5939 434.408 32.1219 433.288 31.1779 432.504C30.2339 431.704 28.8659 431.304 27.0739 431.304H22.2739V440.424H27.0739ZM46.6513 447.12C45.0033 447.12 43.5153 446.752 42.1873 446.016C40.8593 445.264 39.8113 444.24 39.0433 442.944C38.2913 441.648 37.9153 440.2 37.9153 438.6C37.9153 437 38.2913 435.552 39.0433 434.256C39.8113 432.96 40.8593 431.944 42.1873 431.208C43.5153 430.456 45.0033 430.08 46.6513 430.08C48.2993 430.08 49.7873 430.448 51.1153 431.184C52.4433 431.92 53.4833 432.936 54.2353 434.232C55.0033 435.528 55.3873 436.984 55.3873 438.6C55.3873 440.216 55.0033 441.672 54.2353 442.968C53.4833 444.264 52.4433 445.28 51.1153 446.016C49.7873 446.752 48.2993 447.12 46.6513 447.12ZM46.6513 445.992C48.0593 445.992 49.3313 445.672 50.4673 445.032C51.6033 444.392 52.4993 443.512 53.1553 442.392C53.8113 441.256 54.1393 439.992 54.1393 438.6C54.1393 437.208 53.8113 435.952 53.1553 434.832C52.4993 433.696 51.6033 432.808 50.4673 432.168C49.3313 431.528 48.0593 431.208 46.6513 431.208C45.2433 431.208 43.9633 431.528 42.8113 432.168C41.6753 432.808 40.7793 433.696 40.1233 434.832C39.4673 435.952 39.1393 437.208 39.1393 438.6C39.1393 439.992 39.4673 441.256 40.1233 442.392C40.7793 443.512 41.6753 444.392 42.8113 445.032C43.9633 445.672 45.2433 445.992 46.6513 445.992ZM63.8143 431.304H57.7663V430.2H71.0863V431.304H65.0383V447H63.8143V431.304ZM82.2154 447.12C80.5674 447.12 79.0794 446.752 77.7514 446.016C76.4234 445.264 75.3754 444.24 74.6074 442.944C73.8554 441.648 73.4794 440.2 73.4794 438.6C73.4794 437 73.8554 435.552 74.6074 434.256C75.3754 432.96 76.4234 431.944 77.7514 431.208C79.0794 430.456 80.5674 430.08 82.2154 430.08C83.8634 430.08 85.3514 430.448 86.6794 431.184C88.0074 431.92 89.0474 432.936 89.7994 434.232C90.5674 435.528 90.9514 436.984 90.9514 438.6C90.9514 440.216 90.5674 441.672 89.7994 442.968C89.0474 444.264 88.0074 445.28 86.6794 446.016C85.3514 446.752 83.8634 447.12 82.2154 447.12ZM82.2154 445.992C83.6234 445.992 84.8954 445.672 86.0314 445.032C87.1674 444.392 88.0634 443.512 88.7194 442.392C89.3754 441.256 89.7034 439.992 89.7034 438.6C89.7034 437.208 89.3754 435.952 88.7194 434.832C88.0634 433.696 87.1674 432.808 86.0314 432.168C84.8954 431.528 83.6234 431.208 82.2154 431.208C80.8074 431.208 79.5274 431.528 78.3754 432.168C77.2394 432.808 76.3434 433.696 75.6874 434.832C75.0314 435.952 74.7034 437.208 74.7034 438.6C74.7034 439.992 75.0314 441.256 75.6874 442.392C76.3434 443.512 77.2394 444.392 78.3754 445.032C79.5274 445.672 80.8074 445.992 82.2154 445.992ZM99.3784 431.304H93.3304V430.2H106.65V431.304H100.602V447H99.3784V431.304ZM115.999 441.216V447H114.775V441.216L108.007 430.2H109.351L115.423 440.088L121.495 430.2H122.767L115.999 441.216ZM132.641 430.2C134.753 430.2 136.409 430.704 137.609 431.712C138.809 432.704 139.409 434.088 139.409 435.864C139.409 437.624 138.809 439.008 137.609 440.016C136.409 441.008 134.753 441.504 132.641 441.504H127.841V447H126.617V430.2H132.641ZM132.641 440.4C134.433 440.4 135.801 440.008 136.745 439.224C137.689 438.44 138.161 437.32 138.161 435.864C138.161 434.408 137.689 433.288 136.745 432.504C135.801 431.704 134.433 431.304 132.641 431.304H127.841V440.4H132.641ZM156.331 445.896V447H144.739V430.2H155.971V431.304H145.963V437.928H154.915V439.008H145.963V445.896H156.331Z" fill="white"/>
<path d="M6.144 543.304H0.096V542.2H13.416V543.304H7.368V559H6.144V543.304ZM29.2434 557.896V559H17.6514V542.2H28.8834V543.304H18.8754V549.928H27.8274V551.008H18.8754V557.896H29.2434ZM39.3221 559.12C38.0901 559.12 36.9141 558.912 35.7941 558.496C34.6901 558.064 33.8261 557.512 33.2021 556.84L33.7541 555.928C34.3461 556.552 35.1381 557.064 36.1301 557.464C37.1381 557.848 38.1941 558.04 39.2981 558.04C40.8981 558.04 42.1061 557.736 42.9221 557.128C43.7381 556.52 44.1461 555.728 44.1461 554.752C44.1461 554 43.9301 553.4 43.4981 552.952C43.0661 552.504 42.5301 552.16 41.8901 551.92C41.2501 551.68 40.3861 551.432 39.2981 551.176C38.0661 550.872 37.0741 550.576 36.3221 550.288C35.5861 550 34.9541 549.56 34.4261 548.968C33.9141 548.36 33.6581 547.552 33.6581 546.544C33.6581 545.728 33.8741 544.984 34.3061 544.312C34.7381 543.624 35.3941 543.08 36.2741 542.68C37.1701 542.28 38.2821 542.08 39.6101 542.08C40.5381 542.08 41.4501 542.216 42.3461 542.488C43.2421 542.76 44.0181 543.128 44.6741 543.592L44.2181 544.576C43.5461 544.112 42.8021 543.76 41.9861 543.52C41.1861 543.28 40.3941 543.16 39.6101 543.16C38.0581 543.16 36.8821 543.472 36.0821 544.096C35.2821 544.72 34.8821 545.528 34.8821 546.52C34.8821 547.272 35.0981 547.872 35.5301 548.32C35.9621 548.768 36.4981 549.112 37.1381 549.352C37.7781 549.592 38.6501 549.848 39.7541 550.12C40.9861 550.424 41.9701 550.72 42.7061 551.008C43.4421 551.296 44.0661 551.736 44.5781 552.328C45.1061 552.904 45.3701 553.688 45.3701 554.68C45.3701 555.496 45.1461 556.24 44.6981 556.912C44.2661 557.584 43.5941 558.12 42.6821 558.52C41.7701 558.92 40.6501 559.12 39.3221 559.12ZM53.7127 543.304H47.6647V542.2H60.9847V543.304H54.9367V559H53.7127V543.304ZM69.3315 559.12C68.0995 559.12 66.9235 558.912 65.8035 558.496C64.6995 558.064 63.8355 557.512 63.2115 556.84L63.7635 555.928C64.3555 556.552 65.1475 557.064 66.1395 557.464C67.1475 557.848 68.2035 558.04 69.3075 558.04C70.9075 558.04 72.1155 557.736 72.9315 557.128C73.7475 556.52 74.1555 555.728 74.1555 554.752C74.1555 554 73.9395 553.4 73.5075 552.952C73.0755 552.504 72.5395 552.16 71.8995 551.92C71.2595 551.68 70.3955 551.432 69.3075 551.176C68.0755 550.872 67.0835 550.576 66.3315 550.288C65.5955 550 64.9635 549.56 64.4355 548.968C63.9235 548.36 63.6675 547.552 63.6675 546.544C63.6675 545.728 63.8835 544.984 64.3155 544.312C64.7475 543.624 65.4035 543.08 66.2835 542.68C67.1795 542.28 68.2915 542.08 69.6195 542.08C70.5475 542.08 71.4595 542.216 72.3555 542.488C73.2515 542.76 74.0275 543.128 74.6835 543.592L74.2275 544.576C73.5555 544.112 72.8115 543.76 71.9955 543.52C71.1955 543.28 70.4035 543.16 69.6195 543.16C68.0675 543.16 66.8915 543.472 66.0915 544.096C65.2915 544.72 64.8915 545.528 64.8915 546.52C64.8915 547.272 65.1075 547.872 65.5395 548.32C65.9715 548.768 66.5075 549.112 67.1475 549.352C67.7875 549.592 68.6595 549.848 69.7635 550.12C70.9955 550.424 71.9795 550.72 72.7155 551.008C73.4515 551.296 74.0755 551.736 74.5875 552.328C75.1155 552.904 75.3795 553.688 75.3795 554.68C75.3795 555.496 75.1555 556.24 74.7075 556.912C74.2755 557.584 73.6035 558.12 72.6915 558.52C71.7795 558.92 70.6595 559.12 69.3315 559.12Z" fill="white"/>
<path d="M16.344 653.2L8.856 670H7.632L0.144 653.2H1.488L8.28 668.416L15.072 653.2H16.344ZM30.1294 665.272H20.3854L18.2494 670H16.9294L24.6574 653.2H25.8814L33.6094 670H32.2894L30.1294 665.272ZM29.6734 664.24L25.2574 654.544L20.8654 664.24H29.6734ZM37.8593 653.2H39.0833V668.896H48.7553V670H37.8593V653.2ZM53.0983 653.2H54.3223V670H53.0983V653.2ZM61.3764 653.2H68.0244C69.7684 653.2 71.3124 653.56 72.6564 654.28C74.0164 655 75.0724 656 75.8244 657.28C76.5764 658.544 76.9524 659.984 76.9524 661.6C76.9524 663.216 76.5764 664.664 75.8244 665.944C75.0724 667.208 74.0164 668.2 72.6564 668.92C71.3124 669.64 69.7684 670 68.0244 670H61.3764V653.2ZM67.9284 668.896C69.4804 668.896 70.8484 668.592 72.0324 667.984C73.2164 667.36 74.1284 666.496 74.7684 665.392C75.4084 664.288 75.7284 663.024 75.7284 661.6C75.7284 660.176 75.4084 658.912 74.7684 657.808C74.1284 656.704 73.2164 655.848 72.0324 655.24C70.8484 654.616 69.4804 654.304 67.9284 654.304H62.6004V668.896H67.9284ZM92.5622 665.272H82.8182L80.6822 670H79.3622L87.0902 653.2H88.3142L96.0422 670H94.7222L92.5622 665.272ZM92.1062 664.24L87.6902 654.544L83.2982 664.24H92.1062ZM102.664 654.304H96.6163V653.2H109.936V654.304H103.888V670H102.664V654.304ZM114.172 653.2H115.396V670H114.172V653.2ZM129.578 670.12C127.93 670.12 126.442 669.752 125.114 669.016C123.786 668.264 122.738 667.24 121.97 665.944C121.218 664.648 120.842 663.2 120.842 661.6C120.842 660 121.218 658.552 121.97 657.256C122.738 655.96 123.786 654.944 125.114 654.208C126.442 653.456 127.93 653.08 129.578 653.08C131.226 653.08 132.714 653.448 134.042 654.184C135.37 654.92 136.41 655.936 137.162 657.232C137.93 658.528 138.314 659.984 138.314 661.6C138.314 663.216 137.93 664.672 137.162 665.968C136.41 667.264 135.37 668.28 134.042 669.016C132.714 669.752 131.226 670.12 129.578 670.12ZM129.578 668.992C130.986 668.992 132.258 668.672 133.394 668.032C134.53 667.392 135.426 666.512 136.082 665.392C136.738 664.256 137.066 662.992 137.066 661.6C137.066 660.208 136.738 658.952 136.082 657.832C135.426 656.696 134.53 655.808 133.394 655.168C132.258 654.528 130.986 654.208 129.578 654.208C128.17 654.208 126.89 654.528 125.738 655.168C124.602 655.808 123.706 656.696 123.05 657.832C122.394 658.952 122.066 660.208 122.066 661.6C122.066 662.992 122.394 664.256 123.05 665.392C123.706 666.512 124.602 667.392 125.738 668.032C126.89 668.672 128.17 668.992 129.578 668.992ZM157.439 653.2V670H156.431L144.983 655.408V670H143.759V653.2H144.791L156.215 667.792V653.2H157.439Z" fill="white"/>
<path d="M14.592 783L10.584 777.384C9.992 777.464 9.448 777.504 8.952 777.504H4.152V783H2.928V766.2H8.952C11.064 766.2 12.72 766.704 13.92 767.712C15.12 768.704 15.72 770.088 15.72 771.864C15.72 773.192 15.376 774.312 14.688 775.224C14.016 776.12 13.048 776.752 11.784 777.12L15.984 783H14.592ZM8.952 776.424C10.744 776.424 12.112 776.032 13.056 775.248C14 774.448 14.472 773.32 14.472 771.864C14.472 770.408 14 769.288 13.056 768.504C12.112 767.704 10.744 767.304 8.952 767.304H4.152V776.424H8.952ZM32.9934 781.896V783H21.4014V766.2H32.6334V767.304H22.6254V773.928H31.5774V775.008H22.6254V781.896H32.9934ZM29.0094 762H30.7374L26.9694 764.832H25.6734L29.0094 762ZM49.0481 778.272H39.3041L37.1681 783H35.8481L43.5761 766.2H44.8001L52.5281 783H51.2081L49.0481 778.272ZM48.5921 777.24L44.1761 767.544L39.7841 777.24H48.5921ZM56.778 766.2H58.002V781.896H67.674V783H56.778V766.2ZM72.0171 766.2H73.2411V783H72.0171V766.2ZM84.7112 783.12C83.4792 783.12 82.3032 782.912 81.1832 782.496C80.0792 782.064 79.2152 781.512 78.5912 780.84L79.1432 779.928C79.7352 780.552 80.5272 781.064 81.5192 781.464C82.5272 781.848 83.5832 782.04 84.6872 782.04C86.2872 782.04 87.4952 781.736 88.3112 781.128C89.1272 780.52 89.5352 779.728 89.5352 778.752C89.5352 778 89.3192 777.4 88.8872 776.952C88.4552 776.504 87.9192 776.16 87.2792 775.92C86.6392 775.68 85.7752 775.432 84.6872 775.176C83.4552 774.872 82.4632 774.576 81.7112 774.288C80.9752 774 80.3432 773.56 79.8152 772.968C79.3032 772.36 79.0472 771.552 79.0472 770.544C79.0472 769.728 79.2632 768.984 79.6952 768.312C80.1272 767.624 80.7832 767.08 81.6632 766.68C82.5592 766.28 83.6712 766.08 84.9992 766.08C85.9272 766.08 86.8392 766.216 87.7352 766.488C88.6312 766.76 89.4072 767.128 90.0632 767.592L89.6072 768.576C88.9352 768.112 88.1912 767.76 87.3752 767.52C86.5752 767.28 85.7832 767.16 84.9992 767.16C83.4472 767.16 82.2712 767.472 81.4712 768.096C80.6712 768.72 80.2712 769.528 80.2712 770.52C80.2712 771.272 80.4872 771.872 80.9192 772.32C81.3512 772.768 81.8872 773.112 82.5272 773.352C83.1672 773.592 84.0392 773.848 85.1432 774.12C86.3752 774.424 87.3592 774.72 88.0952 775.008C88.8312 775.296 89.4552 775.736 89.9672 776.328C90.4952 776.904 90.7592 777.688 90.7592 778.68C90.7592 779.496 90.5352 780.24 90.0872 780.912C89.6552 781.584 88.9832 782.12 88.0712 782.52C87.1592 782.92 86.0392 783.12 84.7112 783.12ZM106.512 778.272H96.7682L94.6322 783H93.3122L101.04 766.2H102.264L109.992 783H108.672L106.512 778.272ZM106.056 777.24L101.64 767.544L97.2482 777.24H106.056ZM116.614 767.304H110.566V766.2H123.886V767.304H117.838V783H116.614V767.304ZM128.122 766.2H129.346V783H128.122V766.2ZM143.528 783.12C141.88 783.12 140.392 782.752 139.064 782.016C137.736 781.264 136.688 780.24 135.92 778.944C135.168 777.648 134.792 776.2 134.792 774.6C134.792 773 135.168 771.552 135.92 770.256C136.688 768.96 137.736 767.944 139.064 767.208C140.392 766.456 141.88 766.08 143.528 766.08C145.176 766.08 146.664 766.448 147.992 767.184C149.32 767.92 150.36 768.936 151.112 770.232C151.88 771.528 152.264 772.984 152.264 774.6C152.264 776.216 151.88 777.672 151.112 778.968C150.36 780.264 149.32 781.28 147.992 782.016C146.664 782.752 145.176 783.12 143.528 783.12ZM143.528 781.992C144.936 781.992 146.208 781.672 147.344 781.032C148.48 780.392 149.376 779.512 150.032 778.392C150.688 777.256 151.016 775.992 151.016 774.6C151.016 773.208 150.688 771.952 150.032 770.832C149.376 769.696 148.48 768.808 147.344 768.168C146.208 767.528 144.936 767.208 143.528 767.208C142.12 767.208 140.84 767.528 139.688 768.168C138.552 768.808 137.656 769.696 137 770.832C136.344 771.952 136.016 773.208 136.016 774.6C136.016 775.992 136.344 777.256 137 778.392C137.656 779.512 138.552 780.392 139.688 781.032C140.84 781.672 142.12 781.992 143.528 781.992ZM171.389 766.2V783H170.381L158.933 768.408V783H157.709V766.2H158.741L170.165 780.792V766.2H171.389Z" fill="white"/>
<path d="M564.086 870C566.726 870 568.796 870.63 570.296 871.89C571.796 873.13 572.546 874.86 572.546 877.08C572.546 879.28 571.796 881.01 570.296 882.27C568.796 883.51 566.726 884.13 564.086 884.13H558.086V891H556.556V870H564.086ZM564.086 882.75C566.326 882.75 568.036 882.26 569.216 881.28C570.396 880.3 570.986 878.9 570.986 877.08C570.986 875.26 570.396 873.86 569.216 872.88C568.036 871.88 566.326 871.38 564.086 871.38H558.086V882.75H564.086ZM593.789 891L588.779 883.98C588.039 884.08 587.359 884.13 586.739 884.13H580.739V891H579.209V870H586.739C589.379 870 591.449 870.63 592.949 871.89C594.449 873.13 595.199 874.86 595.199 877.08C595.199 878.74 594.769 880.14 593.909 881.28C593.069 882.4 591.859 883.19 590.279 883.65L595.529 891H593.789ZM586.739 882.78C588.979 882.78 590.689 882.29 591.869 881.31C593.049 880.31 593.639 878.9 593.639 877.08C593.639 875.26 593.049 873.86 591.869 872.88C590.689 871.88 588.979 871.38 586.739 871.38H580.739V882.78H586.739ZM611.211 891.15C609.151 891.15 607.291 890.69 605.631 889.77C603.971 888.83 602.661 887.55 601.701 885.93C600.761 884.31 600.291 882.5 600.291 880.5C600.291 878.5 600.761 876.69 601.701 875.07C602.661 873.45 603.971 872.18 605.631 871.26C607.291 870.32 609.151 869.85 611.211 869.85C613.271 869.85 615.131 870.31 616.791 871.23C618.451 872.15 619.751 873.42 620.691 875.04C621.651 876.66 622.131 878.48 622.131 880.5C622.131 882.52 621.651 884.34 620.691 885.96C619.751 887.58 618.451 888.85 616.791 889.77C615.131 890.69 613.271 891.15 611.211 891.15ZM611.211 889.74C612.971 889.74 614.561 889.34 615.981 888.54C617.401 887.74 618.521 886.64 619.341 885.24C620.161 883.82 620.571 882.24 620.571 880.5C620.571 878.76 620.161 877.19 619.341 875.79C618.521 874.37 617.401 873.26 615.981 872.46C614.561 871.66 612.971 871.26 611.211 871.26C609.451 871.26 607.851 871.66 606.411 872.46C604.991 873.26 603.871 874.37 603.051 875.79C602.231 877.19 601.821 878.76 601.821 880.5C601.821 882.24 602.231 883.82 603.051 885.24C603.871 886.64 604.991 887.74 606.411 888.54C607.851 889.34 609.451 889.74 611.211 889.74ZM628.937 870H637.247C639.427 870 641.357 870.45 643.037 871.35C644.737 872.25 646.057 873.5 646.997 875.1C647.937 876.68 648.407 878.48 648.407 880.5C648.407 882.52 647.937 884.33 646.997 885.93C646.057 887.51 644.737 888.75 643.037 889.65C641.357 890.55 639.427 891 637.247 891H628.937V870ZM637.127 889.62C639.067 889.62 640.777 889.24 642.257 888.48C643.737 887.7 644.877 886.62 645.677 885.24C646.477 883.86 646.877 882.28 646.877 880.5C646.877 878.72 646.477 877.14 645.677 875.76C644.877 874.38 643.737 873.31 642.257 872.55C640.777 871.77 639.067 871.38 637.127 871.38H630.467V889.62H637.127ZM663.443 891.15C660.783 891.15 658.713 890.38 657.233 888.84C655.773 887.3 655.043 885.05 655.043 882.09V870H656.573V882.03C656.573 884.61 657.163 886.54 658.343 887.82C659.523 889.1 661.233 889.74 663.473 889.74C665.693 889.74 667.393 889.1 668.573 887.82C669.753 886.54 670.343 884.61 670.343 882.03V870H671.873V882.09C671.873 885.05 671.133 887.3 669.653 888.84C668.173 890.38 666.103 891.15 663.443 891.15ZM680.512 870H682.042V891H680.512V870ZM694.879 871.38H687.319V870H703.969V871.38H696.409V891H694.879V871.38Z" fill="white"/>
<path d="M14.592 348L10.584 342.384C9.992 342.464 9.448 342.504 8.952 342.504H4.152V348H2.928V331.2H8.952C11.064 331.2 12.72 331.704 13.92 332.712C15.12 333.704 15.72 335.088 15.72 336.864C15.72 338.192 15.376 339.312 14.688 340.224C14.016 341.12 13.048 341.752 11.784 342.12L15.984 348H14.592ZM8.952 341.424C10.744 341.424 12.112 341.032 13.056 340.248C14 339.448 14.472 338.32 14.472 336.864C14.472 335.408 14 334.288 13.056 333.504C12.112 332.704 10.744 332.304 8.952 332.304H4.152V341.424H8.952ZM32.9934 346.896V348H21.4014V331.2H32.6334V332.304H22.6254V338.928H31.5774V340.008H22.6254V346.896H32.9934ZM45.6664 348.12C44.0184 348.12 42.5304 347.752 41.2024 347.016C39.8904 346.28 38.8504 345.264 38.0824 343.968C37.3304 342.672 36.9544 341.216 36.9544 339.6C36.9544 337.984 37.3304 336.528 38.0824 335.232C38.8504 333.936 39.8904 332.92 41.2024 332.184C42.5304 331.448 44.0184 331.08 45.6664 331.08C46.8824 331.08 48.0024 331.28 49.0264 331.68C50.0504 332.064 50.9224 332.64 51.6424 333.408L50.8744 334.2C49.5304 332.872 47.8104 332.208 45.7144 332.208C44.3064 332.208 43.0264 332.528 41.8744 333.168C40.7224 333.808 39.8184 334.696 39.1624 335.832C38.5064 336.952 38.1784 338.208 38.1784 339.6C38.1784 340.992 38.5064 342.256 39.1624 343.392C39.8184 344.512 40.7224 345.392 41.8744 346.032C43.0264 346.672 44.3064 346.992 45.7144 346.992C47.7944 346.992 49.5144 346.32 50.8744 344.976L51.6424 345.768C50.9224 346.536 50.0424 347.12 49.0024 347.52C47.9784 347.92 46.8664 348.12 45.6664 348.12ZM70.6221 331.2V348H69.3981V340.008H58.1661V348H56.9421V331.2H58.1661V338.928H69.3981V331.2H70.6221ZM89.2809 346.896V348H77.6889V331.2H88.9209V332.304H78.9129V338.928H87.8649V340.008H78.9129V346.896H89.2809ZM106.608 348L102.6 342.384C102.008 342.464 101.464 342.504 100.968 342.504H96.1676V348H94.9436V331.2H100.968C103.08 331.2 104.736 331.704 105.936 332.712C107.136 333.704 107.736 335.088 107.736 336.864C107.736 338.192 107.392 339.312 106.704 340.224C106.032 341.12 105.064 341.752 103.8 342.12L108 348H106.608ZM100.968 341.424C102.76 341.424 104.128 341.032 105.072 340.248C106.016 339.448 106.488 338.32 106.488 336.864C106.488 335.408 106.016 334.288 105.072 333.504C104.128 332.704 102.76 332.304 100.968 332.304H96.1676V341.424H100.968ZM120.521 348.12C118.873 348.12 117.385 347.752 116.057 347.016C114.745 346.28 113.705 345.264 112.937 343.968C112.185 342.672 111.809 341.216 111.809 339.6C111.809 337.984 112.185 336.528 112.937 335.232C113.705 333.936 114.745 332.92 116.057 332.184C117.385 331.448 118.873 331.08 120.521 331.08C121.737 331.08 122.857 331.28 123.881 331.68C124.905 332.064 125.777 332.64 126.497 333.408L125.729 334.2C124.385 332.872 122.665 332.208 120.569 332.208C119.161 332.208 117.881 332.528 116.729 333.168C115.577 333.808 114.673 334.696 114.017 335.832C113.361 336.952 113.033 338.208 113.033 339.6C113.033 340.992 113.361 342.256 114.017 343.392C114.673 344.512 115.577 345.392 116.729 346.032C117.881 346.672 119.161 346.992 120.569 346.992C122.649 346.992 124.369 346.32 125.729 344.976L126.497 345.768C125.777 346.536 124.897 347.12 123.857 347.52C122.833 347.92 121.721 348.12 120.521 348.12ZM145.477 331.2V348H144.253V340.008H133.021V348H131.797V331.2H133.021V338.928H144.253V331.2H145.477ZM164.136 346.896V348H152.544V331.2H163.776V332.304H153.768V338.928H162.72V340.008H153.768V346.896H164.136Z" fill="white"/>
<path d="M349.292 54.11C347.781 54.11 346.417 53.7727 345.2 53.098C343.982 52.4087 343.022 51.47 342.318 50.282C341.628 49.094 341.284 47.7667 341.284 46.3C341.284 44.8333 341.628 43.506 342.318 42.318C343.022 41.13 343.982 40.1987 345.2 39.524C346.417 38.8347 347.781 38.49 349.292 38.49C350.802 38.49 352.166 38.8273 353.384 39.502C354.601 40.1767 355.554 41.108 356.244 42.296C356.948 43.484 357.3 44.8187 357.3 46.3C357.3 47.7813 356.948 49.116 356.244 50.304C355.554 51.492 354.601 52.4233 353.384 53.098C352.166 53.7727 350.802 54.11 349.292 54.11ZM349.292 53.076C350.582 53.076 351.748 52.7827 352.79 52.196C353.831 51.6093 354.652 50.8027 355.254 49.776C355.855 48.7347 356.156 47.576 356.156 46.3C356.156 45.024 355.855 43.8727 355.254 42.846C354.652 41.8047 353.831 40.9907 352.79 40.404C351.748 39.8173 350.582 39.524 349.292 39.524C348.001 39.524 346.828 39.8173 345.772 40.404C344.73 40.9907 343.909 41.8047 343.308 42.846C342.706 43.8727 342.406 45.024 342.406 46.3C342.406 47.576 342.706 48.7347 343.308 49.776C343.909 50.8027 344.73 51.6093 345.772 52.196C346.828 52.7827 348.001 53.076 349.292 53.076ZM371.443 46.058C372.543 46.2633 373.379 46.696 373.951 47.356C374.538 48.016 374.831 48.874 374.831 49.93C374.831 51.2353 374.355 52.24 373.401 52.944C372.448 53.648 371.033 54 369.155 54H362.291V38.6H368.715C370.387 38.6 371.685 38.9447 372.609 39.634C373.548 40.3087 374.017 41.2767 374.017 42.538C374.017 43.418 373.783 44.1587 373.313 44.76C372.859 45.3613 372.235 45.794 371.443 46.058ZM363.413 39.568V45.706H368.671C370.021 45.706 371.055 45.4493 371.773 44.936C372.507 44.408 372.873 43.638 372.873 42.626C372.873 41.6287 372.507 40.8733 371.773 40.36C371.055 39.832 370.021 39.568 368.671 39.568H363.413ZM369.155 53.032C370.651 53.032 371.781 52.7753 372.543 52.262C373.321 51.734 373.709 50.9273 373.709 49.842C373.709 48.7567 373.321 47.9573 372.543 47.444C371.781 46.9307 370.651 46.674 369.155 46.674H363.413V53.032H369.155ZM381.32 54.11C380.484 54.11 379.7 53.9193 378.966 53.538C378.248 53.142 377.668 52.5993 377.228 51.91L377.91 51.162C378.336 51.7927 378.834 52.2767 379.406 52.614C379.993 52.9367 380.631 53.098 381.32 53.098C382.347 53.098 383.11 52.8047 383.608 52.218C384.122 51.6167 384.378 50.7 384.378 49.468V39.612H378.702V38.6H385.5V49.468C385.5 51.008 385.148 52.1667 384.444 52.944C383.74 53.7213 382.699 54.11 381.32 54.11ZM402.467 52.988V54H391.841V38.6H402.137V39.612H392.963V45.684H401.169V46.674H392.963V52.988H402.467ZM414.084 54.11C412.573 54.11 411.209 53.7727 409.992 53.098C408.789 52.4233 407.836 51.492 407.132 50.304C406.442 49.116 406.098 47.7813 406.098 46.3C406.098 44.8187 406.442 43.484 407.132 42.296C407.836 41.108 408.789 40.1767 409.992 39.502C411.209 38.8273 412.573 38.49 414.084 38.49C415.198 38.49 416.225 38.6733 417.164 39.04C418.102 39.392 418.902 39.92 419.562 40.624L418.858 41.35C417.626 40.1327 416.049 39.524 414.128 39.524C412.837 39.524 411.664 39.8173 410.608 40.404C409.552 40.9907 408.723 41.8047 408.122 42.846C407.52 43.8727 407.22 45.024 407.22 46.3C407.22 47.576 407.52 48.7347 408.122 49.776C408.723 50.8027 409.552 51.6093 410.608 52.196C411.664 52.7827 412.837 53.076 414.128 53.076C416.034 53.076 417.611 52.46 418.858 51.228L419.562 51.954C418.902 52.658 418.095 53.1933 417.142 53.56C416.203 53.9267 415.184 54.11 414.084 54.11ZM427.174 39.612H421.63V38.6H433.84V39.612H428.296V54H427.174V39.612ZM437.723 38.6H438.845V54H437.723V38.6ZM446.433 39.612V46.19H454.639V47.202H446.433V54H445.311V38.6H455.607V39.612H446.433ZM464.252 54.11C463.123 54.11 462.045 53.9193 461.018 53.538C460.006 53.142 459.214 52.636 458.642 52.02L459.148 51.184C459.691 51.756 460.417 52.2253 461.326 52.592C462.25 52.944 463.218 53.12 464.23 53.12C465.697 53.12 466.804 52.8413 467.552 52.284C468.3 51.7267 468.674 51.0007 468.674 50.106C468.674 49.4167 468.476 48.8667 468.08 48.456C467.684 48.0453 467.193 47.73 466.606 47.51C466.019 47.29 465.227 47.0627 464.23 46.828C463.101 46.5493 462.191 46.278 461.502 46.014C460.827 45.75 460.248 45.3467 459.764 44.804C459.295 44.2467 459.06 43.506 459.06 42.582C459.06 41.834 459.258 41.152 459.654 40.536C460.05 39.9053 460.651 39.4067 461.458 39.04C462.279 38.6733 463.299 38.49 464.516 38.49C465.367 38.49 466.203 38.6147 467.024 38.864C467.845 39.1133 468.557 39.4507 469.158 39.876L468.74 40.778C468.124 40.3527 467.442 40.03 466.694 39.81C465.961 39.59 465.235 39.48 464.516 39.48C463.093 39.48 462.015 39.766 461.282 40.338C460.549 40.91 460.182 41.6507 460.182 42.56C460.182 43.2493 460.38 43.7993 460.776 44.21C461.172 44.6207 461.663 44.936 462.25 45.156C462.837 45.376 463.636 45.6107 464.648 45.86C465.777 46.1387 466.679 46.41 467.354 46.674C468.029 46.938 468.601 47.3413 469.07 47.884C469.554 48.412 469.796 49.1307 469.796 50.04C469.796 50.788 469.591 51.47 469.18 52.086C468.784 52.702 468.168 53.1933 467.332 53.56C466.496 53.9267 465.469 54.11 464.252 54.11Z" fill="white"/>
<rect x="253.127" y="0.5" width="305.285" height="92.3441" stroke="white"/>
<g filter="url(#filter19_d)">
<path d="M405 93.5C378.382 193.772 293.83 136.734 293.83 225.338" stroke="#FFD02A"/>
</g>
<g filter="url(#filter20_d)">
<path d="M629.65 436.821C523.908 436.821 629.65 560.064 523.908 560.064" stroke="#2AFF4C"/>
</g>
<g filter="url(#filter21_d)">
<path d="M405.77 228.62C405.77 166.269 405.5 187.209 405.5 93.5C405.5 187.209 523.179 138.5 523.179 228.62" stroke="#FFD02A"/>
</g>
<g filter="url(#filter22_d)">
<circle cx="407.679" cy="228.707" r="20.1412" fill="#FFD02B"/>
</g>
<g filter="url(#filter23_d)">
<circle cx="522.172" cy="228.707" r="20.1412" fill="#FFD02B"/>
</g>
<g filter="url(#filter24_d)">
<circle cx="293.917" cy="228.707" r="20.1412" fill="#FFD02B"/>
</g>
<g filter="url(#filter25_d)">
<circle cx="629.372" cy="439.46" r="20.1412" fill="#2AFF4C"/>
</g>
<g filter="url(#filter26_d)">
<circle cx="522.172" cy="559.787" r="20.1412" fill="#2AFFFF"/>
</g>
<line x1="551" y1="919.5" x2="707" y2="919.5" stroke="white"/>
<defs>
<filter id="filter0_d" x="289.33" y="225.714" width="9" height="112.647" filterUnits="userSpaceOnUse" color-interpolation-filters="sRGB">
<feFlood flood-opacity="0" result="BackgroundImageFix"/>
<feColorMatrix in="SourceAlpha" type="matrix" values="0 0 0 0 0 0 0 0 0 0 0 0 0 0 0 0 0 0 127 0"/>
<feOffset/>
<feGaussianBlur stdDeviation="2"/>
<feColorMatrix type="matrix" values="0 0 0 0 1 0 0 0 0 0.466667 0 0 0 0 0.164706 0 0 0 1 0"/>
<feBlend mode="normal" in2="BackgroundImageFix" result="effect1_dropShadow"/>
<feBlend mode="normal" in="SourceGraphic" in2="effect1_dropShadow" result="shape"/>
</filter>
<filter id="filter1_d" x="403.457" y="225.714" width="9" height="112.647" filterUnits="userSpaceOnUse" color-interpolation-filters="sRGB">
<feFlood flood-opacity="0" result="BackgroundImageFix"/>
<feColorMatrix in="SourceAlpha" type="matrix" values="0 0 0 0 0 0 0 0 0 0 0 0 0 0 0 0 0 0 127 0"/>
<feOffset/>
<feGaussianBlur stdDeviation="2"/>
<feColorMatrix type="matrix" values="0 0 0 0 1 0 0 0 0 0.466667 0 0 0 0 0.164706 0 0 0 1 0"/>
<feBlend mode="normal" in2="BackgroundImageFix" result="effect1_dropShadow"/>
<feBlend mode="normal" in="SourceGraphic" in2="effect1_dropShadow" result="shape"/>
</filter>
<filter id="filter2_d" x="403.457" y="334.372" width="9" height="112.647" filterUnits="userSpaceOnUse" color-interpolation-filters="sRGB">
<feFlood flood-opacity="0" result="BackgroundImageFix"/>
<feColorMatrix in="SourceAlpha" type="matrix" values="0 0 0 0 0 0 0 0 0 0 0 0 0 0 0 0 0 0 127 0"/>
<feOffset/>
<feGaussianBlur stdDeviation="2"/>
<feColorMatrix type="matrix" values="0 0 0 0 0.164706 0 0 0 0 1 0 0 0 0 0.298039 0 0 0 1 0"/>
<feBlend mode="normal" in2="BackgroundImageFix" result="effect1_dropShadow"/>
<feBlend mode="normal" in="SourceGraphic" in2="effect1_dropShadow" result="shape"/>
</filter>
<filter id="filter3_d" x="403.457" y="451.052" width="9" height="112.647" filterUnits="userSpaceOnUse" color-interpolation-filters="sRGB">
<feFlood flood-opacity="0" result="BackgroundImageFix"/>
<feColorMatrix in="SourceAlpha" type="matrix" values="0 0 0 0 0 0 0 0 0 0 0 0 0 0 0 0 0 0 127 0"/>
<feOffset/>
<feGaussianBlur stdDeviation="2"/>
<feColorMatrix type="matrix" values="0 0 0 0 0.164706 0 0 0 0 1 0 0 0 0 1 0 0 0 1 0"/>
<feBlend mode="normal" in2="BackgroundImageFix" result="effect1_dropShadow"/>
<feBlend mode="normal" in="SourceGraphic" in2="effect1_dropShadow" result="shape"/>
</filter>
<filter id="filter4_d" x="518.679" y="225.714" width="9" height="112.647" filterUnits="userSpaceOnUse" color-interpolation-filters="sRGB">
<feFlood flood-opacity="0" result="BackgroundImageFix"/>
<feColorMatrix in="SourceAlpha" type="matrix" values="0 0 0 0 0 0 0 0 0 0 0 0 0 0 0 0 0 0 127 0"/>
<feOffset/>
<feGaussianBlur stdDeviation="2"/>
<feColorMatrix type="matrix" values="0 0 0 0 1 0 0 0 0 0.466667 0 0 0 0 0.164706 0 0 0 1 0"/>
<feBlend mode="normal" in2="BackgroundImageFix" result="effect1_dropShadow"/>
<feBlend mode="normal" in="SourceGraphic" in2="effect1_dropShadow" result="shape"/>
</filter>
<filter id="filter5_d" x="625.149" y="435.009" width="9" height="112.647" filterUnits="userSpaceOnUse" color-interpolation-filters="sRGB">
<feFlood flood-opacity="0" result="BackgroundImageFix"/>
<feColorMatrix in="SourceAlpha" type="matrix" values="0 0 0 0 0 0 0 0 0 0 0 0 0 0 0 0 0 0 127 0"/>
<feOffset/>
<feGaussianBlur stdDeviation="2"/>
<feColorMatrix type="matrix" values="0 0 0 0 0.164706 0 0 0 0 1 0 0 0 0 1 0 0 0 1 0"/>
<feBlend mode="normal" in2="BackgroundImageFix" result="effect1_dropShadow"/>
<feBlend mode="normal" in="SourceGraphic" in2="effect1_dropShadow" result="shape"/>
</filter>
<filter id="filter6_d" x="518.679" y="334.372" width="9" height="112.647" filterUnits="userSpaceOnUse" color-interpolation-filters="sRGB">
<feFlood flood-opacity="0" result="BackgroundImageFix"/>
<feColorMatrix in="SourceAlpha" type="matrix" values="0 0 0 0 0 0 0 0 0 0 0 0 0 0 0 0 0 0 127 0"/>
<feOffset/>
<feGaussianBlur stdDeviation="2"/>
<feColorMatrix type="matrix" values="0 0 0 0 0.164706 0 0 0 0 1 0 0 0 0 0.298039 0 0 0 1 0"/>
<feBlend mode="normal" in2="BackgroundImageFix" result="effect1_dropShadow"/>
<feBlend mode="normal" in="SourceGraphic" in2="effect1_dropShadow" result="shape"/>
</filter>
<filter id="filter7_d" x="625.149" y="556.064" width="9" height="100.615" filterUnits="userSpaceOnUse" color-interpolation-filters="sRGB">
<feFlood flood-opacity="0" result="BackgroundImageFix"/>
<feColorMatrix in="SourceAlpha" type="matrix" values="0 0 0 0 0 0 0 0 0 0 0 0 0 0 0 0 0 0 127 0"/>
<feOffset/>
<feGaussianBlur stdDeviation="2"/>
<feColorMatrix type="matrix" values="0 0 0 0 0.945098 0 0 0 0 0.160784 0 0 0 0 0.721569 0 0 0 1 0"/>
<feBlend mode="normal" in2="BackgroundImageFix" result="effect1_dropShadow"/>
<feBlend mode="normal" in="SourceGraphic" in2="effect1_dropShadow" result="shape"/>
</filter>
<filter id="filter8_d" x="518.679" y="451.052" width="9" height="112.647" filterUnits="userSpaceOnUse" color-interpolation-filters="sRGB">
<feFlood flood-opacity="0" result="BackgroundImageFix"/>
<feColorMatrix in="SourceAlpha" type="matrix" values="0 0 0 0 0 0 0 0 0 0 0 0 0 0 0 0 0 0 127 0"/>
<feOffset/>
<feGaussianBlur stdDeviation="2"/>
<feColorMatrix type="matrix" values="0 0 0 0 0.164706 0 0 0 0 1 0 0 0 0 1 0 0 0 1 0"/>
<feBlend mode="normal" in2="BackgroundImageFix" result="effect1_dropShadow"/>
<feBlend mode="normal" in="SourceGraphic" in2="effect1_dropShadow" result="shape"/>
</filter>
<filter id="filter9_d" x="625.149" y="666.911" width="9" height="112.283" filterUnits="userSpaceOnUse" color-interpolation-filters="sRGB">
<feFlood flood-opacity="0" result="BackgroundImageFix"/>
<feColorMatrix in="SourceAlpha" type="matrix" values="0 0 0 0 0 0 0 0 0 0 0 0 0 0 0 0 0 0 127 0"/>
<feOffset/>
<feGaussianBlur stdDeviation="2"/>
<feColorMatrix type="matrix" values="0 0 0 0 1 0 0 0 0 0.0941176 0 0 0 0 0.0941176 0 0 0 1 0"/>
<feBlend mode="normal" in2="BackgroundImageFix" result="effect1_dropShadow"/>
<feBlend mode="normal" in="SourceGraphic" in2="effect1_dropShadow" result="shape"/>
</filter>
<filter id="filter10_d" x="253.775" y="292.849" width="80.2824" height="80.2824" filterUnits="userSpaceOnUse" color-interpolation-filters="sRGB">
<feFlood flood-opacity="0" result="BackgroundImageFix"/>
<feColorMatrix in="SourceAlpha" type="matrix" values="0 0 0 0 0 0 0 0 0 0 0 0 0 0 0 0 0 0 127 0"/>
<feOffset/>
<feGaussianBlur stdDeviation="10"/>
<feColorMatrix type="matrix" values="0 0 0 0 1 0 0 0 0 0.466667 0 0 0 0 0.164706 0 0 0 1 0"/>
<feBlend mode="normal" in2="BackgroundImageFix" result="effect1_dropShadow"/>
<feBlend mode="normal" in="SourceGraphic" in2="effect1_dropShadow" result="shape"/>
</filter>
<filter id="filter11_d" x="367.538" y="292.849" width="80.2824" height="80.2824" filterUnits="userSpaceOnUse" color-interpolation-filters="sRGB">
<feFlood flood-opacity="0" result="BackgroundImageFix"/>
<feColorMatrix in="SourceAlpha" type="matrix" values="0 0 0 0 0 0 0 0 0 0 0 0 0 0 0 0 0 0 127 0"/>
<feOffset/>
<feGaussianBlur stdDeviation="10"/>
<feColorMatrix type="matrix" values="0 0 0 0 1 0 0 0 0 0.466667 0 0 0 0 0.164706 0 0 0 1 0"/>
<feBlend mode="normal" in2="BackgroundImageFix" result="effect1_dropShadow"/>
<feBlend mode="normal" in="SourceGraphic" in2="effect1_dropShadow" result="shape"/>
</filter>
<filter id="filter12_d" x="367.538" y="399.319" width="80.2824" height="80.2824" filterUnits="userSpaceOnUse" color-interpolation-filters="sRGB">
<feFlood flood-opacity="0" result="BackgroundImageFix"/>
<feColorMatrix in="SourceAlpha" type="matrix" values="0 0 0 0 0 0 0 0 0 0 0 0 0 0 0 0 0 0 127 0"/>
<feOffset/>
<feGaussianBlur stdDeviation="10"/>
<feColorMatrix type="matrix" values="0 0 0 0 0.164706 0 0 0 0 1 0 0 0 0 0.298039 0 0 0 1 0"/>
<feBlend mode="normal" in2="BackgroundImageFix" result="effect1_dropShadow"/>
<feBlend mode="normal" in="SourceGraphic" in2="effect1_dropShadow" result="shape"/>
</filter>
<filter id="filter13_d" x="367.538" y="519.646" width="80.2824" height="80.2824" filterUnits="userSpaceOnUse" color-interpolation-filters="sRGB">
<feFlood flood-opacity="0" result="BackgroundImageFix"/>
<feColorMatrix in="SourceAlpha" type="matrix" values="0 0 0 0 0 0 0 0 0 0 0 0 0 0 0 0 0 0 127 0"/>
<feOffset/>
<feGaussianBlur stdDeviation="10"/>
<feColorMatrix type="matrix" values="0 0 0 0 0.164706 0 0 0 0 1 0 0 0 0 1 0 0 0 1 0"/>
<feBlend mode="normal" in2="BackgroundImageFix" result="effect1_dropShadow"/>
<feBlend mode="normal" in="SourceGraphic" in2="effect1_dropShadow" result="shape"/>
</filter>
<filter id="filter14_d" x="482.03" y="292.849" width="80.2824" height="80.2824" filterUnits="userSpaceOnUse" color-interpolation-filters="sRGB">
<feFlood flood-opacity="0" result="BackgroundImageFix"/>
<feColorMatrix in="SourceAlpha" type="matrix" values="0 0 0 0 0 0 0 0 0 0 0 0 0 0 0 0 0 0 127 0"/>
<feOffset/>
<feGaussianBlur stdDeviation="10"/>
<feColorMatrix type="matrix" values="0 0 0 0 1 0 0 0 0 0.466667 0 0 0 0 0.164706 0 0 0 1 0"/>
<feBlend mode="normal" in2="BackgroundImageFix" result="effect1_dropShadow"/>
<feBlend mode="normal" in="SourceGraphic" in2="effect1_dropShadow" result="shape"/>
</filter>
<filter id="filter15_d" x="482.03" y="399.319" width="80.2824" height="80.2824" filterUnits="userSpaceOnUse" color-interpolation-filters="sRGB">
<feFlood flood-opacity="0" result="BackgroundImageFix"/>
<feColorMatrix in="SourceAlpha" type="matrix" values="0 0 0 0 0 0 0 0 0 0 0 0 0 0 0 0 0 0 127 0"/>
<feOffset/>
<feGaussianBlur stdDeviation="10"/>
<feColorMatrix type="matrix" values="0 0 0 0 0.164706 0 0 0 0 1 0 0 0 0 0.298039 0 0 0 1 0"/>
<feBlend mode="normal" in2="BackgroundImageFix" result="effect1_dropShadow"/>
<feBlend mode="normal" in="SourceGraphic" in2="effect1_dropShadow" result="shape"/>
</filter>
<filter id="filter16_d" x="589.23" y="519.646" width="80.2824" height="80.2824" filterUnits="userSpaceOnUse" color-interpolation-filters="sRGB">
<feFlood flood-opacity="0" result="BackgroundImageFix"/>
<feColorMatrix in="SourceAlpha" type="matrix" values="0 0 0 0 0 0 0 0 0 0 0 0 0 0 0 0 0 0 127 0"/>
<feOffset/>
<feGaussianBlur stdDeviation="10"/>
<feColorMatrix type="matrix" values="0 0 0 0 0.164706 0 0 0 0 1 0 0 0 0 1 0 0 0 1 0"/>
<feBlend mode="normal" in2="BackgroundImageFix" result="effect1_dropShadow"/>
<feBlend mode="normal" in="SourceGraphic" in2="effect1_dropShadow" result="shape"/>
</filter>
<filter id="filter17_d" x="589.23" y="630.491" width="80.2824" height="80.2824" filterUnits="userSpaceOnUse" color-interpolation-filters="sRGB">
<feFlood flood-opacity="0" result="BackgroundImageFix"/>
<feColorMatrix in="SourceAlpha" type="matrix" values="0 0 0 0 0 0 0 0 0 0 0 0 0 0 0 0 0 0 127 0"/>
<feOffset/>
<feGaussianBlur stdDeviation="10"/>
<feColorMatrix type="matrix" values="0 0 0 0 0.945098 0 0 0 0 0.160784 0 0 0 0 0.721569 0 0 0 1 0"/>
<feBlend mode="normal" in2="BackgroundImageFix" result="effect1_dropShadow"/>
<feBlend mode="normal" in="SourceGraphic" in2="effect1_dropShadow" result="shape"/>
</filter>
<filter id="filter18_d" x="567.353" y="712.897" width="123.864" height="123.864" filterUnits="userSpaceOnUse" color-interpolation-filters="sRGB">
<feFlood flood-opacity="0" result="BackgroundImageFix"/>
<feColorMatrix in="SourceAlpha" type="matrix" values="0 0 0 0 0 0 0 0 0 0 0 0 0 0 0 0 0 0 127 0"/>
<feOffset/>
<feGaussianBlur stdDeviation="10"/>
<feColorMatrix type="matrix" values="0 0 0 0 1 0 0 0 0 0.0941176 0 0 0 0 0.0941176 0 0 0 1 0"/>
<feBlend mode="normal" in2="BackgroundImageFix" result="effect1_dropShadow"/>
<feBlend mode="normal" in="SourceGraphic" in2="effect1_dropShadow" result="shape"/>
</filter>
<filter id="filter19_d" x="289.33" y="89.3718" width="120.153" height="139.967" filterUnits="userSpaceOnUse" color-interpolation-filters="sRGB">
<feFlood flood-opacity="0" result="BackgroundImageFix"/>
<feColorMatrix in="SourceAlpha" type="matrix" values="0 0 0 0 0 0 0 0 0 0 0 0 0 0 0 0 0 0 127 0"/>
<feOffset/>
<feGaussianBlur stdDeviation="2"/>
<feColorMatrix type="matrix" values="0 0 0 0 1 0 0 0 0 0.815686 0 0 0 0 0.164706 0 0 0 1 0"/>
<feBlend mode="normal" in2="BackgroundImageFix" result="effect1_dropShadow"/>
<feBlend mode="normal" in="SourceGraphic" in2="effect1_dropShadow" result="shape"/>
</filter>
<filter id="filter20_d" x="519.908" y="432.321" width="113.741" height="132.243" filterUnits="userSpaceOnUse" color-interpolation-filters="sRGB">
<feFlood flood-opacity="0" result="BackgroundImageFix"/>
<feColorMatrix in="SourceAlpha" type="matrix" values="0 0 0 0 0 0 0 0 0 0 0 0 0 0 0 0 0 0 127 0"/>
<feOffset/>
<feGaussianBlur stdDeviation="2"/>
<feColorMatrix type="matrix" values="0 0 0 0 0.164706 0 0 0 0 1 0 0 0 0 0.298039 0 0 0 1 0"/>
<feBlend mode="normal" in2="BackgroundImageFix" result="effect1_dropShadow"/>
<feBlend mode="normal" in="SourceGraphic" in2="effect1_dropShadow" result="shape"/>
</filter>
<filter id="filter21_d" x="401" y="89.5" width="126.679" height="143.12" filterUnits="userSpaceOnUse" color-interpolation-filters="sRGB">
<feFlood flood-opacity="0" result="BackgroundImageFix"/>
<feColorMatrix in="SourceAlpha" type="matrix" values="0 0 0 0 0 0 0 0 0 0 0 0 0 0 0 0 0 0 127 0"/>
<feOffset/>
<feGaussianBlur stdDeviation="2"/>
<feColorMatrix type="matrix" values="0 0 0 0 1 0 0 0 0 0.815686 0 0 0 0 0.164706 0 0 0 1 0"/>
<feBlend mode="normal" in2="BackgroundImageFix" result="effect1_dropShadow"/>
<feBlend mode="normal" in="SourceGraphic" in2="effect1_dropShadow" result="shape"/>
</filter>
<filter id="filter22_d" x="367.538" y="188.566" width="80.2824" height="80.2824" filterUnits="userSpaceOnUse" color-interpolation-filters="sRGB">
<feFlood flood-opacity="0" result="BackgroundImageFix"/>
<feColorMatrix in="SourceAlpha" type="matrix" values="0 0 0 0 0 0 0 0 0 0 0 0 0 0 0 0 0 0 127 0"/>
<feOffset/>
<feGaussianBlur stdDeviation="10"/>
<feColorMatrix type="matrix" values="0 0 0 0 1 0 0 0 0 0.816667 0 0 0 0 0.166667 0 0 0 1 0"/>
<feBlend mode="normal" in2="BackgroundImageFix" result="effect1_dropShadow"/>
<feBlend mode="normal" in="SourceGraphic" in2="effect1_dropShadow" result="shape"/>
</filter>
<filter id="filter23_d" x="482.03" y="188.566" width="80.2824" height="80.2824" filterUnits="userSpaceOnUse" color-interpolation-filters="sRGB">
<feFlood flood-opacity="0" result="BackgroundImageFix"/>
<feColorMatrix in="SourceAlpha" type="matrix" values="0 0 0 0 0 0 0 0 0 0 0 0 0 0 0 0 0 0 127 0"/>
<feOffset/>
<feGaussianBlur stdDeviation="10"/>
<feColorMatrix type="matrix" values="0 0 0 0 1 0 0 0 0 0.816667 0 0 0 0 0.166667 0 0 0 1 0"/>
<feBlend mode="normal" in2="BackgroundImageFix" result="effect1_dropShadow"/>
<feBlend mode="normal" in="SourceGraphic" in2="effect1_dropShadow" result="shape"/>
</filter>
<filter id="filter24_d" x="253.775" y="188.566" width="80.2824" height="80.2824" filterUnits="userSpaceOnUse" color-interpolation-filters="sRGB">
<feFlood flood-opacity="0" result="BackgroundImageFix"/>
<feColorMatrix in="SourceAlpha" type="matrix" values="0 0 0 0 0 0 0 0 0 0 0 0 0 0 0 0 0 0 127 0"/>
<feOffset/>
<feGaussianBlur stdDeviation="10"/>
<feColorMatrix type="matrix" values="0 0 0 0 1 0 0 0 0 0.816667 0 0 0 0 0.166667 0 0 0 1 0"/>
<feBlend mode="normal" in2="BackgroundImageFix" result="effect1_dropShadow"/>
<feBlend mode="normal" in="SourceGraphic" in2="effect1_dropShadow" result="shape"/>
</filter>
<filter id="filter25_d" x="589.23" y="399.319" width="80.2824" height="80.2824" filterUnits="userSpaceOnUse" color-interpolation-filters="sRGB">
<feFlood flood-opacity="0" result="BackgroundImageFix"/>
<feColorMatrix in="SourceAlpha" type="matrix" values="0 0 0 0 0 0 0 0 0 0 0 0 0 0 0 0 0 0 127 0"/>
<feOffset/>
<feGaussianBlur stdDeviation="10"/>
<feColorMatrix type="matrix" values="0 0 0 0 0.164706 0 0 0 0 1 0 0 0 0 0.298039 0 0 0 1 0"/>
<feBlend mode="normal" in2="BackgroundImageFix" result="effect1_dropShadow"/>
<feBlend mode="normal" in="SourceGraphic" in2="effect1_dropShadow" result="shape"/>
</filter>
<filter id="filter26_d" x="482.03" y="519.646" width="80.2824" height="80.2824" filterUnits="userSpaceOnUse" color-interpolation-filters="sRGB">
<feFlood flood-opacity="0" result="BackgroundImageFix"/>
<feColorMatrix in="SourceAlpha" type="matrix" values="0 0 0 0 0 0 0 0 0 0 0 0 0 0 0 0 0 0 127 0"/>
<feOffset/>
<feGaussianBlur stdDeviation="10"/>
<feColorMatrix type="matrix" values="0 0 0 0 0.164706 0 0 0 0 1 0 0 0 0 1 0 0 0 1 0"/>
<feBlend mode="normal" in2="BackgroundImageFix" result="effect1_dropShadow"/>
<feBlend mode="normal" in="SourceGraphic" in2="effect1_dropShadow" result="shape"/>
</filter>
</defs>
</svg>
