<svg width="626" height="830" viewBox="0 0 626 830" fill="none" xmlns="http://www.w3.org/2000/svg">
<g filter="url(#filter0_dddi)">
<rect x="299.544" y="151.261" width="277.654" height="581.249" rx="13" fill="#FBFBFB"/>
<path fill-rule="evenodd" clip-rule="evenodd" d="M286 185C286 159.043 307.043 138 333 138H375.75H505.507H546C571.957 138 593 159.043 593 185V698.77C593 724.727 571.957 745.77 546 745.77H333C307.043 745.77 286 724.727 286 698.77V185ZM362.75 151.261V158.151C362.75 165.331 368.57 171.151 375.75 171.151H505.507C512.687 171.151 518.507 165.331 518.507 158.151V151.261H542.198C561.528 151.261 577.198 166.931 577.198 186.261V697.51C577.198 716.84 561.528 732.51 542.198 732.51H334.544C315.214 732.51 299.544 716.84 299.544 697.51V186.261C299.544 166.931 315.214 151.261 334.544 151.261H362.75Z" fill="#F8F8F8"/>
<rect x="416.927" y="153.471" width="42.8897" height="6.63022" rx="2" fill="#C4C4C4"/>
</g>
<rect x="320" y="283" width="237" height="206" fill="#F0F0F0"/>
<path d="M320 505H557V694C557 703.389 549.389 711 540 711H337C327.611 711 320 703.389 320 694V505Z" fill="#F0F0F0"/>
<path d="M561.73 773.595C561.755 774.007 561.706 774.421 561.585 774.808C561.19 775.875 559.974 776.137 558.895 776.205C556.799 776.333 554.697 776.281 552.606 776.05C552.124 776.055 551.654 775.867 551.27 775.516C551.077 775.237 550.982 774.88 551.003 774.519C551.024 774.157 551.16 773.819 551.382 773.576C551.854 773.06 552.419 772.685 553.033 772.48C553.648 772.276 554.219 771.915 554.708 771.422C555.2 770.761 555.455 769.893 555.417 769.006C555.417 768.133 555.32 767.27 555.417 766.406C555.416 766.331 555.43 766.256 555.456 766.187C555.483 766.118 555.521 766.057 555.57 766.009C555.66 765.948 555.764 765.921 555.868 765.931C557.212 765.882 560.53 765.213 561.504 766.562C562.479 767.91 561.714 771.946 561.73 773.595Z" fill="#626262"/>
<path d="M593.942 726.064C594.267 725.827 594.638 725.678 595.025 725.629C595.56 725.677 596.064 725.923 596.454 726.327C598.238 727.85 599.777 729.689 601.008 731.768C601.686 732.893 602.306 734.371 601.835 735.659C600.041 736.103 598.132 736.566 596.438 735.659C595.877 735.288 595.294 734.958 594.694 734.67C594.338 734.546 593.962 734.505 593.59 734.55C593.218 734.596 592.86 734.726 592.537 734.933C591.917 735.323 591.33 736.012 590.644 735.913C590.204 735.79 589.818 735.501 589.553 735.097C588.578 733.809 587.404 731.115 588.347 729.51C589.289 727.905 592.595 726.889 593.942 726.064Z" fill="#626262"/>
<path d="M574.188 775.625L551 775.218V829.028H621V808.607H605.143V795.316H583.312V775.542L574.188 775.625Z" fill="#1E1E1E"/>
<path d="M502.037 61.8605C502.037 61.8605 498.958 59.5375 498.416 58.7193C497.874 57.9011 499.793 55.4293 499.229 54.8915C498.666 54.3536 496.579 53.2265 496.785 52.1508C496.991 51.0751 500.46 53.5469 502.037 54.7828C503.614 56.0187 505.045 59.3086 505.045 59.3086C505.045 59.3086 504.639 62.4785 502.037 61.8605Z" fill="#C58067"/>
<path d="M479.651 74.2994L545.601 22.7641L568.784 4.3231C568.784 4.3231 569.9 0.501007 566.556 0.792814C563.211 1.08462 451.421 80.1813 451.421 80.1813L443.253 87.6195L451.795 97.8098L479.651 74.2994Z" fill="#EAEAEA"/>
<path d="M479.651 74.2994L545.601 22.7641L568.784 4.3231C568.784 4.3231 569.9 0.501007 566.556 0.792814C563.211 1.08462 451.421 80.1813 451.421 80.1813L443.253 87.6195L451.795 97.8098L479.651 74.2994Z" fill="url(#paint0_linear)"/>
<path d="M533.752 47.4017C533.752 47.4017 539.714 45.4849 540.332 46.12C540.95 46.7551 535.633 86.538 535.362 88.2374C535.091 89.9367 526.228 89.3817 522.466 88.2374C519.961 87.4415 517.533 86.3974 515.214 85.1191C515.214 85.1191 519.55 48.7749 520.347 48.2084C521.144 47.642 526.992 47.1442 526.992 47.1442L533.752 47.4017Z" fill="url(#paint1_linear)"/>
<path d="M521.155 47.8367C520.223 48.1799 519.39 48.7711 518.737 49.5532C517.935 50.6975 511.485 64.3037 512.292 67.1359C513.1 69.9682 515.881 72.0451 516.688 71.4787C517.496 70.9122 519.008 65.7169 519.274 64.584C519.539 63.4512 520.065 59.7149 520.065 59.7149L521.155 47.8367Z" fill="#FFD02B"/>
<path d="M512.135 143.835C512.135 143.835 510.997 148.355 510.466 148.687C509.935 149.019 508.076 147.978 506.997 147.154C505.918 146.33 506.303 144.573 506.303 144.573L506.775 143.194L512.135 143.835Z" fill="#C58067"/>
<path d="M540.673 141.649C540.673 141.649 542.749 147.806 542.538 148.418C542.327 149.03 539.828 148.138 538.473 148.229C537.118 148.321 536.635 146.147 536.635 146.147L536.158 144.779L540.673 141.649Z" fill="#C58067"/>
<path d="M534.289 43.9972C534.289 43.9972 533.482 47.682 533.747 49.1009C534.013 50.5199 531.866 54.4908 529.178 54.4908C526.489 54.4908 526.468 49.6674 526.468 49.1009C526.468 48.5345 527.275 48.2541 527.01 46.8123C526.744 45.3704 534.018 42.2979 534.289 43.9972Z" fill="#C58067"/>
<path d="M527.036 46.8352C527.108 47.1666 527.107 47.5111 527.032 47.8418C526.956 48.1724 526.81 48.48 526.603 48.7406C527.192 49.3641 527.981 49.7333 528.814 49.7762C530.44 49.7762 532.841 48.3572 533.92 45.8053L533.974 45.6623C534.126 44.7296 534.289 43.9973 534.289 43.9973C534.018 42.2979 526.765 45.4163 527.036 46.8352Z" fill="#B6765E"/>
<path d="M533.697 48.5747C533.697 48.5747 531.529 53.9245 529.686 54.4909C529.686 54.4909 529.182 54.777 530.526 55.6353C531.871 56.4935 535.632 52.2023 535.096 49.1126C535.038 48.7154 534.885 48.3405 534.65 48.0239C534.416 47.7073 534.108 47.4596 533.757 47.3045L533.697 48.5747Z" fill="white"/>
<path d="M527.036 47.4016C527.036 47.4016 526.44 51.3381 527.947 54.0502C527.947 54.0502 527.302 55.0573 526.765 55.0573C526.229 55.0573 524.884 51.6528 525.421 49.101C525.735 47.6133 526.765 46.9954 527.036 47.4016Z" fill="white"/>
<path d="M535.362 88.2373L532.424 112.909L541.579 144.808C541.579 144.808 539.899 145.792 536.408 145.506L524.001 113.962L523.827 93.9362L519.795 111.233L512.07 144.962C512.07 144.962 508.141 145.872 505.826 144.115L510.932 111.233L515.231 85.1419L535.362 88.2373Z" fill="#424242"/>
<path d="M525.421 35.7752C525.421 35.7752 524.879 43.1447 525.421 45.1301C525.963 47.1156 527.589 48.8206 529.182 48.8206C530.776 48.8206 533.215 47.4017 534.288 44.8498C535.362 42.2979 535.914 36.0556 535.633 35.203C535.351 34.3505 533.741 31.6728 529.453 32.0847C526.494 32.3708 525.421 34.6366 525.421 35.7752Z" fill="#C58067"/>
<path d="M535.307 39.4086C535.226 39.5393 535.119 39.6492 534.993 39.7304C534.866 39.8116 534.724 39.8619 534.577 39.8778C534.43 39.8937 534.282 39.8748 534.143 39.8223C534.004 39.7698 533.877 39.6852 533.773 39.5745C533.576 39.3327 533.435 39.0468 533.359 38.7384C533.282 38.43 533.274 38.1074 533.334 37.7951C533.41 37.16 533.61 36.5478 533.648 35.9127C533.66 35.841 533.658 35.7675 533.642 35.6967C533.626 35.6259 533.597 35.5592 533.556 35.5007C533.502 35.4539 533.44 35.4195 533.373 35.3998C533.305 35.3801 533.235 35.3755 533.166 35.3863C532.353 35.3863 531.399 35.7467 530.835 35.1345C530.494 34.7741 530.396 34.1389 529.941 33.9902C529.567 33.8471 529.171 34.1161 528.819 34.3106C527.972 34.7651 526.994 34.8633 526.081 34.5852C525.985 34.5673 525.892 34.5292 525.809 34.4733C525.726 34.4173 525.655 34.3445 525.599 34.2591C525.539 34.1112 525.522 33.948 525.55 33.7899C525.608 33.2808 525.769 32.7907 526.023 32.3533C526.276 31.9159 526.616 31.5413 527.019 31.2552C527.706 30.8238 528.47 30.5471 529.263 30.4427C530.176 30.2707 531.097 30.158 532.022 30.1052C532.516 30.0357 533.018 30.1028 533.48 30.2997C533.911 30.5947 534.298 30.9552 534.629 31.3697C535.171 31.8846 535.827 32.2508 536.256 32.8802C536.581 33.3894 537.291 33.378 537.54 34.5967C537.752 35.6895 537.892 36.7938 538.082 37.8924C538.272 38.9909 537.827 40.1238 537.611 41.2167C537.161 43.4538 537.161 43.4538 536.391 44.2205C535.928 44.64 535.412 44.9886 534.857 45.2562C534.663 45.3944 534.425 45.4458 534.196 45.3992C533.979 45.3191 533.892 44.93 534.109 44.827" fill="#606161"/>
<path d="M534.402 40.553C534.402 40.553 534.673 38.8365 535.747 39.4086C536.82 39.9808 535.481 43.0934 534.939 43.3795C534.697 43.5346 534.42 43.6177 534.137 43.6198" fill="#C58067"/>
<path d="M517.361 69.1844L504.325 57.5636C504.325 57.5636 501.289 57.9355 501.148 61.7462C501.148 61.7462 507.138 69.6707 513.274 73.6587C515.924 75.381 518.006 69.8252 517.361 69.1844Z" fill="#FFD02B"/>
<path d="M516.688 71.4614L519.079 55.0573L516 72.7831L516.688 71.4614Z" fill="url(#paint2_linear)"/>
<path d="M501.035 146.65C500.356 146.828 499.725 147.169 499.192 147.646C498.932 147.893 498.76 148.227 498.706 148.591C498.652 148.956 498.718 149.329 498.894 149.649C499.112 149.878 499.375 150.055 499.664 150.168C499.953 150.282 500.261 150.329 500.568 150.307C503.728 150.534 506.9 150.469 510.049 150.112C510.173 150.106 510.293 150.068 510.401 150.003C510.558 149.883 511.1 149.534 511.127 149.328L511.539 146.061C510.574 146.25 509.084 146.565 508.114 146.387C506.862 146.153 506.368 144.854 505.16 145.105C503.783 145.397 502.373 146.181 501.035 146.65Z" fill="#202C40"/>
<path d="M532.44 147.68C531.761 147.858 531.131 148.199 530.597 148.676C530.337 148.921 530.165 149.254 530.11 149.618C530.056 149.982 530.123 150.355 530.299 150.673C530.517 150.903 530.78 151.081 531.068 151.195C531.357 151.31 531.666 151.358 531.974 151.336C535.133 151.564 538.305 151.498 541.454 151.142C541.578 151.135 541.699 151.098 541.806 151.033C541.963 150.913 543.064 150.329 543.085 150.123C543.226 149.036 542.392 147.44 542.289 146.69C541.324 146.885 540.489 147.617 539.519 147.44C538.267 147.205 537.773 145.901 536.565 146.158C535.188 146.427 533.779 147.211 532.44 147.68Z" fill="#202C40"/>
<path d="M545.574 26.5918C545.894 25.3382 545.894 24.0177 545.574 22.764C545.216 21.4711 544.592 20.2774 543.747 19.2681C542.903 18.9727 541.993 18.9587 541.14 19.228C539.964 19.7144 541.623 21.9401 541.471 22.9986C541.319 24.0571 540.354 21.1048 539.785 21.3622C539.216 21.6197 540.669 25.6878 541.753 26.197" fill="#C58067"/>
<path d="M534.186 60.8132C534.186 60.8132 538.213 59.7032 539.525 57.0884C540.837 54.4736 547.813 42.4351 547.607 39.6315C547.368 36.393 545.883 25.7564 545.883 25.7564C545.883 25.7564 545.72 24.8867 543.774 25.1499C541.829 25.4131 541.525 26.5918 541.525 26.5918L541.352 39.0822L535.422 50.5714C535.422 50.5714 532.999 58.473 534.186 60.8132Z" fill="#D7D7D7"/>
<path d="M479.651 74.2994L545.601 22.7641L568.784 4.3231C568.784 4.3231 569.9 0.501007 566.556 0.792814C563.211 1.08462 451.421 80.1813 451.421 80.1813L443.253 87.6195L451.795 97.8098L479.651 74.2994Z" fill="#EAEAEA"/>
<path d="M479.651 74.2994L545.601 22.7641L568.784 4.3231C568.784 4.3231 569.9 0.501007 566.556 0.792814C563.211 1.08462 451.421 80.1813 451.421 80.1813L443.253 87.6195L451.795 97.8098L479.651 74.2994Z" fill="url(#paint3_linear)"/>
<path d="M533.752 47.4017C533.752 47.4017 539.714 45.4849 540.332 46.12C540.95 46.7551 535.633 86.538 535.362 88.2374C535.091 89.9367 526.228 89.3817 522.466 88.2374C519.961 87.4415 517.533 86.3974 515.214 85.1191C515.214 85.1191 519.55 48.7749 520.347 48.2084C521.144 47.642 526.992 47.1442 526.992 47.1442L533.752 47.4017Z" fill="url(#paint4_linear)"/>
<path d="M540.673 141.649C540.673 141.649 542.749 147.806 542.538 148.418C542.327 149.03 539.828 148.138 538.473 148.229C537.118 148.321 536.635 146.147 536.635 146.147L536.158 144.779L540.673 141.649Z" fill="#C58067"/>
<path d="M534.289 43.9972C534.289 43.9972 533.482 47.682 533.747 49.1009C534.013 50.5199 531.866 54.4908 529.178 54.4908C526.489 54.4908 526.468 49.6674 526.468 49.1009C526.468 48.5345 527.275 48.2541 527.01 46.8123C526.744 45.3704 534.018 42.2979 534.289 43.9972Z" fill="#C58067"/>
<path d="M527.036 46.8352C527.108 47.1666 527.107 47.5111 527.032 47.8418C526.956 48.1724 526.81 48.48 526.603 48.7406C527.192 49.3641 527.981 49.7333 528.814 49.7762C530.44 49.7762 532.841 48.3572 533.92 45.8053L533.974 45.6623C534.126 44.7296 534.289 43.9973 534.289 43.9973C534.018 42.2979 526.765 45.4163 527.036 46.8352Z" fill="#B6765E"/>
<path d="M533.697 48.5747C533.697 48.5747 531.529 53.9245 529.686 54.4909C529.686 54.4909 529.182 54.777 530.526 55.6353C531.871 56.4935 535.632 52.2023 535.096 49.1126C535.038 48.7154 534.885 48.3405 534.65 48.0239C534.416 47.7073 534.108 47.4596 533.757 47.3045L533.697 48.5747Z" fill="white"/>
<path d="M527.036 47.4016C527.036 47.4016 526.44 51.3381 527.947 54.0502C527.947 54.0502 527.302 55.0573 526.765 55.0573C526.229 55.0573 524.884 51.6528 525.421 49.101C525.735 47.6133 526.765 46.9954 527.036 47.4016Z" fill="white"/>
<path d="M535.362 88.2373L532.424 112.909L541.579 144.808C541.579 144.808 539.899 145.792 536.408 145.506L524.001 113.962L523.827 93.9362L519.795 111.233L512.07 144.962C512.07 144.962 508.141 145.872 505.826 144.115L510.932 111.233L515.231 85.1419L535.362 88.2373Z" fill="#424242"/>
<path d="M525.421 35.7752C525.421 35.7752 524.879 43.1447 525.421 45.1301C525.963 47.1156 527.589 48.8206 529.182 48.8206C530.776 48.8206 533.215 47.4017 534.288 44.8498C535.362 42.2979 535.914 36.0556 535.633 35.203C535.351 34.3505 533.741 31.6728 529.453 32.0847C526.494 32.3708 525.421 34.6366 525.421 35.7752Z" fill="#A78578"/>
<path d="M535.307 39.4086C535.226 39.5393 535.119 39.6492 534.993 39.7304C534.866 39.8116 534.724 39.8619 534.577 39.8778C534.43 39.8937 534.282 39.8748 534.143 39.8223C534.004 39.7698 533.877 39.6852 533.773 39.5745C533.576 39.3327 533.435 39.0468 533.359 38.7384C533.282 38.43 533.274 38.1074 533.334 37.7951C533.41 37.16 533.61 36.5478 533.648 35.9127C533.66 35.841 533.658 35.7675 533.642 35.6967C533.626 35.6259 533.597 35.5592 533.556 35.5007C533.502 35.4539 533.44 35.4195 533.373 35.3998C533.305 35.3801 533.235 35.3755 533.166 35.3863C532.353 35.3863 531.399 35.7467 530.835 35.1345C530.494 34.7741 530.396 34.1389 529.941 33.9902C529.567 33.8471 529.171 34.1161 528.819 34.3106C527.972 34.7651 526.994 34.8633 526.081 34.5852C525.985 34.5673 525.892 34.5292 525.809 34.4733C525.726 34.4173 525.655 34.3445 525.599 34.2591C525.539 34.1112 525.522 33.948 525.55 33.7899C525.608 33.2808 525.769 32.7907 526.023 32.3533C526.276 31.9159 526.616 31.5413 527.019 31.2552C527.706 30.8238 528.47 30.5471 529.263 30.4427C530.176 30.2707 531.097 30.158 532.022 30.1052C532.516 30.0357 533.018 30.1028 533.48 30.2997C533.911 30.5947 534.298 30.9552 534.629 31.3697C535.171 31.8846 535.827 32.2508 536.256 32.8802C536.581 33.3894 537.291 33.378 537.54 34.5967C537.752 35.6895 537.892 36.7938 538.082 37.8924C538.272 38.9909 537.827 40.1238 537.611 41.2167C537.161 43.4538 537.161 43.4538 536.391 44.2205C535.928 44.64 535.412 44.9886 534.857 45.2562C534.663 45.3944 534.425 45.4458 534.196 45.3992C533.979 45.3191 533.892 44.93 534.109 44.827" fill="#606161"/>
<path d="M534.402 40.553C534.402 40.553 534.673 38.8365 535.747 39.4086C536.82 39.9808 535.481 43.0934 534.939 43.3795C534.697 43.5346 534.42 43.6177 534.137 43.6198" fill="#C58067"/>
<path d="M532.44 147.68C531.761 147.858 531.131 148.199 530.597 148.676C530.337 148.921 530.165 149.254 530.11 149.618C530.056 149.982 530.123 150.355 530.299 150.673C530.517 150.903 530.78 151.081 531.068 151.195C531.357 151.31 531.666 151.358 531.974 151.336C535.133 151.564 538.305 151.498 541.454 151.142C541.578 151.135 541.699 151.098 541.806 151.033C541.963 150.913 543.064 150.329 543.085 150.123C543.226 149.036 542.392 147.44 542.289 146.69C541.324 146.885 540.489 147.617 539.519 147.44C538.267 147.205 537.773 145.901 536.565 146.158C535.188 146.427 533.779 147.211 532.44 147.68Z" fill="#202C40"/>
<path d="M545.574 26.5918C545.894 25.3382 545.894 24.0177 545.574 22.764C545.216 21.4711 544.592 20.2774 543.747 19.2681C542.903 18.9727 541.993 18.9587 541.14 19.228C539.964 19.7144 541.623 21.9401 541.471 22.9986C541.319 24.0571 540.354 21.1048 539.785 21.3622C539.216 21.6197 540.669 25.6878 541.753 26.197" fill="#C58067"/>
<path d="M534.186 60.8132C534.186 60.8132 538.213 59.7032 539.525 57.0884C540.837 54.4736 547.813 42.4351 547.607 39.6315C547.368 36.393 545.883 25.7564 545.883 25.7564C545.883 25.7564 545.72 24.8867 543.774 25.1499C541.829 25.4131 541.525 26.5918 541.525 26.5918L541.352 39.0822L535.422 50.5714C535.422 50.5714 532.999 58.473 534.186 60.8132Z" fill="url(#paint5_linear)"/>
<path d="M448.251 82.6703C446.527 82.7505 445.541 84.7416 444.142 85.8001C443.134 86.5611 441.871 86.8357 440.771 87.448C439.67 88.0602 438.662 89.2503 438.911 90.532C439.077 91.1472 439.382 91.7107 439.8 92.1741L446.18 100.425C446.565 100.928 447.102 101.483 447.692 101.312C447.893 101.234 448.077 101.115 448.234 100.963L455.498 94.7775C456.213 94.171 457.005 93.3871 456.902 92.4258C456.783 91.8418 456.498 91.3104 456.083 90.9039C454.143 88.5809 451.649 82.6703 448.251 82.6703Z" fill="#EAEAEA"/>
<path d="M448.251 82.6703C446.527 82.7505 445.541 84.7416 444.142 85.8001C443.134 86.5611 441.871 86.8357 440.771 87.448C439.67 88.0602 438.662 89.2503 438.911 90.532C439.077 91.1472 439.382 91.7107 439.8 92.1741L446.18 100.425C446.565 100.928 447.102 101.483 447.692 101.312C447.893 101.234 448.077 101.115 448.234 100.963L455.498 94.7775C456.213 94.171 457.005 93.3871 456.902 92.4258C456.783 91.8418 456.498 91.3104 456.083 90.9039C454.143 88.5809 451.649 82.6703 448.251 82.6703Z" fill="url(#paint6_linear)" fill-opacity="0.56"/>
<path d="M448.251 82.6703C446.527 82.7505 445.541 84.7416 444.142 85.8001C443.134 86.5611 441.871 86.8357 440.771 87.448C439.67 88.0602 438.662 89.2503 438.911 90.532C439.077 91.1472 439.382 91.7107 439.8 92.1741L446.18 100.425C446.565 100.928 447.102 101.483 447.692 101.312C447.893 101.234 448.077 101.115 448.234 100.963L455.498 94.7775C456.213 94.171 457.005 93.3871 456.902 92.4258C456.783 91.8418 456.498 91.3104 456.083 90.9039C454.143 88.5809 451.649 82.6703 448.251 82.6703Z" fill="url(#paint7_linear)" fill-opacity="0.56"/>
<path d="M433.582 93.2497C431.929 95.3153 430.785 97.7756 429.484 100.116C428.183 102.456 426.639 104.739 424.606 106.41C422.573 108.08 419.896 109.053 417.354 108.561L418.627 111.01C425.082 111.723 431.605 111.161 437.864 109.351C440.618 108.555 443.409 107.451 445.42 105.345C447.431 103.24 448.472 99.7954 447.236 97.0833C446 94.3712 442.97 93.0266 441.084 90.7894C439.935 89.4219 439.599 89.2388 437.832 89.9655C436.178 90.6698 434.718 91.7987 433.582 93.2497Z" fill="#FBFBFB"/>
<path d="M428.293 104.155C428.301 104.051 428.287 103.946 428.254 103.847C428.22 103.748 428.167 103.658 428.098 103.583C427.806 103.343 427.415 103.663 427.144 103.921C425.518 105.471 423.166 105.563 421.008 105.78C418.851 105.998 416.401 106.644 415.415 108.681C414.873 109.757 414.873 111.021 414.905 112.228C414.905 114.214 414.948 116.234 415.653 118.093C415.875 118.665 416.396 119.335 416.949 119.089C417.091 118.996 417.213 118.873 417.306 118.727C417.399 118.581 417.462 118.416 417.491 118.242C417.816 117.161 418.033 115.988 418.743 115.135C419.827 113.836 421.681 113.733 423.318 113.516C426.024 113.171 428.638 112.257 431.004 110.827C431.6 110.46 432.267 109.865 432.088 109.156C431.909 108.446 430.906 108.252 430.196 108.492C429.486 108.733 428.808 109.219 428.087 109.064C428.12 108.292 427.903 107.525 427.957 106.776C427.995 105.872 428.353 105.071 428.293 104.155Z" fill="#EAEAEA"/>
<path d="M428.293 104.155C428.301 104.051 428.287 103.946 428.254 103.847C428.22 103.748 428.167 103.658 428.098 103.583C427.806 103.343 427.415 103.663 427.144 103.921C425.518 105.471 423.166 105.563 421.008 105.78C418.851 105.998 416.401 106.644 415.415 108.681C414.873 109.757 414.873 111.021 414.905 112.228C414.905 114.214 414.948 116.234 415.653 118.093C415.875 118.665 416.396 119.335 416.949 119.089C417.091 118.996 417.213 118.873 417.306 118.727C417.399 118.581 417.462 118.416 417.491 118.242C417.816 117.161 418.033 115.988 418.743 115.135C419.827 113.836 421.681 113.733 423.318 113.516C426.024 113.171 428.638 112.257 431.004 110.827C431.6 110.46 432.267 109.865 432.088 109.156C431.909 108.446 430.906 108.252 430.196 108.492C429.486 108.733 428.808 109.219 428.087 109.064C428.12 108.292 427.903 107.525 427.957 106.776C427.995 105.872 428.353 105.071 428.293 104.155Z" fill="url(#paint8_linear)"/>
<path d="M418.358 109.877C419.137 109.094 420.059 108.487 421.068 108.092C422.613 107.427 424.238 106.996 425.897 106.81C426.392 106.806 426.878 106.678 427.317 106.438C427.424 106.392 427.521 106.323 427.603 106.237C427.685 106.151 427.75 106.049 427.794 105.936C427.838 105.823 427.861 105.703 427.861 105.581C427.861 105.459 427.839 105.338 427.794 105.225C427.75 105.112 427.686 105.01 427.604 104.924C427.522 104.837 427.425 104.769 427.319 104.722C427.212 104.675 427.098 104.651 426.982 104.651C426.867 104.651 426.752 104.675 426.645 104.722C426.261 104.861 425.897 105.053 425.561 105.294C424.06 106.146 422.282 106.192 420.596 106.438C418.91 106.684 417.1 107.365 416.26 108.927C415.718 109.974 415.664 111.216 415.664 112.446C415.593 114.064 415.754 115.684 416.141 117.252C416.211 117.487 416.357 117.767 416.59 117.744C416.713 117.713 416.82 117.633 416.889 117.521C417.875 116.222 416.948 115.038 416.948 113.619C416.946 112.227 417.451 110.887 418.358 109.877Z" fill="#D9B020"/>
<path d="M418.26 120.634C417.398 121.034 417.176 122.19 417.078 123.174C416.915 124.735 416.905 126.309 417.051 127.872C417.053 128.212 417.121 128.549 417.25 128.86C417.38 129.172 417.568 129.453 417.804 129.685C418.035 129.842 418.301 129.932 418.575 129.946C418.849 129.96 419.122 129.898 419.365 129.765C419.854 129.492 420.25 129.064 420.498 128.541C421.431 126.756 420.688 125.365 420.449 123.557C420.303 122.493 419.826 119.907 418.26 120.634Z" fill="url(#paint9_linear)"/>
<path d="M415.252 120.96C415.017 121.023 414.799 121.143 414.616 121.309C414.433 121.476 414.288 121.686 414.195 121.921C414.104 122.076 414.043 122.248 414.016 122.428C413.989 122.608 413.996 122.791 414.037 122.968C414.124 123.195 414.287 123.379 414.496 123.485C414.705 123.591 414.943 123.611 415.165 123.54C415.378 123.454 415.565 123.307 415.703 123.115C415.841 122.923 415.925 122.693 415.945 122.453C415.982 121.967 415.842 121.485 415.555 121.103" fill="#FFD02B"/>
<g filter="url(#filter1_d)">
<rect x="506.616" y="567" width="56" height="56" rx="10" transform="rotate(15.1298 506.616 567)" fill="#DFDFDF"/>
</g>
<path d="M570.119 743.679C570.648 744.523 571.4 745.179 572.279 745.566C573.163 745.768 574.083 745.689 574.925 745.338C581.448 743.242 587.337 739.346 592 734.044C591.399 732.62 590.612 731.294 589.661 730.107C586.629 731.419 583.41 732.168 580.142 732.322C579.697 732.383 579.245 732.301 578.844 732.085C578.572 731.862 578.353 731.575 578.204 731.246C576.667 728.457 575.244 725.601 573.935 722.678C572.228 718.804 570.52 714.574 567.105 712.304C566.803 712.065 566.44 711.929 566.064 711.912C565.674 711.966 565.307 712.136 565.005 712.405C562.444 714.228 559.575 716.324 558.397 719.533C557.381 722.267 558.483 724.018 559.806 726.36C563.195 732.258 566.021 738.256 570.119 743.679Z" fill="#1E1E1E"/>
<path d="M557.141 770.998C559.458 770.281 561.061 767.844 561.683 765.287C562.304 762.731 563.261 755.171 563.11 752.551C562.387 739.979 562.685 727.361 564 714.847C564.075 714.148 549.888 710.065 548.553 710.994C545.371 713.201 547.982 723.924 548.486 727.381C550.425 740.642 553.221 758.298 557.141 770.998Z" fill="#1E1E1E"/>
<path d="M543.034 665.547C543.034 666.513 543.111 667.597 543.883 668.224C544.215 668.467 544.609 668.613 545.019 668.646C545.43 668.679 545.842 668.598 546.209 668.411C546.938 668.028 547.558 667.465 548.008 666.776C548.567 666.026 549.029 665.209 549.383 664.344C549.853 663.193 550.059 661.951 549.986 660.71C549.959 660.075 549.803 659.452 549.527 658.88C549.198 658.302 548.716 657.826 548.133 657.503C547.551 657.18 546.891 657.024 546.226 657.05C544.876 657.101 542.975 657.982 543 659.481C543 661.498 543.009 663.522 543.034 665.547Z" fill="url(#paint10_linear)"/>
<path d="M545.714 671.819C545.896 672.448 545.991 673.287 545.446 673.597C545.21 673.706 544.95 673.747 544.694 673.716C543.979 673.669 543.263 673.782 542.593 674.047C541.922 674.313 541.313 674.726 540.804 675.258C540.069 676.223 539.637 677.406 539.568 678.642C539.455 679.855 539.498 681.087 539.334 682.291C539.075 684.115 535.012 687.135 534.718 686.305C534.044 684.297 533.836 682.148 534.113 680.038C534.208 679.308 534.277 678.405 533.698 678.022C533.356 677.848 532.966 677.809 532.6 677.912C531.468 678.097 530.373 678.476 529.358 679.034C529.773 680.111 527.853 689.689 528.009 692.042C528.614 701.31 539.447 693.867 541.288 692.799C541.798 692.517 542.36 691.951 542.153 691.395C542.593 694.87 543.199 698.574 543.64 702.049C544.02 705.023 544.452 708.143 546.129 710.569C547.508 712.394 549.326 713.793 551.394 714.62C555.994 716.672 561.613 716.845 565.702 713.835C566.546 713.282 567.223 712.488 567.656 711.545C567.954 710.619 568.06 709.636 567.967 708.663C567.774 702.451 567.009 696.274 565.685 690.218C564.656 685.493 563.091 680.576 559.59 677.447C556.253 674.51 550.054 672.339 545.714 671.819Z" fill="#FFD02B"/>
<path d="M550.077 645.441C551.489 645.432 552.888 645.733 554.184 646.327C555.48 646.92 556.647 647.793 557.608 648.89C559.52 651.103 560.975 653.715 561.88 656.558C562.744 659.035 563.453 661.649 564.941 663.777C566.947 666.657 570.129 668.272 572.982 670.198C575.835 672.124 578.637 674.784 579.035 678.38C579.251 680.361 578.663 682.37 578.888 684.342C579.164 686.745 580.617 689.185 579.7 691.414C579.345 692.218 578.793 692.905 578.101 693.404C576.694 694.462 575.013 695.031 573.289 695.031C571.565 695.031 569.883 694.462 568.477 693.404C565.503 691.056 564.361 686.828 561.612 684.186C558.594 681.288 554.176 680.746 550.769 678.398C548.956 677.126 547.479 675.385 546.477 673.338C545.476 671.292 544.983 669.008 545.045 666.703C545.105 665.006 545.477 663.273 545.045 661.64C544.612 660.007 543.514 658.815 543.142 657.246C542.676 655.32 543.454 651.743 544.076 649.853C544.889 647.23 547.569 645.579 550.077 645.441Z" fill="#3E3E54"/>
<path d="M533.729 678.034C533.545 676.113 532.782 674.304 531.553 672.874L531.007 673.441H527.546L527 675.687L528.253 677.576C529.006 678.246 529.939 678.65 530.921 678.732C531.904 678.814 532.885 678.57 533.729 678.034Z" fill="url(#paint11_linear)"/>
<g filter="url(#filter2_d)">
<path d="M326.565 187.265C328.479 178.073 337.482 172.173 346.673 174.087L545.411 215.467C554.603 217.381 560.503 226.384 558.589 235.575L546.97 291.379L314.946 243.068L326.565 187.265Z" fill="#F0F0F0"/>
</g>
<g filter="url(#filter3_d)">
<path opacity="0.19" d="M403.912 248.888C404.414 249.904 404.843 251.12 405.832 251.547C406.155 251.63 406.46 251.78 406.728 251.989C407.078 252.36 406.996 252.981 406.899 253.492C406.464 255.798 406.028 258.101 405.591 260.401C405.348 261.694 405.011 263.103 404.037 263.883C403.591 264.24 403.066 264.412 402.601 264.756C402.361 264.902 402.172 265.132 402.065 265.406C401.958 265.681 401.938 265.985 402.01 266.271C404.075 266.771 406.03 267.686 407.775 268.968L396.617 266.56C396.329 266.527 396.057 266.404 395.835 266.206C395.513 265.846 395.577 265.267 395.67 264.774C396.047 262.799 396.514 260.845 397.033 258.908C397.43 257.634 397.73 256.329 397.931 255.006C398.132 253.331 397.966 251.57 398.606 250.024C399.632 247.526 402.48 245.988 403.912 248.888Z" fill="url(#paint12_linear)"/>
<path d="M365.133 424.566C365.392 424.628 365.67 424.546 365.907 424.338C366.144 424.13 366.32 423.813 366.396 423.457L395.651 287.224C395.727 286.868 395.698 286.502 395.569 286.207C395.44 285.911 395.222 285.711 394.964 285.649C394.705 285.587 394.426 285.669 394.19 285.877C393.953 286.085 393.777 286.402 393.7 286.758L364.449 422.977C364.372 423.333 364.402 423.699 364.531 423.995C364.66 424.29 364.877 424.491 365.136 424.552L365.133 424.566Z" fill="#282828"/>
<path d="M383.176 428.879C383.564 428.972 383.967 428.919 384.295 428.733C384.624 428.547 384.851 428.242 384.927 427.886L414.182 291.654C414.258 291.298 414.177 290.92 413.957 290.602C413.737 290.285 413.395 290.055 413.007 289.962C412.619 289.869 412.216 289.922 411.888 290.108C411.56 290.294 411.332 290.598 411.256 290.954L382.004 427.174C381.928 427.53 382.009 427.908 382.229 428.225C382.449 428.542 382.791 428.773 383.179 428.866L383.176 428.879Z" fill="#282828"/>
<path d="M411.065 301.398L392.534 296.968L391.871 300.055L410.402 304.485L411.065 301.398Z" fill="#282828"/>
<path d="M406.645 321.978L388.114 317.548L387.451 320.635L405.982 325.065L406.645 321.978Z" fill="#282828"/>
<path d="M402.446 341.529L383.916 337.099L383.253 340.187L401.783 344.616L402.446 341.529Z" fill="#282828"/>
<path d="M398.248 361.081L379.718 356.651L379.055 359.738L397.585 364.168L398.248 361.081Z" fill="#282828"/>
<path d="M394.05 380.632L375.52 376.202L374.857 379.289L393.387 383.719L394.05 380.632Z" fill="#282828"/>
<path d="M389.63 401.212L371.1 396.782L370.437 399.869L388.967 404.299L389.63 401.212Z" fill="#282828"/>
<path d="M365.133 424.566C365.392 424.628 365.67 424.546 365.907 424.338C366.144 424.13 366.32 423.813 366.396 423.457L395.651 287.224C395.727 286.868 395.698 286.502 395.569 286.207C395.44 285.911 395.222 285.711 394.964 285.649C394.705 285.587 394.426 285.669 394.19 285.877C393.953 286.085 393.777 286.402 393.7 286.758L364.449 422.977C364.372 423.333 364.402 423.699 364.531 423.995C364.66 424.29 364.877 424.491 365.136 424.552L365.133 424.566Z" fill="url(#paint13_linear)"/>
<path d="M383.176 428.879C383.564 428.972 383.967 428.919 384.295 428.733C384.624 428.547 384.851 428.242 384.927 427.886L414.182 291.654C414.258 291.298 414.177 290.92 413.957 290.602C413.737 290.285 413.395 290.055 413.007 289.962C412.619 289.869 412.216 289.922 411.888 290.108C411.56 290.294 411.332 290.598 411.256 290.954L382.004 427.174C381.928 427.53 382.009 427.908 382.229 428.225C382.449 428.542 382.791 428.773 383.179 428.866L383.176 428.879Z" fill="url(#paint14_linear)"/>
<path d="M411.065 301.398L392.534 296.968L391.871 300.055L410.402 304.485L411.065 301.398Z" fill="url(#paint15_linear)"/>
<path d="M406.645 321.978L388.114 317.548L387.451 320.635L405.982 325.065L406.645 321.978Z" fill="url(#paint16_linear)"/>
<path d="M402.446 341.529L383.916 337.099L383.253 340.187L401.783 344.616L402.446 341.529Z" fill="url(#paint17_linear)"/>
<path d="M398.248 361.081L379.718 356.651L379.055 359.738L397.585 364.168L398.248 361.081Z" fill="url(#paint18_linear)"/>
<path d="M394.05 380.632L375.52 376.202L374.857 379.289L393.387 383.719L394.05 380.632Z" fill="url(#paint19_linear)"/>
<path d="M389.63 401.212L371.1 396.782L370.437 399.869L388.967 404.299L389.63 401.212Z" fill="url(#paint20_linear)"/>
<path d="M379.029 281.707C379.029 281.707 377.079 281.806 376.268 280.405C375.457 279.005 376.796 275.449 376.796 275.449L401.216 254.688L400.065 261.89L379.029 281.707Z" fill="url(#paint21_linear)"/>
<path d="M405.712 288.123C405.712 288.123 407.614 292.898 409.381 293.422C411.148 293.946 426.32 276.083 426.32 276.083L429.098 274.713C429.098 274.713 424.161 272.605 423.255 273.441C422.349 274.277 411.384 286.364 411.384 286.364L410.382 285.48L405.712 288.123Z" fill="url(#paint22_linear)"/>
<path d="M379.203 303.62C379.203 303.62 377.11 309.158 377.462 311.728C377.813 314.299 382.346 330.22 382.346 330.22L375.752 351.376L381.906 352.847L389.519 331.934L389.658 314.644L395.642 306.366L379.203 303.62Z" fill="#25233A"/>
<path d="M383.688 312.106L391.965 338.736L389.78 356.893L396.08 356.85L399.754 334.87L396.917 306.671L383.671 304.813C383.671 304.813 382.915 309.903 383.688 312.106Z" fill="#1E1E1E"/>
<path d="M389.941 356.791C389.941 356.791 389.674 361.803 389.95 362.237C390.226 362.672 393.127 362.643 393.127 362.643L398.293 360.874C398.293 360.874 398.59 359.489 394.988 359.482C394.988 359.482 393.441 359.204 393.841 356.781L389.941 356.791Z" fill="url(#paint23_linear)"/>
<path d="M382.198 352.916L381.331 354.717L384.577 357.895C384.577 357.895 384.297 358.461 382.917 358.412C381.536 358.363 375.735 356.523 375.764 355.985C375.793 355.447 377.177 354.051 377.298 353.891C377.418 353.731 378.229 351.968 378.229 351.968L382.198 352.916Z" fill="url(#paint24_linear)"/>
<path d="M392.664 265.718C392.664 265.718 386.705 265.764 385.538 267.452C384.371 269.141 376.906 273.502 376.566 275.844C376.226 278.185 379.847 282.172 379.847 282.172L383.798 279.719L379.475 301.642C379.37 302.172 379.431 302.724 379.648 303.223C379.864 303.721 380.227 304.14 380.685 304.422C382.96 305.817 385.633 306.286 389.255 305.956C394.411 305.488 397.182 306.321 397.182 306.321L401.329 282.949L404.126 289.069L410.32 285.765C410.32 285.765 405.381 271.254 404.244 270.154C403.106 269.055 397.449 266.769 397.449 266.769C397.449 266.769 394.523 267.748 392.664 265.718Z" fill="#282828"/>
<path d="M392.846 265.695C392.846 265.695 386.886 265.741 385.719 267.43C384.553 269.118 377.088 273.48 376.748 275.821C376.408 278.162 380.029 282.149 380.029 282.149L383.98 279.696L379.656 301.619C379.552 302.149 379.612 302.702 379.829 303.2C380.046 303.698 380.409 304.118 380.866 304.4C383.142 305.794 385.815 306.263 389.437 305.934C394.593 305.465 397.364 306.298 397.364 306.298L401.511 282.926L404.307 289.047L410.502 285.742C410.502 285.742 405.563 271.231 404.425 270.132C403.288 269.032 397.63 266.747 397.63 266.747C397.63 266.747 394.705 267.725 392.846 265.695Z" fill="url(#paint25_linear)"/>
<path d="M403.295 253.527C403.235 255.269 403.058 257.003 402.764 258.716C402.694 259.368 402.52 260.001 402.25 260.593C402.111 260.887 401.908 261.145 401.655 261.346C401.403 261.546 401.107 261.686 400.792 261.752C400.402 261.749 400.013 261.787 399.632 261.864C399.336 261.99 399.096 262.22 398.956 262.513C398.728 263.078 398.598 263.681 398.573 264.295C398.537 264.91 398.276 265.485 397.842 265.909C397.48 266.153 397.054 266.284 396.616 266.286C395.563 266.362 394.503 266.154 393.544 265.682C393.39 265.618 393.253 265.518 393.143 265.39C393.037 265.217 392.975 265.02 392.965 264.818C392.844 263.592 392.798 262.361 392.83 261.132C392.771 259.391 392.88 257.65 393.153 255.936C393.432 254.212 394.229 252.626 395.435 251.395C396.68 250.217 398.516 249.607 400.167 250.119C401.072 250.457 401.916 250.95 402.661 251.577C403.281 252.081 403.309 252.725 403.295 253.527Z" fill="url(#paint26_linear)"/>
<path d="M390.713 360.07C391.641 360.087 392.349 359.406 393.198 359.099C393.397 359.021 393.615 358.985 393.837 358.994C394.084 359.035 394.326 359.104 394.558 359.199C395.167 359.398 395.816 359.417 396.44 359.567C396.75 359.64 397.052 359.746 397.34 359.88C397.649 360.01 397.917 360.217 398.112 360.476C398.209 360.606 398.262 360.757 398.265 360.911C398.269 361.064 398.222 361.211 398.13 361.334C397.992 361.47 397.816 361.57 397.619 361.622C395.999 362.18 394.366 362.731 392.719 363.277C392.228 363.468 391.702 363.585 391.16 363.623C390.654 363.632 390.146 363.501 389.703 363.245C389.522 363.153 389.37 363.015 389.266 362.849C389.194 362.701 389.156 362.542 389.155 362.383C389.105 361.797 388.954 360.931 389.197 360.385C389.44 359.84 390.184 360.063 390.713 360.07Z" fill="#1E1E1E"/>
<path d="M376.737 354.373L375.804 356.191C375.719 356.314 375.658 356.455 375.626 356.605C375.594 356.755 375.591 356.91 375.617 357.06C375.723 357.277 375.896 357.441 376.106 357.523C376.58 357.803 377.075 358.038 377.587 358.224C378.375 358.479 379.209 358.5 380.001 358.715C380.901 358.961 381.76 359.462 382.687 359.408C383.259 359.335 383.819 359.159 384.344 358.886L385.32 358.44C385.398 358.416 385.466 358.362 385.512 358.287C385.568 358.173 385.507 358.036 385.438 357.932C384.936 357.17 384.095 356.8 383.389 356.269C382.744 355.782 382.201 355.146 381.798 354.404C381.726 354.235 381.61 354.095 381.465 354.003C381.217 353.882 380.937 354.081 380.678 354.187C380.161 354.351 379.615 354.329 379.119 354.125C378.746 353.97 378.781 353.744 378.603 353.405C378.042 352.368 377.051 353.759 376.737 354.373Z" fill="#1E1E1E"/>
</g>
<g filter="url(#filter4_dddi)">
<rect x="53" y="387" width="399" height="299" rx="2" fill="#FBFBFB"/>
<path fill-rule="evenodd" clip-rule="evenodd" d="M49 363C46.7909 363 45 364.791 45 367V689C45 691.209 46.7909 693 49 693H456C458.209 693 460 691.209 460 689V367C460 364.791 458.209 363 456 363H49ZM55 387C53.8954 387 53 387.895 53 389V682C53 683.105 53.8954 684 55 684H450C451.105 684 452 683.105 452 682V389C452 387.895 451.105 387 450 387H55Z" fill="#F9F9F9"/>
<rect x="99" y="369" width="352" height="13" rx="5" fill="white"/>
<circle cx="57" cy="376" r="4" fill="#F96B63"/>
<circle cx="69" cy="376" r="4" fill="#F9BE3C"/>
<circle cx="81" cy="376" r="4" fill="#39CA4D"/>
</g>
<path d="M436.392 395.744H81V469.69H436.392V395.744Z" fill="#F0F0F0"/>
<path d="M242 479.097H81V681.676H242V479.097Z" fill="url(#paint27_linear)"/>
<path d="M433.525 479.129H253.837V528.867H433.525V479.129Z" fill="url(#paint28_linear)"/>
<path d="M433.525 538.306H253.837V588.044H433.525V538.306Z" fill="url(#paint29_linear)"/>
<path d="M433.525 634.196H253.837V683.934H433.525V634.196Z" fill="url(#paint30_linear)"/>
<path d="M434 597.268H254V623.645H434V597.268Z" fill="url(#paint31_linear)"/>
<path d="M356.239 806.118H363.908L340.274 492.415L333.793 494.253L335.263 514.75L311.974 516.301L310.183 492.415L303.702 494.253L326.124 806.118H333.793L331.119 770.531L353.605 769.073L353.268 763.439L330.693 764.904L328.774 739.485L351.854 737.943L351.525 732.325L328.356 733.833L326.445 708.363L349.076 706.846L356.239 806.118ZM312.399 521.893L335.689 520.325L337.52 545.796L314.335 547.372L312.399 521.893ZM314.736 552.956L337.905 551.388L339.736 576.969L316.68 578.494L314.736 552.956ZM317.089 584.078L340.138 582.519L342.097 609.709L319.089 611.184L317.089 584.078ZM319.547 616.784L342.499 615.335L344.201 639.06L321.338 640.577L319.547 616.784ZM321.755 646.203L344.603 644.67L346.434 670.174L323.675 671.691L321.755 646.203ZM326.02 702.779L324.092 677.275L346.843 675.741L348.674 701.262L326.02 702.779Z" fill="#FCFCFC"/>
<path d="M160.947 512.335V492.415H156.217V512.335H133.209V518.504H156.217V794.298H160.947V550.617L188.99 518.504H210.465V512.301L160.947 512.335ZM160.947 541.898V518.504H182.277L160.947 541.898Z" fill="#FCFCFC"/>
<path d="M394.576 512.335V492.415H389.846V512.335H344.4V518.504H364.132L389.83 547.906V794.298H394.576V518.504H421.672V512.301L394.576 512.335ZM389.846 539.339L370.838 518.504H389.83L389.846 539.339Z" fill="#FCFCFC"/>
<path opacity="0.92" d="M356.238 806.118H363.908L340.273 492.415L333.792 494.253L335.262 514.75L311.973 516.301L310.182 492.415L303.701 494.253L326.123 806.118H333.792L331.118 770.531L353.604 769.073L353.267 763.438L330.692 764.904L328.773 739.485L351.853 737.943L351.524 732.325L328.356 733.833L326.444 708.363L349.075 706.846L356.238 806.118ZM312.398 521.893L335.688 520.325L337.519 545.796L314.334 547.372L312.398 521.893ZM314.735 552.956L337.904 551.388L339.735 576.969L316.679 578.494L314.735 552.956ZM317.088 584.078L340.137 582.519L342.096 609.709L319.088 611.184L317.088 584.078ZM319.546 616.784L342.498 615.335L344.2 639.06L321.337 640.577L319.546 616.784ZM321.754 646.203L344.602 644.67L346.433 670.174L323.674 671.691L321.754 646.203ZM326.019 702.779L324.091 677.275L346.842 675.741L348.673 701.262L326.019 702.779Z" fill="#202C40"/>
<path opacity="0.61" d="M160.947 512.335V492.415H156.217V512.335H133.209V518.504H156.217V794.298H160.947V550.617L188.99 518.504H210.465V512.301L160.947 512.335ZM160.947 541.898V518.504H182.277L160.947 541.898Z" fill="url(#paint32_linear)"/>
<path opacity="0.61" d="M394.577 512.335V492.415H389.847V512.335H344.401V518.504H364.133L389.831 547.906V794.298H394.577V518.504H421.673V512.301L394.577 512.335ZM389.847 539.339L370.839 518.504H389.831L389.847 539.339Z" fill="url(#paint33_linear)"/>
<path d="M345.106 575.817L344.56 580.985H333.245C333.245 580.985 332.322 578.003 334.385 577.257C335.517 576.835 336.684 576.526 337.871 576.334L345.106 575.817Z" fill="#8E8B8B"/>
<path d="M329.328 468.766C328.806 473.392 329.078 478.079 330.131 482.603C330.762 483.461 331.598 484.126 332.554 484.529C333.509 484.933 334.55 485.061 335.568 484.899V488.339H340.98L343.293 471.113C343.293 471.113 334.773 459.64 329.328 468.766Z" fill="url(#paint34_linear)"/>
<path d="M333.142 470.486C333.995 472.286 334.539 474.231 334.748 476.231C334.748 476.231 335.832 473.935 336.354 475.079C336.876 476.223 335.27 478.527 335.27 478.527L336.876 481.391H342.377C342.377 481.391 345.1 468.826 343.574 467.097C342.048 465.369 341.02 465.402 341.02 465.402C341.02 465.402 341.02 463.708 337.752 463.708C334.483 463.708 330.139 463.708 328.508 466.58C326.878 469.453 326.332 468.275 326.332 468.275C326.332 468.275 327.256 470.402 328.669 469.885C329.006 469.8 332.596 468.766 333.142 470.486Z" fill="#333333"/>
<path d="M335.583 488.339H344.73C344.73 488.339 348.593 489.186 349.131 498.956C349.46 505.631 349.46 512.32 349.131 518.995V535.01L344.73 533.459L328.404 537.306L326.798 513.827C325.104 513.608 323.476 513.004 322.025 512.056C320.575 511.108 319.337 509.839 318.398 508.336C317.209 506.456 316.461 504.304 316.215 502.059C315.969 499.814 316.233 497.539 316.984 495.423L328.348 501.735L328.95 498.346C329.573 494.673 331.522 491.399 334.387 489.212L335.583 488.339Z" fill="#FFD02B"/>
<path d="M318.502 492.245L315.788 483.06L326.614 481.332L330.259 493.847L328.348 501.735L321.859 498.168L318.502 492.245Z" fill="#FCFDFF"/>
<path d="M316.326 497.38C316.511 495.459 317.273 493.651 318.503 492.22L319.049 492.788H322.51L323.056 495.033L321.803 496.922C321.05 497.592 320.116 497.996 319.134 498.078C318.152 498.16 317.17 497.916 316.326 497.38Z" fill="url(#paint35_linear)"/>
<path d="M321.858 498.168L324.436 505.387L328.347 501.735L321.858 498.168Z" fill="url(#paint36_linear)"/>
<path opacity="0.61" d="M326.614 513.42C326.614 513.42 335.36 509.972 335.36 504.235L337.544 530.595L328.285 532.908L326.614 513.42Z" fill="url(#paint37_linear)"/>
<path d="M328.244 532.883L326.614 561.471L328.791 576.393H335.32L336.404 551.769L340.21 541.432L337.496 576.393L345.109 576.969L348.859 530.586L344.563 528.866L328.244 532.883Z" fill="#333333"/>
<path d="M334.99 576.393V582.112L323.514 577.791C323.514 577.791 323.514 574.631 325.738 574.631C326.943 574.623 328.145 574.739 329.328 574.978L334.99 576.393Z" fill="#8E8B8B"/>
<path d="M185.184 803.135L185.746 808.287H197.069C197.069 808.287 197.993 805.305 195.921 804.559C194.792 804.136 193.628 803.83 192.443 803.644L185.184 803.135Z" fill="#976868"/>
<path d="M193.047 694.984C195.014 699.12 196.268 703.593 196.749 708.194C196.098 711.464 192.284 712.21 192.284 712.21L193.32 715.481L187.883 717.489L180.479 701.991C180.479 701.991 185.104 688.155 193.047 694.984Z" fill="url(#paint38_linear)"/>
<path d="M189.947 697.916C189.634 699.814 189.634 701.754 189.947 703.652C189.947 703.652 188.205 701.873 188.044 703.135C187.883 704.398 190.108 706.008 190.108 706.008L189.457 709.278L184.51 711.058C184.51 711.058 178.086 700.042 179.066 697.916C180.045 695.789 180.535 695.56 180.535 695.56C180.535 695.56 179.989 693.95 183.089 692.806C186.189 691.662 190.317 690.264 192.726 692.408C195.135 694.552 195.28 693.255 195.28 693.255C195.28 693.255 195.28 695.552 193.537 695.611C193.706 695.848 189.947 696.077 189.947 697.916Z" fill="#333333"/>
<path d="M195.006 715.54H185.867C185.867 715.54 182.004 716.387 181.458 726.157C181.129 732.829 181.129 739.515 181.458 746.188V762.202L185.867 760.651L202.185 764.498L203.791 741.027C205.48 740.734 207.088 740.059 208.506 739.048C209.924 738.038 211.118 736.715 212.007 735.172C213.192 733.289 213.938 731.136 214.183 728.891C214.429 726.645 214.168 724.37 213.42 722.251L202.049 728.563L201.446 725.174C200.822 721.504 198.873 718.233 196.01 716.048L195.006 715.54Z" fill="#FFD02B"/>
<path d="M211.821 719.497L214.535 710.371L203.653 708.651L200.063 721.166L202.023 728.682L208.552 725.242L211.821 719.497Z" fill="#FCFDFF"/>
<path d="M213.99 724.725C213.813 722.799 213.05 720.986 211.814 719.556L211.276 720.132H207.847L207.301 722.369L208.554 724.259C209.303 724.92 210.228 725.32 211.202 725.404C212.175 725.487 213.15 725.25 213.99 724.725Z" fill="url(#paint39_linear)"/>
<path opacity="0.61" d="M203.654 740.909C203.654 740.909 194.948 737.469 194.948 731.724L195.655 762.837L202.023 764.329L203.654 740.909Z" fill="url(#paint40_linear)"/>
<path d="M202.024 760.193L203.654 788.782L201.534 803.703H195.005L193.921 779.08L190.106 768.743L192.829 803.703L185.216 804.279L181.409 757.897L185.754 756.177L202.024 760.193Z" fill="#333333"/>
<path d="M195.335 803.703V807.728L207.244 807.152C207.244 807.152 206.706 803.135 204.53 803.135C203.355 803.173 202.191 802.88 201.157 802.288L195.335 803.703Z" fill="#976868"/>
<path d="M387.759 469.359H359.957C356.163 469.357 352.525 467.765 349.843 464.934C347.161 462.102 345.654 458.263 345.654 454.26V447.829C345.654 443.827 347.161 439.988 349.843 437.158C352.526 434.328 356.164 432.738 359.957 432.738H387.759C389.638 432.737 391.498 433.126 393.233 433.884C394.969 434.641 396.546 435.752 397.875 437.152C399.204 438.553 400.259 440.216 400.978 442.046C401.698 443.877 402.069 445.839 402.07 447.82V454.252C402.07 456.235 401.7 458.198 400.981 460.03C400.262 461.862 399.208 463.526 397.879 464.928C396.55 466.331 394.972 467.443 393.236 468.202C391.5 468.96 389.639 469.351 387.759 469.351V469.359Z" fill="white"/>
<path d="M348.858 477.316C348.858 477.316 360.23 477.892 362.952 469.283H371.385C371.385 469.283 365.731 480.188 348.858 477.316Z" fill="white"/>
<path opacity="0.15" d="M355.283 438.398H393.478C393.737 438.398 393.987 438.507 394.17 438.701C394.354 438.895 394.457 439.158 394.457 439.432V440.279C394.457 440.553 394.354 440.816 394.17 441.01C393.987 441.204 393.737 441.313 393.478 441.313H355.283C355.155 441.313 355.027 441.286 354.909 441.234C354.79 441.182 354.682 441.106 354.591 441.01C354.5 440.914 354.428 440.8 354.378 440.675C354.329 440.549 354.304 440.415 354.304 440.279V439.432C354.304 439.296 354.329 439.162 354.378 439.036C354.428 438.911 354.5 438.797 354.591 438.701C354.682 438.605 354.79 438.529 354.909 438.477C355.027 438.425 355.155 438.398 355.283 438.398Z" fill="#020202"/>
<path opacity="0.15" d="M355.283 445.287H393.478C393.737 445.287 393.987 445.396 394.17 445.59C394.354 445.784 394.457 446.046 394.457 446.321V447.168C394.457 447.442 394.354 447.705 394.17 447.899C393.987 448.093 393.737 448.202 393.478 448.202H355.283C355.155 448.202 355.027 448.175 354.909 448.123C354.79 448.071 354.682 447.995 354.591 447.899C354.5 447.803 354.428 447.689 354.378 447.564C354.329 447.438 354.304 447.304 354.304 447.168V446.321C354.304 446.185 354.329 446.05 354.378 445.925C354.428 445.8 354.5 445.686 354.591 445.59C354.682 445.494 354.79 445.418 354.909 445.366C355.027 445.314 355.155 445.287 355.283 445.287Z" fill="#020202"/>
<path opacity="0.15" d="M355.283 452.116H393.478C393.737 452.116 393.987 452.225 394.17 452.419C394.354 452.613 394.457 452.876 394.457 453.15V453.997C394.457 454.133 394.432 454.267 394.383 454.393C394.334 454.518 394.261 454.632 394.17 454.728C394.079 454.824 393.971 454.9 393.853 454.952C393.734 455.004 393.606 455.031 393.478 455.031H355.283C355.155 455.031 355.027 455.004 354.909 454.952C354.79 454.9 354.682 454.824 354.591 454.728C354.5 454.632 354.428 454.518 354.378 454.393C354.329 454.267 354.304 454.133 354.304 453.997V453.15C354.304 453.014 354.329 452.88 354.378 452.754C354.428 452.629 354.5 452.515 354.591 452.419C354.682 452.323 354.79 452.247 354.909 452.195C355.027 452.143 355.155 452.116 355.283 452.116Z" fill="#020202"/>
<path opacity="0.15" d="M355.283 459.005H376.107C376.366 459.007 376.613 459.117 376.795 459.311C376.977 459.504 377.079 459.766 377.079 460.039V460.886C377.079 461.159 376.977 461.421 376.795 461.614C376.613 461.808 376.366 461.918 376.107 461.92H355.283C355.155 461.92 355.027 461.893 354.909 461.841C354.79 461.789 354.682 461.713 354.591 461.617C354.5 461.521 354.428 461.407 354.378 461.282C354.329 461.156 354.304 461.022 354.304 460.886V460.039C354.304 459.903 354.329 459.769 354.378 459.643C354.428 459.518 354.5 459.404 354.591 459.308C354.682 459.212 354.79 459.136 354.909 459.084C355.027 459.032 355.155 459.005 355.283 459.005Z" fill="#020202"/>
<path d="M134.293 698.313H162.096C165.836 698.303 169.423 696.746 172.088 693.977C174.753 691.209 176.283 687.448 176.35 683.502V676.792C176.35 672.789 174.843 668.951 172.161 666.121C169.479 663.291 165.841 661.701 162.047 661.701H134.293C130.498 661.701 126.858 663.292 124.174 666.123C121.49 668.955 119.982 672.795 119.982 676.8V683.511C120.056 687.464 121.596 691.229 124.272 693.996C126.948 696.764 130.546 698.314 134.293 698.313Z" fill="white"/>
<path d="M173.081 706.465C173.081 706.465 161.71 707.041 158.987 698.433H150.651C150.651 698.433 156.064 709.21 173.081 706.465Z" fill="white"/>
<path opacity="0.15" d="M166.665 670.234H128.471C128.211 670.234 127.962 670.125 127.778 669.931C127.594 669.737 127.491 669.474 127.491 669.2V668.395C127.491 668.121 127.594 667.858 127.778 667.664C127.962 667.47 128.211 667.361 128.471 667.361H166.665C166.925 667.361 167.174 667.47 167.358 667.664C167.542 667.858 167.645 668.121 167.645 668.395V669.2C167.645 669.474 167.542 669.737 167.358 669.931C167.174 670.125 166.925 670.234 166.665 670.234Z" fill="#020202"/>
<path opacity="0.15" d="M166.665 677.19H128.471C128.211 677.19 127.962 677.081 127.778 676.887C127.594 676.693 127.491 676.43 127.491 676.156V675.317C127.493 675.045 127.597 674.784 127.781 674.592C127.965 674.4 128.213 674.292 128.471 674.292H166.665C166.924 674.292 167.172 674.4 167.355 674.592C167.539 674.784 167.643 675.045 167.645 675.317V676.165C167.645 676.439 167.542 676.702 167.358 676.896C167.174 677.09 166.925 677.198 166.665 677.198V677.19Z" fill="#020202"/>
<path opacity="0.15" d="M166.665 684.019H128.471C128.213 684.019 127.965 683.911 127.781 683.719C127.597 683.527 127.493 683.267 127.491 682.994V682.189C127.491 681.915 127.594 681.652 127.778 681.458C127.962 681.264 128.211 681.155 128.471 681.155H166.665C166.925 681.155 167.174 681.264 167.358 681.458C167.542 681.652 167.645 681.915 167.645 682.189V682.994C167.643 683.267 167.539 683.527 167.355 683.719C167.172 683.911 166.924 684.019 166.665 684.019Z" fill="#020202"/>
<path opacity="0.15" d="M166.666 690.908H145.834C145.575 690.908 145.325 690.799 145.142 690.605C144.958 690.412 144.855 690.149 144.855 689.874V689.078C144.852 688.941 144.876 688.804 144.925 688.677C144.973 688.55 145.045 688.434 145.136 688.336C145.227 688.238 145.336 688.161 145.456 688.108C145.576 688.055 145.704 688.027 145.834 688.027H166.674C166.934 688.027 167.183 688.136 167.367 688.33C167.551 688.524 167.654 688.787 167.654 689.061V689.857C167.654 689.993 167.629 690.128 167.579 690.253C167.53 690.378 167.458 690.492 167.367 690.588C167.276 690.684 167.168 690.761 167.049 690.813C166.93 690.864 166.803 690.891 166.674 690.891L166.666 690.908Z" fill="#020202"/>
<path d="M208.554 725.242C208.554 725.242 206.731 733.274 204.538 732.13C203.921 731.771 203.381 731.28 202.953 730.69C202.524 730.099 202.216 729.421 202.049 728.699L208.554 725.242Z" fill="url(#paint41_linear)"/>
<path d="M401.127 245.175C400.292 244.54 399.344 244.092 398.342 243.858C397.34 243.624 396.307 243.611 395.308 243.817C393.309 244.247 391.425 245.112 389.778 246.356C388.298 247.405 386.856 248.604 385.142 249.174C382.827 249.948 380.306 249.466 377.86 249.31C375.413 249.155 372.711 249.447 371.071 251.353C370.17 252.404 369.735 253.83 368.832 254.872C367.73 256.141 365.915 256.907 365.589 258.606C365.486 259.23 365.546 259.874 365.763 260.472C366.185 261.711 366.962 262.789 367.986 263.558C369.01 264.326 370.231 264.746 371.479 264.759C374.162 264.724 376.491 262.784 379.155 262.479C382.079 262.144 384.915 263.799 387.855 263.957C389.428 264.028 390.985 263.677 392.379 262.938C393.772 262.199 394.956 261.096 395.819 259.733C396.445 258.723 396.901 257.553 397.795 256.8C398.689 256.047 399.807 255.846 400.64 255.103C401.669 254.195 402.602 251.776 402.97 250.404C403.511 248.523 402.563 246.372 401.127 245.175Z" fill="#857A6A"/>
<defs>
<filter id="filter0_dddi" x="241" y="90" width="385" height="691.77" filterUnits="userSpaceOnUse" color-interpolation-filters="sRGB">
<feFlood flood-opacity="0" result="BackgroundImageFix"/>
<feColorMatrix in="SourceAlpha" type="matrix" values="0 0 0 0 0 0 0 0 0 0 0 0 0 0 0 0 0 0 127 0"/>
<feOffset dx="-9" dy="-12"/>
<feGaussianBlur stdDeviation="18"/>
<feColorMatrix type="matrix" values="0 0 0 0 1 0 0 0 0 1 0 0 0 0 1 0 0 0 1 0"/>
<feBlend mode="normal" in2="BackgroundImageFix" result="effect1_dropShadow"/>
<feColorMatrix in="SourceAlpha" type="matrix" values="0 0 0 0 0 0 0 0 0 0 0 0 0 0 0 0 0 0 127 0"/>
<feOffset dx="9" dy="12"/>
<feGaussianBlur stdDeviation="12"/>
<feColorMatrix type="matrix" values="0 0 0 0 0.716667 0 0 0 0 0.716667 0 0 0 0 0.716667 0 0 0 0.33 0"/>
<feBlend mode="normal" in2="effect1_dropShadow" result="effect2_dropShadow"/>
<feColorMatrix in="SourceAlpha" type="matrix" values="0 0 0 0 0 0 0 0 0 0 0 0 0 0 0 0 0 0 127 0"/>
<feOffset dx="-6" dy="-7"/>
<feGaussianBlur stdDeviation="7.5"/>
<feColorMatrix type="matrix" values="0 0 0 0 1 0 0 0 0 1 0 0 0 0 1 0 0 0 0.57 0"/>
<feBlend mode="normal" in2="effect2_dropShadow" result="effect3_dropShadow"/>
<feBlend mode="normal" in="SourceGraphic" in2="effect3_dropShadow" result="shape"/>
<feColorMatrix in="SourceAlpha" type="matrix" values="0 0 0 0 0 0 0 0 0 0 0 0 0 0 0 0 0 0 127 0" result="hardAlpha"/>
<feOffset dx="4" dy="6"/>
<feGaussianBlur stdDeviation="3"/>
<feComposite in2="hardAlpha" operator="arithmetic" k2="-1" k3="1"/>
<feColorMatrix type="matrix" values="0 0 0 0 1 0 0 0 0 1 0 0 0 0 1 0 0 0 0.08 0"/>
<feBlend mode="normal" in2="shape" result="effect4_innerShadow"/>
</filter>
<filter id="filter1_d" x="490.261" y="569.261" width="72.1534" height="72.1534" filterUnits="userSpaceOnUse" color-interpolation-filters="sRGB">
<feFlood flood-opacity="0" result="BackgroundImageFix"/>
<feColorMatrix in="SourceAlpha" type="matrix" values="0 0 0 0 0 0 0 0 0 0 0 0 0 0 0 0 0 0 127 0"/>
<feOffset dy="4"/>
<feGaussianBlur stdDeviation="2"/>
<feColorMatrix type="matrix" values="0 0 0 0 0 0 0 0 0 0 0 0 0 0 0 0 0 0 0.25 0"/>
<feBlend mode="normal" in2="BackgroundImageFix" result="effect1_dropShadow"/>
<feBlend mode="normal" in="SourceGraphic" in2="effect1_dropShadow" result="shape"/>
</filter>
<filter id="filter2_d" x="310.946" y="170.622" width="255.108" height="128.757" filterUnits="userSpaceOnUse" color-interpolation-filters="sRGB">
<feFlood flood-opacity="0" result="BackgroundImageFix"/>
<feColorMatrix in="SourceAlpha" type="matrix" values="0 0 0 0 0 0 0 0 0 0 0 0 0 0 0 0 0 0 127 0"/>
<feOffset dy="4"/>
<feGaussianBlur stdDeviation="2"/>
<feColorMatrix type="matrix" values="0 0 0 0 0 0 0 0 0 0 0 0 0 0 0 0 0 0 0.25 0"/>
<feBlend mode="normal" in2="BackgroundImageFix" result="effect1_dropShadow"/>
<feBlend mode="normal" in="SourceGraphic" in2="effect1_dropShadow" result="shape"/>
</filter>
<filter id="filter3_d" x="360.407" y="247.313" width="72.6911" height="189.611" filterUnits="userSpaceOnUse" color-interpolation-filters="sRGB">
<feFlood flood-opacity="0" result="BackgroundImageFix"/>
<feColorMatrix in="SourceAlpha" type="matrix" values="0 0 0 0 0 0 0 0 0 0 0 0 0 0 0 0 0 0 127 0"/>
<feOffset dy="4"/>
<feGaussianBlur stdDeviation="2"/>
<feColorMatrix type="matrix" values="0 0 0 0 0 0 0 0 0 0 0 0 0 0 0 0 0 0 0.25 0"/>
<feBlend mode="normal" in2="BackgroundImageFix" result="effect1_dropShadow"/>
<feBlend mode="normal" in="SourceGraphic" in2="effect1_dropShadow" result="shape"/>
</filter>
<filter id="filter4_dddi" x="0" y="315" width="493" height="414" filterUnits="userSpaceOnUse" color-interpolation-filters="sRGB">
<feFlood flood-opacity="0" result="BackgroundImageFix"/>
<feColorMatrix in="SourceAlpha" type="matrix" values="0 0 0 0 0 0 0 0 0 0 0 0 0 0 0 0 0 0 127 0"/>
<feOffset dx="-9" dy="-12"/>
<feGaussianBlur stdDeviation="18"/>
<feColorMatrix type="matrix" values="0 0 0 0 1 0 0 0 0 1 0 0 0 0 1 0 0 0 0.78 0"/>
<feBlend mode="normal" in2="BackgroundImageFix" result="effect1_dropShadow"/>
<feColorMatrix in="SourceAlpha" type="matrix" values="0 0 0 0 0 0 0 0 0 0 0 0 0 0 0 0 0 0 127 0"/>
<feOffset dx="9" dy="12"/>
<feGaussianBlur stdDeviation="12"/>
<feColorMatrix type="matrix" values="0 0 0 0 0.304167 0 0 0 0 0.304167 0 0 0 0 0.304167 0 0 0 0.11 0"/>
<feBlend mode="normal" in2="effect1_dropShadow" result="effect2_dropShadow"/>
<feColorMatrix in="SourceAlpha" type="matrix" values="0 0 0 0 0 0 0 0 0 0 0 0 0 0 0 0 0 0 127 0"/>
<feOffset dx="-6" dy="-7"/>
<feGaussianBlur stdDeviation="7.5"/>
<feColorMatrix type="matrix" values="0 0 0 0 1 0 0 0 0 1 0 0 0 0 1 0 0 0 0.57 0"/>
<feBlend mode="normal" in2="effect2_dropShadow" result="effect3_dropShadow"/>
<feBlend mode="normal" in="SourceGraphic" in2="effect3_dropShadow" result="shape"/>
<feColorMatrix in="SourceAlpha" type="matrix" values="0 0 0 0 0 0 0 0 0 0 0 0 0 0 0 0 0 0 127 0" result="hardAlpha"/>
<feOffset dx="4" dy="6"/>
<feGaussianBlur stdDeviation="3"/>
<feComposite in2="hardAlpha" operator="arithmetic" k2="-1" k3="1"/>
<feColorMatrix type="matrix" values="0 0 0 0 1 0 0 0 0 1 0 0 0 0 1 0 0 0 0.08 0"/>
<feBlend mode="normal" in2="shape" result="effect4_innerShadow"/>
</filter>
<linearGradient id="paint0_linear" x1="517.301" y1="60.7397" x2="504.396" y2="43.658" gradientUnits="userSpaceOnUse">
<stop stop-color="#CDCDCD" stop-opacity="0"/>
<stop offset="0.95" stop-color="white"/>
</linearGradient>
<linearGradient id="paint1_linear" x1="540.24" y1="72.8646" x2="518.709" y2="65.3608" gradientUnits="userSpaceOnUse">
<stop stop-color="#1E1E1E" stop-opacity="0.26"/>
<stop offset="1" stop-color="#D5CFCF" stop-opacity="0"/>
</linearGradient>
<linearGradient id="paint2_linear" x1="2177.25" y1="2590.91" x2="2297.89" y2="2593.66" gradientUnits="userSpaceOnUse">
<stop stop-color="#010101" stop-opacity="0"/>
<stop offset="0.95" stop-color="#010101"/>
</linearGradient>
<linearGradient id="paint3_linear" x1="517.301" y1="60.7397" x2="504.396" y2="43.658" gradientUnits="userSpaceOnUse">
<stop stop-color="#CDCDCD" stop-opacity="0"/>
<stop offset="0.95" stop-color="white"/>
</linearGradient>
<linearGradient id="paint4_linear" x1="540.24" y1="72.8646" x2="518.709" y2="65.3608" gradientUnits="userSpaceOnUse">
<stop stop-color="#7B6000"/>
<stop offset="1" stop-color="#FFD02B"/>
</linearGradient>
<linearGradient id="paint5_linear" x1="540.735" y1="25.1003" x2="533.269" y2="60.7645" gradientUnits="userSpaceOnUse">
<stop stop-color="#FFD02B"/>
<stop offset="1" stop-color="#B8920E"/>
</linearGradient>
<linearGradient id="paint6_linear" x1="450.442" y1="97.1146" x2="441.523" y2="87.5519" gradientUnits="userSpaceOnUse">
<stop stop-color="#010101"/>
<stop offset="1" stop-color="#C1BFBF" stop-opacity="0"/>
</linearGradient>
<linearGradient id="paint7_linear" x1="450.442" y1="97.1146" x2="441.523" y2="87.5519" gradientUnits="userSpaceOnUse">
<stop stop-color="#010101"/>
<stop offset="1" stop-color="#C1BFBF" stop-opacity="0"/>
</linearGradient>
<linearGradient id="paint8_linear" x1="6646.62" y1="3559.03" x2="7278.06" y2="4292.32" gradientUnits="userSpaceOnUse">
<stop stop-color="#FFD02B"/>
<stop offset="0.95" stop-color="#010101"/>
</linearGradient>
<linearGradient id="paint9_linear" x1="1875.94" y1="2554.84" x2="1905.55" y2="2554.84" gradientUnits="userSpaceOnUse">
<stop stop-color="#DBB324"/>
<stop offset="1" stop-color="#2C2305"/>
</linearGradient>
<linearGradient id="paint10_linear" x1="-518.41" y1="2247.31" x2="-576.16" y2="2247.31" gradientUnits="userSpaceOnUse">
<stop stop-color="#E5C5D5"/>
<stop offset="0.42" stop-color="#EAD4D1"/>
<stop offset="1" stop-color="#F0E9CB"/>
</linearGradient>
<linearGradient id="paint11_linear" x1="-2384.01" y1="2866.93" x2="-2440.14" y2="2866.93" gradientUnits="userSpaceOnUse">
<stop stop-color="#ECC4D7"/>
<stop offset="0.42" stop-color="#EFD4D1"/>
<stop offset="1" stop-color="#F2EAC9"/>
</linearGradient>
<linearGradient id="paint12_linear" x1="2224.81" y1="8739.14" x2="2620.83" y2="8824.18" gradientUnits="userSpaceOnUse">
<stop stop-color="#183866"/>
<stop offset="1" stop-color="#1A7FC1"/>
</linearGradient>
<linearGradient id="paint13_linear" x1="-4234.96" y1="24519.7" x2="-4223.08" y2="24522.2" gradientUnits="userSpaceOnUse">
<stop stop-opacity="0"/>
<stop offset="0.97"/>
</linearGradient>
<linearGradient id="paint14_linear" x1="-3818.38" y1="24619.3" x2="-3800.56" y2="24623.1" gradientUnits="userSpaceOnUse">
<stop stop-opacity="0"/>
<stop offset="0.97"/>
</linearGradient>
<linearGradient id="paint15_linear" x1="3814.82" y1="146.533" x2="4613.93" y2="318.129" gradientUnits="userSpaceOnUse">
<stop stop-opacity="0"/>
<stop offset="0.97"/>
</linearGradient>
<linearGradient id="paint16_linear" x1="3789.5" y1="264.442" x2="4588.61" y2="436.039" gradientUnits="userSpaceOnUse">
<stop stop-opacity="0"/>
<stop offset="0.97"/>
</linearGradient>
<linearGradient id="paint17_linear" x1="3764.42" y1="381.268" x2="4563.52" y2="552.864" gradientUnits="userSpaceOnUse">
<stop stop-opacity="0"/>
<stop offset="0.97"/>
</linearGradient>
<linearGradient id="paint18_linear" x1="3739.31" y1="498.178" x2="4538.42" y2="669.775" gradientUnits="userSpaceOnUse">
<stop stop-opacity="0"/>
<stop offset="0.97"/>
</linearGradient>
<linearGradient id="paint19_linear" x1="3714.23" y1="615.005" x2="4513.33" y2="786.601" gradientUnits="userSpaceOnUse">
<stop stop-opacity="0"/>
<stop offset="0.97"/>
</linearGradient>
<linearGradient id="paint20_linear" x1="3688.91" y1="732.913" x2="4488.01" y2="904.51" gradientUnits="userSpaceOnUse">
<stop stop-opacity="0"/>
<stop offset="0.97"/>
</linearGradient>
<linearGradient id="paint21_linear" x1="378.772" y1="265.552" x2="398.379" y2="269.762" gradientUnits="userSpaceOnUse">
<stop stop-color="#ECC4D7"/>
<stop offset="0.42" stop-color="#EFD4D1"/>
<stop offset="1" stop-color="#F2EAC9"/>
</linearGradient>
<linearGradient id="paint22_linear" x1="4740.58" y1="9514.5" x2="5665.45" y2="9713.1" gradientUnits="userSpaceOnUse">
<stop stop-color="#ECC4D7"/>
<stop offset="0.42" stop-color="#EFD4D1"/>
<stop offset="1" stop-color="#F2EAC9"/>
</linearGradient>
<linearGradient id="paint23_linear" x1="2868.03" y1="2046.71" x2="3031.14" y2="2081.74" gradientUnits="userSpaceOnUse">
<stop stop-color="#ECC4D7"/>
<stop offset="0.42" stop-color="#EFD4D1"/>
<stop offset="1" stop-color="#F2EAC9"/>
</linearGradient>
<linearGradient id="paint24_linear" x1="2601.76" y1="1823.52" x2="2771.92" y2="1860.06" gradientUnits="userSpaceOnUse">
<stop stop-color="#ECC4D7"/>
<stop offset="0.42" stop-color="#EFD4D1"/>
<stop offset="1" stop-color="#F2EAC9"/>
</linearGradient>
<linearGradient id="paint25_linear" x1="371.101" y1="287.981" x2="385.641" y2="286.589" gradientUnits="userSpaceOnUse">
<stop stop-color="white" stop-opacity="0"/>
<stop offset="1" stop-color="#FFD02B"/>
</linearGradient>
<linearGradient id="paint26_linear" x1="1676.21" y1="7263.78" x2="1844.31" y2="7312.73" gradientUnits="userSpaceOnUse">
<stop stop-color="#ECC4D7"/>
<stop offset="0.42" stop-color="#EFD4D1"/>
<stop offset="1" stop-color="#F2EAC9"/>
</linearGradient>
<linearGradient id="paint27_linear" x1="37104.6" y1="31173.5" x2="41714.2" y2="-128195" gradientUnits="userSpaceOnUse">
<stop offset="0.02" stop-color="#EEEEEE"/>
<stop offset="1" stop-color="white"/>
</linearGradient>
<linearGradient id="paint28_linear" x1="82121.3" y1="7269.69" x2="82370.5" y2="-31890" gradientUnits="userSpaceOnUse">
<stop offset="0.02" stop-color="white"/>
<stop offset="1" stop-color="white"/>
</linearGradient>
<linearGradient id="paint29_linear" x1="82053" y1="11512.3" x2="82302.2" y2="-27647.4" gradientUnits="userSpaceOnUse">
<stop offset="0.02" stop-color="white"/>
<stop offset="1" stop-color="white"/>
</linearGradient>
<linearGradient id="paint30_linear" x1="82053" y1="11608.2" x2="82302.2" y2="-27551.5" gradientUnits="userSpaceOnUse">
<stop offset="0.02" stop-color="white"/>
<stop offset="1" stop-color="white"/>
</linearGradient>
<linearGradient id="paint31_linear" x1="83252" y1="1151.36" x2="83322" y2="-19616.6" gradientUnits="userSpaceOnUse">
<stop offset="0.02" stop-color="white"/>
<stop offset="1" stop-color="white"/>
</linearGradient>
<linearGradient id="paint32_linear" x1="28764.1" y1="-26236.3" x2="-59059.9" y2="34083" gradientUnits="userSpaceOnUse">
<stop offset="0.58"/>
<stop offset="0.78" stop-opacity="0.16"/>
</linearGradient>
<linearGradient id="paint33_linear" x1="47773" y1="1120.33" x2="-40057.6" y2="61456.8" gradientUnits="userSpaceOnUse">
<stop offset="0.58"/>
<stop offset="0.78" stop-opacity="0.16"/>
</linearGradient>
<linearGradient id="paint34_linear" x1="329.071" y1="476.79" x2="343.293" y2="476.79" gradientUnits="userSpaceOnUse">
<stop stop-color="#ECC4D7"/>
<stop offset="0.42" stop-color="#EFD4D1"/>
<stop offset="1" stop-color="#F2EAC9"/>
</linearGradient>
<linearGradient id="paint35_linear" x1="3234.07" y1="2686.3" x2="3290.2" y2="2686.3" gradientUnits="userSpaceOnUse">
<stop stop-color="#ECC4D7"/>
<stop offset="0.42" stop-color="#EFD4D1"/>
<stop offset="1" stop-color="#F2EAC9"/>
</linearGradient>
<linearGradient id="paint36_linear" x1="319.778" y1="500.422" x2="333.374" y2="505.342" gradientUnits="userSpaceOnUse">
<stop stop-opacity="0"/>
<stop offset="0.91" stop-opacity="0.8"/>
<stop offset="1"/>
</linearGradient>
<linearGradient id="paint37_linear" x1="306.337" y1="520.063" x2="347.756" y2="517.878" gradientUnits="userSpaceOnUse">
<stop offset="0.36" stop-color="#00272E"/>
<stop offset="1" stop-color="#69B9EB" stop-opacity="0"/>
</linearGradient>
<linearGradient id="paint38_linear" x1="4482.34" y1="3756.58" x2="4811.97" y2="3756.58" gradientUnits="userSpaceOnUse">
<stop stop-color="#7A5D42"/>
<stop offset="0.42" stop-color="#EFD4D1"/>
<stop offset="1" stop-color="#F2EAC9"/>
</linearGradient>
<linearGradient id="paint39_linear" x1="2199.46" y1="1336.8" x2="2255.18" y2="1336.8" gradientUnits="userSpaceOnUse">
<stop stop-color="#ECC4D7"/>
<stop offset="0.42" stop-color="#EFD4D1"/>
<stop offset="1" stop-color="#F2EAC9"/>
</linearGradient>
<linearGradient id="paint40_linear" x1="2882.28" y1="3091.99" x2="2573.36" y2="3102.29" gradientUnits="userSpaceOnUse">
<stop offset="0.36" stop-color="#00272E"/>
<stop offset="1" stop-color="#69B9EB" stop-opacity="0"/>
</linearGradient>
<linearGradient id="paint41_linear" x1="2126.15" y1="3863.21" x2="2091.79" y2="3948.07" gradientUnits="userSpaceOnUse">
<stop stop-opacity="0"/>
<stop offset="0.91" stop-opacity="0.8"/>
<stop offset="1"/>
</linearGradient>
</defs>
</svg>
