<svg width="352" height="273" viewBox="0 0 352 273" fill="none" xmlns="http://www.w3.org/2000/svg">
<g filter="url(#filter0_dddi)">
<path opacity="0.24" d="M309.44 215.908C308.416 220.976 306.112 225.663 302.156 229.221C291.175 239.097 273.67 236.244 258.744 233.807C232.5 229.501 205.768 228.5 179.246 230.832C149.286 233.467 118.11 240.217 89.838 230.478C81.4769 227.674 74.1724 222.607 68.8339 215.908C68.3301 215.31 67.8585 214.697 67.4404 214.084C63.2922 208.408 60.4087 201.8 58.4257 194.665C58.2167 193.885 58.0184 193.089 57.8254 192.288C51.9299 167.919 56.5606 138.03 61.2502 117.664C63.3082 108.719 66.0148 99.8411 70.5758 91.7584C82.2542 70.9814 105.252 57.4206 129.407 51.7906C153.563 46.1605 178.946 47.62 203.584 50.8987C223.307 53.5085 243.941 57.7703 258.573 70.5456C272.148 82.3885 278.472 99.8715 282.294 116.975C286.115 134.077 287.975 151.728 294.851 167.939C299.198 178.17 305.49 187.702 308.523 198.344C308.979 199.933 309.337 201.546 309.595 203.174C310.303 207.396 310.25 211.702 309.44 215.908V215.908Z" fill="#E5E5E5"/>
<path opacity="0.26" d="M309.44 215.908H68.2875L67.446 214.084L58.4259 194.665L57.354 192.304H57.8417L302.125 187.12L309.585 203.148C310.299 207.379 310.25 211.693 309.44 215.908V215.908Z" fill="url(#paint0_linear)"/>
<path d="M110.338 90.6841H55.9602C53.5212 90.6841 51.5439 92.5525 51.5439 94.8572C51.5439 97.162 53.5212 99.0303 55.9602 99.0303H110.338C112.777 99.0303 114.754 97.162 114.754 94.8572C114.754 92.5525 112.777 90.6841 110.338 90.6841Z" stroke="#E5E5E5" stroke-width="0.68" stroke-miterlimit="10"/>
<path d="M175.419 90.6841H121.041C118.602 90.6841 116.625 92.5525 116.625 94.8572C116.625 97.162 118.602 99.0303 121.041 99.0303H175.419C177.858 99.0303 179.835 97.162 179.835 94.8572C179.835 92.5525 177.858 90.6841 175.419 90.6841Z" stroke="#E5E5E5" stroke-width="0.68" stroke-miterlimit="10"/>
<path d="M240.5 90.6841H186.122C183.683 90.6841 181.706 92.5525 181.706 94.8572C181.706 97.162 183.683 99.0303 186.122 99.0303H240.5C242.939 99.0303 244.916 97.162 244.916 94.8572C244.916 92.5525 242.939 90.6841 240.5 90.6841Z" stroke="#E5E5E5" stroke-width="0.68" stroke-miterlimit="10"/>
<path d="M305.581 90.6841H251.203C248.764 90.6841 246.787 92.5525 246.787 94.8572C246.787 97.162 248.764 99.0303 251.203 99.0303H305.581C308.02 99.0303 309.997 97.162 309.997 94.8572C309.997 92.5525 308.02 90.6841 305.581 90.6841Z" stroke="#E5E5E5" stroke-width="0.68" stroke-miterlimit="10"/>
<path d="M310.576 80.8984H52.9911C48.5777 80.8984 45 84.2812 45 88.4542V191.229C45 195.402 48.5777 198.785 52.9911 198.785H310.576C314.99 198.785 318.567 195.402 318.567 191.229V88.4542C318.567 84.2812 314.99 80.8984 310.576 80.8984Z" fill="url(#paint1_linear)"/>
<g filter="url(#filter1_d)">
<path d="M310.576 77.0117H52.9911C48.5777 77.0117 45 80.3945 45 84.5674V187.343C45 191.515 48.5777 194.898 52.9911 194.898H310.576C314.99 194.898 318.567 191.515 318.567 187.343V84.5674C318.567 80.3945 314.99 77.0117 310.576 77.0117Z" fill="url(#paint2_linear)"/>
</g>
<path opacity="0.26" d="M256.659 183.035C256.616 181.681 256.291 180.349 255.705 179.113C253.743 175.591 248.614 175.201 245.173 172.905C242.408 171.055 240.816 167.949 240.2 164.797C239.583 161.645 239.83 158.412 240.082 155.219C240.152 154.312 240.253 153.329 240.902 152.655C242.306 151.18 244.857 152.234 246.588 153.354L251.198 156.334C252.173 156.963 253.513 157.591 254.413 156.902C255.024 156.446 255.126 155.625 255.185 154.875L256.059 143.371C256.3 140.194 256.879 136.495 259.81 134.964C262.742 133.434 266.569 135.071 268.418 137.68C270.267 140.29 270.615 143.574 270.856 146.706C272.096 163.173 271.836 179.71 270.079 196.135C270.01 196.783 269.886 197.513 269.318 197.883C268.873 198.105 268.365 198.19 267.866 198.126C264.65 198.03 258.835 199.18 257.259 195.983C255.684 192.785 256.991 186.572 256.659 183.035Z" fill="url(#paint3_linear)"/>
<path d="M239.101 149.878L252.232 146.534L258.969 161.326L256.739 165.426L247.719 164.939L239.101 149.878Z" fill="url(#paint4_linear)"/>
<path d="M241.475 160.996C241.286 159.699 241.317 158.382 241.567 157.094C241.588 156.892 241.656 156.697 241.765 156.521C242.156 155.984 243.089 156.197 243.539 156.684C243.989 157.17 244.187 157.834 244.611 158.336C244.97 158.746 245.468 159.025 245.865 159.405C246.499 160.093 246.925 160.929 247.098 161.827C247.164 162.055 247.191 162.291 247.178 162.526C247.105 162.855 246.955 163.163 246.739 163.428C246.036 164.442 244.836 165.841 243.523 164.878C242.328 164.011 241.7 162.339 241.475 160.996Z" fill="url(#paint5_linear)"/>
<path opacity="0.68" d="M309.901 92.4121H254.146C252.92 92.4121 251.927 93.3514 251.927 94.5101V98.9493C251.927 100.108 252.92 101.047 254.146 101.047H309.901C311.127 101.047 312.12 100.108 312.12 98.9493V94.5101C312.12 93.3514 311.127 92.4121 309.901 92.4121Z" fill="#E5E5E5"/>
<path d="M107.782 103.743H56.5123C54.2745 103.743 52.4604 105.458 52.4604 107.574V182.716C52.4604 184.832 54.2745 186.547 56.5123 186.547H107.782C110.019 186.547 111.833 184.832 111.833 182.716V107.574C111.833 105.458 110.019 103.743 107.782 103.743Z" fill="white"/>
<path d="M173.945 103.642H123.71C120.682 103.642 118.228 105.963 118.228 108.826V124.941C118.228 127.804 120.682 130.125 123.71 130.125H173.945C176.973 130.125 179.428 127.804 179.428 124.941V108.826C179.428 105.963 176.973 103.642 173.945 103.642Z" fill="white"/>
<path d="M173.844 134.083H123.812C120.728 134.083 118.228 136.447 118.228 139.363V156.273C118.228 159.19 120.728 161.554 123.812 161.554H173.844C176.928 161.554 179.428 159.19 179.428 156.273V139.363C179.428 136.447 176.928 134.083 173.844 134.083Z" fill="white"/>
<path d="M173.945 164.812H123.71C120.682 164.812 118.228 167.133 118.228 169.996V186.111C118.228 188.974 120.682 191.295 123.71 191.295H173.945C176.973 191.295 179.428 188.974 179.428 186.111V169.996C179.428 167.133 176.973 164.812 173.945 164.812Z" fill="white"/>
<path d="M241.519 104.503H190.705C187.836 104.503 185.511 106.702 185.511 109.414V110.356C185.511 113.068 187.836 115.267 190.705 115.267H241.519C244.387 115.267 246.712 113.068 246.712 110.356V109.414C246.712 106.702 244.387 104.503 241.519 104.503Z" fill="white"/>
<path d="M308.957 105.365H254.188C252.412 105.365 250.973 106.726 250.973 108.405V111.436C250.973 113.115 252.412 114.476 254.188 114.476H308.957C310.733 114.476 312.173 113.115 312.173 111.436V108.405C312.173 106.726 310.733 105.365 308.957 105.365Z" fill="white"/>
<path opacity="0.68" d="M109.92 92.4121H54.3683C53.1458 92.4121 52.1548 93.3491 52.1548 94.505V98.9543C52.1548 100.11 53.1458 101.047 54.3683 101.047H109.92C111.142 101.047 112.134 100.11 112.134 98.9543V94.505C112.134 93.3491 111.142 92.4121 109.92 92.4121Z" fill="#202C40"/>
<path opacity="0.93" d="M176.33 92.4121H120.778C119.556 92.4121 118.565 93.3491 118.565 94.505V98.9543C118.565 100.11 119.556 101.047 120.778 101.047H176.33C177.553 101.047 178.544 100.11 178.544 98.9543V94.505C178.544 93.3491 177.553 92.4121 176.33 92.4121Z" fill="#202C40"/>
<path opacity="0.68" d="M243.678 92.4121H187.923C186.698 92.4121 185.704 93.3514 185.704 94.5101V98.9493C185.704 100.108 186.698 101.047 187.923 101.047H243.678C244.904 101.047 245.897 100.108 245.897 98.9493V94.5101C245.897 93.3514 244.904 92.4121 243.678 92.4121Z" fill="#E5E5E5"/>
<path opacity="0.26" d="M243.678 92.4121H187.923C186.698 92.4121 185.704 93.3514 185.704 94.5101V98.9493C185.704 100.108 186.698 101.047 187.923 101.047H243.678C244.904 101.047 245.897 100.108 245.897 98.9493V94.5101C245.897 93.3514 244.904 92.4121 243.678 92.4121Z" fill="#202C40"/>
<path opacity="0.26" d="M310.356 92.4121H254.601C253.376 92.4121 252.382 93.3514 252.382 94.5101V98.9493C252.382 100.108 253.376 101.047 254.601 101.047H310.356C311.582 101.047 312.575 100.108 312.575 98.9493V94.5101C312.575 93.3514 311.582 92.4121 310.356 92.4121Z" fill="#202C40"/>
<path opacity="0.26" d="M124.868 113.929C126.665 113.929 128.121 112.552 128.121 110.853C128.121 109.154 126.665 107.777 124.868 107.777C123.071 107.777 121.615 109.154 121.615 110.853C121.615 112.552 123.071 113.929 124.868 113.929Z" fill="url(#paint6_linear)"/>
<path opacity="0.26" d="M124.868 123.324C126.665 123.324 128.121 121.947 128.121 120.248C128.121 118.55 126.665 117.172 124.868 117.172C123.071 117.172 121.615 118.55 121.615 120.248C121.615 121.947 123.071 123.324 124.868 123.324Z" fill="url(#paint7_linear)"/>
<path opacity="0.68" d="M81.6701 109.398H58.699C58.0271 109.398 57.4824 109.913 57.4824 110.549C57.4824 111.184 58.0271 111.699 58.699 111.699H81.6701C82.342 111.699 82.8867 111.184 82.8867 110.549C82.8867 109.913 82.342 109.398 81.6701 109.398Z" fill="#E5E5E5"/>
<path opacity="0.68" d="M79.8639 116.306H58.699C58.0271 116.306 57.4824 116.821 57.4824 117.456C57.4824 118.091 58.0271 118.606 58.699 118.606H79.8639C80.5358 118.606 81.0805 118.091 81.0805 117.456C81.0805 116.821 80.5358 116.306 79.8639 116.306Z" fill="#E5E5E5"/>
<path opacity="0.68" d="M79.8639 131.275H58.699C58.0271 131.275 57.4824 131.79 57.4824 132.425C57.4824 133.061 58.0271 133.576 58.699 133.576H79.8639C80.5358 133.576 81.0805 133.061 81.0805 132.425C81.0805 131.79 80.5358 131.275 79.8639 131.275Z" fill="#E5E5E5"/>
<path opacity="0.68" d="M98.976 137.032H58.699C58.0271 137.032 57.4824 137.547 57.4824 138.182C57.4824 138.817 58.0271 139.332 58.699 139.332H98.976C99.6479 139.332 100.193 138.817 100.193 138.182C100.193 137.547 99.6479 137.032 98.976 137.032Z" fill="#E5E5E5"/>
<path opacity="0.68" d="M172.965 108.968H132.688C132.016 108.968 131.471 109.483 131.471 110.118C131.471 110.753 132.016 111.269 132.688 111.269H172.965C173.637 111.269 174.181 110.753 174.181 110.118C174.181 109.483 173.637 108.968 172.965 108.968Z" fill="#E5E5E5"/>
<path opacity="0.26" d="M192.152 113.392C193.948 113.392 195.405 112.015 195.405 110.316C195.405 108.617 193.948 107.24 192.152 107.24C190.355 107.24 188.898 108.617 188.898 110.316C188.898 112.015 190.355 113.392 192.152 113.392Z" fill="url(#paint8_linear)"/>
<path opacity="0.68" d="M240.253 108.425H199.976C199.304 108.425 198.76 108.94 198.76 109.576C198.76 110.211 199.304 110.726 199.976 110.726H240.253C240.925 110.726 241.47 110.211 241.47 109.576C241.47 108.94 240.925 108.425 240.253 108.425Z" fill="#E5E5E5"/>
<path opacity="0.26" d="M259.516 113.392C261.313 113.392 262.769 112.015 262.769 110.316C262.769 108.617 261.313 107.24 259.516 107.24C257.719 107.24 256.263 108.617 256.263 110.316C256.263 112.015 257.719 113.392 259.516 113.392Z" fill="url(#paint9_linear)"/>
<path opacity="0.68" d="M307.618 108.425H267.341C266.669 108.425 266.124 108.94 266.124 109.576C266.124 110.211 266.669 110.726 267.341 110.726H307.618C308.29 110.726 308.834 110.211 308.834 109.576C308.834 108.94 308.29 108.425 307.618 108.425Z" fill="#E5E5E5"/>
<path d="M241.519 117.243H190.705C187.836 117.243 185.511 119.442 185.511 122.154V123.096C185.511 125.808 187.836 128.007 190.705 128.007H241.519C244.387 128.007 246.712 125.808 246.712 123.096V122.154C246.712 119.442 244.387 117.243 241.519 117.243Z" fill="white"/>
<path opacity="0.26" d="M192.152 126.131C193.948 126.131 195.405 124.754 195.405 123.055C195.405 121.357 193.948 119.979 192.152 119.979C190.355 119.979 188.898 121.357 188.898 123.055C188.898 124.754 190.355 126.131 192.152 126.131Z" fill="url(#paint10_linear)"/>
<path opacity="0.68" d="M240.253 121.166H199.976C199.304 121.166 198.76 121.681 198.76 122.316C198.76 122.951 199.304 123.466 199.976 123.466H240.253C240.925 123.466 241.47 122.951 241.47 122.316C241.47 121.681 240.925 121.166 240.253 121.166Z" fill="#E5E5E5"/>
<path d="M241.519 129.983H190.705C187.836 129.983 185.511 132.181 185.511 134.893V135.836C185.511 138.548 187.836 140.746 190.705 140.746H241.519C244.387 140.746 246.712 138.548 246.712 135.836V134.893C246.712 132.181 244.387 129.983 241.519 129.983Z" fill="white"/>
<path opacity="0.26" d="M192.152 138.866C193.948 138.866 195.405 137.489 195.405 135.79C195.405 134.092 193.948 132.714 192.152 132.714C190.355 132.714 188.898 134.092 188.898 135.79C188.898 137.489 190.355 138.866 192.152 138.866Z" fill="url(#paint11_linear)"/>
<path opacity="0.68" d="M240.253 133.905H199.976C199.304 133.905 198.76 134.42 198.76 135.056C198.76 135.691 199.304 136.206 199.976 136.206H240.253C240.925 136.206 241.47 135.691 241.47 135.056C241.47 134.42 240.925 133.905 240.253 133.905Z" fill="#E5E5E5"/>
<path opacity="0.68" d="M165.944 118.753H132.581C131.968 118.753 131.471 119.223 131.471 119.802V120.005C131.471 120.584 131.968 121.054 132.581 121.054H165.944C166.556 121.054 167.053 120.584 167.053 120.005V119.802C167.053 119.223 166.556 118.753 165.944 118.753Z" fill="#E5E5E5"/>
<path opacity="0.26" d="M124.868 142.753C126.665 142.753 128.121 141.376 128.121 139.677C128.121 137.978 126.665 136.601 124.868 136.601C123.071 136.601 121.615 137.978 121.615 139.677C121.615 141.376 123.071 142.753 124.868 142.753Z" fill="url(#paint12_linear)"/>
<path opacity="0.68" d="M165.944 138.187H132.581C131.968 138.187 131.471 138.657 131.471 139.236V139.439C131.471 140.018 131.968 140.488 132.581 140.488H165.944C166.556 140.488 167.053 140.018 167.053 139.439V139.236C167.053 138.657 166.556 138.187 165.944 138.187Z" fill="#E5E5E5"/>
<path opacity="0.26" d="M124.868 150.958C126.665 150.958 128.121 149.581 128.121 147.882C128.121 146.183 126.665 144.806 124.868 144.806C123.071 144.806 121.615 146.183 121.615 147.882C121.615 149.581 123.071 150.958 124.868 150.958Z" fill="url(#paint13_linear)"/>
<path opacity="0.68" d="M165.944 146.392H132.581C131.968 146.392 131.471 146.861 131.471 147.441V147.643C131.471 148.223 131.968 148.692 132.581 148.692H165.944C166.556 148.692 167.053 148.223 167.053 147.643V147.441C167.053 146.861 166.556 146.392 165.944 146.392Z" fill="#E5E5E5"/>
<path opacity="0.26" d="M124.868 159.162C126.665 159.162 128.121 157.785 128.121 156.086C128.121 154.387 126.665 153.01 124.868 153.01C123.071 153.01 121.615 154.387 121.615 156.086C121.615 157.785 123.071 159.162 124.868 159.162Z" fill="url(#paint14_linear)"/>
<path opacity="0.68" d="M165.944 154.596H132.581C131.968 154.596 131.471 155.065 131.471 155.645V155.847C131.471 156.427 131.968 156.896 132.581 156.896H165.944C166.556 156.896 167.053 156.427 167.053 155.847V155.645C167.053 155.065 166.556 154.596 165.944 154.596Z" fill="#E5E5E5"/>
<path opacity="0.26" d="M124.868 174.06C126.665 174.06 128.121 172.683 128.121 170.984C128.121 169.285 126.665 167.908 124.868 167.908C123.071 167.908 121.615 169.285 121.615 170.984C121.615 172.683 123.071 174.06 124.868 174.06Z" fill="url(#paint15_linear)"/>
<path opacity="0.68" d="M165.944 169.495H132.581C131.968 169.495 131.471 169.964 131.471 170.544V170.746C131.471 171.326 131.968 171.795 132.581 171.795H165.944C166.556 171.795 167.053 171.326 167.053 170.746V170.544C167.053 169.964 166.556 169.495 165.944 169.495Z" fill="#E5E5E5"/>
<path opacity="0.26" d="M124.868 188.473C126.665 188.473 128.121 187.096 128.121 185.397C128.121 183.698 126.665 182.321 124.868 182.321C123.071 182.321 121.615 183.698 121.615 185.397C121.615 187.096 123.071 188.473 124.868 188.473Z" fill="url(#paint16_linear)"/>
<path opacity="0.68" d="M165.944 177.192H132.581C131.968 177.192 131.471 177.662 131.471 178.241V178.444C131.471 179.023 131.968 179.493 132.581 179.493H165.944C166.556 179.493 167.053 179.023 167.053 178.444V178.241C167.053 177.662 166.556 177.192 165.944 177.192Z" fill="#E5E5E5"/>
<path opacity="0.68" d="M165.944 184.677H132.581C131.968 184.677 131.471 185.146 131.471 185.726V185.928C131.471 186.508 131.968 186.977 132.581 186.977H165.944C166.556 186.977 167.053 186.508 167.053 185.928V185.726C167.053 185.146 166.556 184.677 165.944 184.677Z" fill="#E5E5E5"/>
<path opacity="0.68" d="M79.8639 155.458H58.699C58.0271 155.458 57.4824 155.973 57.4824 156.608C57.4824 157.243 58.0271 157.758 58.699 157.758H79.8639C80.5358 157.758 81.0805 157.243 81.0805 156.608C81.0805 155.973 80.5358 155.458 79.8639 155.458Z" fill="#E5E5E5"/>
<path opacity="0.68" d="M98.976 161.214H58.699C58.0271 161.214 57.4824 161.729 57.4824 162.364C57.4824 163 58.0271 163.515 58.699 163.515H98.976C99.6479 163.515 100.193 163 100.193 162.364C100.193 161.729 99.6479 161.214 98.976 161.214Z" fill="#E5E5E5"/>
<path d="M260.411 179.067L263.514 228.121L269.174 228.907L271.757 191.66L274.094 228.821L279.7 228.993C279.7 228.993 282.294 191.468 281.726 188.711C281.158 185.954 281.726 177.192 281.726 177.192L260.411 179.067Z" fill="#1E1E1E"/>
<path d="M259.527 174.303C256.788 172.732 254.135 166.069 255.314 164.452C256.734 162.511 258.851 149.052 260.722 147.506C262.592 145.961 264.961 144.851 267.426 144.937C270.331 145.038 273.547 143.751 276.259 144.795C277.786 145.383 279.062 146.452 280.3 147.506C282.246 149.153 283.762 176.898 281.581 179.939C278.789 183.795 273.043 183.922 268.182 183.658C266.505 183.567 264.757 183.455 263.289 182.645C259.591 180.623 259.13 178.388 259.527 174.303Z" fill="#FFD02B"/>
<path d="M259.854 135.573C259.632 136.993 259.938 138.442 260.722 139.672C261.767 141.192 263.75 142.14 264.104 143.893C264.27 144.694 264.05 145.525 264.104 146.341C264.157 147.157 264.64 148.069 265.524 148.145C265.835 148.159 266.144 148.095 266.419 147.958C267.38 147.432 268.152 146.644 268.633 145.698C270.24 143.037 271.28 139.921 270.776 136.88C270.273 133.839 268.005 130.961 264.849 130.221C260.958 129.309 260.197 132.684 259.854 135.573Z" fill="url(#paint17_linear)"/>
<path d="M260.186 130.15C260.631 131.645 261.965 132.765 263.375 133.566C264.085 133.91 264.751 134.332 265.358 134.822C267.223 136.55 266.767 139.408 266.751 141.871C266.751 143.62 267.051 145.449 268.155 146.848C270.047 149.25 273.606 149.711 276.768 149.792C277.108 149.834 277.453 149.768 277.749 149.604C277.981 149.411 278.131 149.144 278.172 148.854C278.794 146.103 276.055 143.533 276.281 140.746C276.404 139.16 277.465 137.772 277.808 136.216C278.306 133.961 277.235 131.609 275.664 129.856C275.032 129.101 274.223 128.496 273.301 128.088C271.644 127.434 269.699 127.804 268.021 127.201C267.046 126.856 266.226 126.187 265.261 125.827C262.598 124.814 259.43 127.616 260.186 130.15Z" fill="#606161"/>
<path d="M248.175 162.324C247.775 162.125 247.314 162.066 246.873 162.157C246.628 162.254 246.409 162.403 246.235 162.592C245.335 163.463 244.631 164.498 244.166 165.633C243.894 166.166 243.831 166.773 243.989 167.346C244.311 167.941 244.842 168.412 245.49 168.679C249.826 171.035 255.019 174.4 259.993 173.939C260.341 173.908 260.223 172.925 260.48 172.707C260.764 172.392 260.919 171.991 260.915 171.577C261.136 170.085 261.181 168.574 261.049 167.072C260.915 165.559 260.249 164.132 259.157 163.018C258.732 162.564 258.147 162.272 257.511 162.197C256.547 162.146 256.616 162.841 256.043 163.165C255.335 163.565 254.279 163.56 253.476 163.54C251.649 163.42 249.857 163.009 248.175 162.324V162.324Z" fill="#ECC024"/>
<path opacity="0.26" d="M265.476 159.035C265.476 159.035 263.868 171.197 259.527 174.283C259.527 174.283 258.037 181.799 264.886 183.091C266.556 183.621 268.33 183.794 270.079 183.598C270.079 183.598 263.418 185.508 264.677 172.875C265.937 160.241 265.476 159.035 265.476 159.035Z" fill="url(#paint18_linear)"/>
<path d="M256.032 149.559L252.908 153.228L252.452 154.495L253.679 153.765L257.592 148.991C257.571 148.887 257.515 148.792 257.433 148.719C257.352 148.647 257.248 148.6 257.136 148.586C256.767 148.561 256.032 149.559 256.032 149.559Z" fill="#606161"/>
<path d="M253.084 151.317C252.806 151.45 252.55 151.621 252.323 151.824C251.895 152.167 251.563 152.606 251.359 153.101C251.239 153.485 251.201 153.888 251.246 154.287C251.246 154.54 251.343 154.839 251.6 154.92C251.695 154.94 251.795 154.937 251.889 154.91C251.983 154.883 252.068 154.835 252.136 154.768C252.527 154.348 252.828 153.859 253.02 153.329C253.379 152.67 253.985 152.199 254.398 151.586C254.928 150.815 253.503 151.114 253.084 151.317Z" fill="url(#paint19_linear)"/>
<path d="M255.652 152.701C255.807 152.969 255.914 153.263 256.07 153.532C256.523 154.225 257.132 154.815 257.854 155.26C257.912 155.293 257.962 155.338 257.999 155.391C258.046 155.478 258.055 155.577 258.026 155.67C257.982 155.846 257.918 156.016 257.833 156.177L257.243 157.444C257.239 157.458 257.232 157.472 257.222 157.483C257.211 157.494 257.199 157.503 257.184 157.51C257.155 157.519 257.123 157.519 257.093 157.51L255.051 156.78C254.75 156.677 254.456 156.555 254.172 156.415C253.607 156.123 253.14 155.688 252.822 155.158C252.728 155.043 252.671 154.906 252.655 154.762C252.64 154.618 252.668 154.472 252.736 154.342C252.918 154.104 253.272 154.094 253.529 153.896C253.603 153.83 253.666 153.753 253.717 153.668C254.028 153.223 254.312 152.731 254.66 152.31C255.008 151.89 255.437 152.32 255.652 152.701Z" fill="url(#paint20_linear)"/>
<path d="M259.451 231.501C259.357 231.579 259.28 231.673 259.225 231.779C259.169 231.886 259.137 232.001 259.13 232.119C259.16 232.292 259.253 232.45 259.392 232.565C259.893 232.95 260.507 233.179 261.15 233.219C263.233 233.515 265.358 233.404 267.394 232.895C267.905 232.807 268.377 232.578 268.75 232.236C269.119 231.721 269.29 231.102 269.233 230.482L269.297 228.349C269.319 228.178 269.299 228.005 269.238 227.842C269.066 227.452 268.536 227.335 268.091 227.335C267.021 227.258 265.947 227.24 264.875 227.28C264.495 227.28 264.007 227.224 263.707 227.452C263.407 227.68 263.3 228.121 263.101 228.359C262.072 229.611 260.566 230.366 259.451 231.501Z" fill="#606161"/>
<path d="M270.176 231.527C270.083 231.601 270.008 231.692 269.955 231.795C269.901 231.898 269.871 232.01 269.865 232.124C269.891 232.291 269.981 232.442 270.117 232.55C270.599 232.925 271.193 233.148 271.816 233.189C273.828 233.473 275.879 233.366 277.846 232.874C278.34 232.788 278.797 232.566 279.159 232.236C279.514 231.739 279.678 231.141 279.625 230.543L279.689 228.481C279.705 228.322 279.685 228.161 279.63 228.01C279.464 227.63 278.955 227.538 278.526 227.503C277.492 227.431 276.454 227.412 275.418 227.447C275.053 227.447 274.582 227.401 274.292 227.619C274.003 227.837 273.896 228.263 273.703 228.496C272.706 229.682 271.253 230.417 270.176 231.527Z" fill="#606161"/>
</g>
<defs>
<filter id="filter0_dddi" x="0" y="0.000488281" width="351.567" height="272.155" filterUnits="userSpaceOnUse" color-interpolation-filters="sRGB">
<feFlood flood-opacity="0" result="BackgroundImageFix"/>
<feColorMatrix in="SourceAlpha" type="matrix" values="0 0 0 0 0 0 0 0 0 0 0 0 0 0 0 0 0 0 127 0"/>
<feOffset dx="-9" dy="-12"/>
<feGaussianBlur stdDeviation="18"/>
<feColorMatrix type="matrix" values="0 0 0 0 1 0 0 0 0 1 0 0 0 0 1 0 0 0 1 0"/>
<feBlend mode="normal" in2="BackgroundImageFix" result="effect1_dropShadow"/>
<feColorMatrix in="SourceAlpha" type="matrix" values="0 0 0 0 0 0 0 0 0 0 0 0 0 0 0 0 0 0 127 0"/>
<feOffset dx="9" dy="12"/>
<feGaussianBlur stdDeviation="12"/>
<feColorMatrix type="matrix" values="0 0 0 0 0.716667 0 0 0 0 0.716667 0 0 0 0 0.716667 0 0 0 0.33 0"/>
<feBlend mode="normal" in2="effect1_dropShadow" result="effect2_dropShadow"/>
<feColorMatrix in="SourceAlpha" type="matrix" values="0 0 0 0 0 0 0 0 0 0 0 0 0 0 0 0 0 0 127 0"/>
<feOffset dx="-6" dy="-18"/>
<feGaussianBlur stdDeviation="2"/>
<feColorMatrix type="matrix" values="0 0 0 0 1 0 0 0 0 1 0 0 0 0 1 0 0 0 0.38 0"/>
<feBlend mode="normal" in2="effect2_dropShadow" result="effect3_dropShadow"/>
<feBlend mode="normal" in="SourceGraphic" in2="effect3_dropShadow" result="shape"/>
<feColorMatrix in="SourceAlpha" type="matrix" values="0 0 0 0 0 0 0 0 0 0 0 0 0 0 0 0 0 0 127 0" result="hardAlpha"/>
<feOffset dx="4" dy="6"/>
<feGaussianBlur stdDeviation="3"/>
<feComposite in2="hardAlpha" operator="arithmetic" k2="-1" k3="1"/>
<feColorMatrix type="matrix" values="0 0 0 0 1 0 0 0 0 1 0 0 0 0 1 0 0 0 0.08 0"/>
<feBlend mode="normal" in2="shape" result="effect4_innerShadow"/>
</filter>
<filter id="filter1_d" x="41" y="77.0117" width="281.567" height="125.887" filterUnits="userSpaceOnUse" color-interpolation-filters="sRGB">
<feFlood flood-opacity="0" result="BackgroundImageFix"/>
<feColorMatrix in="SourceAlpha" type="matrix" values="0 0 0 0 0 0 0 0 0 0 0 0 0 0 0 0 0 0 127 0"/>
<feOffset dy="4"/>
<feGaussianBlur stdDeviation="2"/>
<feColorMatrix type="matrix" values="0 0 0 0 0 0 0 0 0 0 0 0 0 0 0 0 0 0 0.25 0"/>
<feBlend mode="normal" in2="BackgroundImageFix" result="effect1_dropShadow"/>
<feBlend mode="normal" in="SourceGraphic" in2="effect1_dropShadow" result="shape"/>
</filter>
<linearGradient id="paint0_linear" x1="178.249" y1="163.409" x2="197.764" y2="307.148" gradientUnits="userSpaceOnUse">
<stop stop-color="#010101" stop-opacity="0"/>
<stop offset="0.95" stop-color="#010101"/>
</linearGradient>
<linearGradient id="paint1_linear" x1="45" y1="156.172" x2="306.093" y2="185.53" gradientUnits="userSpaceOnUse">
<stop offset="0.442708" stop-color="#B5B5B5"/>
<stop offset="1" stop-color="#E5E5E5" stop-opacity="0"/>
</linearGradient>
<linearGradient id="paint2_linear" x1="186.958" y1="-8.23467" x2="179.88" y2="212.312" gradientUnits="userSpaceOnUse">
<stop stop-color="white" stop-opacity="0"/>
<stop offset="0.95" stop-color="white"/>
</linearGradient>
<linearGradient id="paint3_linear" x1="11206.2" y1="14417.3" x2="19056.7" y2="16047.9" gradientUnits="userSpaceOnUse">
<stop stop-color="#010101" stop-opacity="0"/>
<stop offset="0.95" stop-color="#010101"/>
</linearGradient>
<linearGradient id="paint4_linear" x1="7830.77" y1="3366.84" x2="7791.43" y2="4588.52" gradientUnits="userSpaceOnUse">
<stop stop-color="white" stop-opacity="0"/>
<stop offset="0.95" stop-color="white"/>
</linearGradient>
<linearGradient id="paint5_linear" x1="241.352" y1="160.702" x2="247.194" y2="160.702" gradientUnits="userSpaceOnUse">
<stop stop-color="#E5C6D6"/>
<stop offset="0.42" stop-color="#EAD4D0"/>
<stop offset="1" stop-color="#F0E9CB"/>
</linearGradient>
<linearGradient id="paint6_linear" x1="1079.89" y1="622.148" x2="1109.62" y2="1353.58" gradientUnits="userSpaceOnUse">
<stop stop-color="#010101" stop-opacity="0"/>
<stop offset="0.95" stop-color="#010101"/>
</linearGradient>
<linearGradient id="paint7_linear" x1="1074.68" y1="631.726" x2="1104.47" y2="1363.22" gradientUnits="userSpaceOnUse">
<stop stop-color="#010101" stop-opacity="0"/>
<stop offset="0.95" stop-color="#010101"/>
</linearGradient>
<linearGradient id="paint8_linear" x1="1964.1" y1="615.09" x2="1993.83" y2="1346.52" gradientUnits="userSpaceOnUse">
<stop stop-color="#010101" stop-opacity="0"/>
<stop offset="0.95" stop-color="#010101"/>
</linearGradient>
<linearGradient id="paint9_linear" x1="2849.25" y1="615.09" x2="2878.98" y2="1346.52" gradientUnits="userSpaceOnUse">
<stop stop-color="#010101" stop-opacity="0"/>
<stop offset="0.95" stop-color="#010101"/>
</linearGradient>
<linearGradient id="paint10_linear" x1="1964.1" y1="782.424" x2="1993.83" y2="1513.91" gradientUnits="userSpaceOnUse">
<stop stop-color="#010101" stop-opacity="0"/>
<stop offset="0.95" stop-color="#010101"/>
</linearGradient>
<linearGradient id="paint11_linear" x1="1964.1" y1="949.819" x2="1993.82" y2="1681.25" gradientUnits="userSpaceOnUse">
<stop stop-color="#010101" stop-opacity="0"/>
<stop offset="0.95" stop-color="#010101"/>
</linearGradient>
<linearGradient id="paint12_linear" x1="1074.68" y1="887.087" x2="1104.47" y2="1618.52" gradientUnits="userSpaceOnUse">
<stop stop-color="#010101" stop-opacity="0"/>
<stop offset="0.95" stop-color="#010101"/>
</linearGradient>
<linearGradient id="paint13_linear" x1="1074.68" y1="994.9" x2="1104.47" y2="1726.34" gradientUnits="userSpaceOnUse">
<stop stop-color="#010101" stop-opacity="0"/>
<stop offset="0.95" stop-color="#010101"/>
</linearGradient>
<linearGradient id="paint14_linear" x1="1074.68" y1="1102.7" x2="1104.47" y2="1834.14" gradientUnits="userSpaceOnUse">
<stop stop-color="#010101" stop-opacity="0"/>
<stop offset="0.95" stop-color="#010101"/>
</linearGradient>
<linearGradient id="paint15_linear" x1="1074.68" y1="1298.47" x2="1104.47" y2="2029.91" gradientUnits="userSpaceOnUse">
<stop stop-color="#010101" stop-opacity="0"/>
<stop offset="0.95" stop-color="#010101"/>
</linearGradient>
<linearGradient id="paint16_linear" x1="1074.68" y1="1487.83" x2="1104.47" y2="2219.26" gradientUnits="userSpaceOnUse">
<stop stop-color="#010101" stop-opacity="0"/>
<stop offset="0.95" stop-color="#010101"/>
</linearGradient>
<linearGradient id="paint17_linear" x1="5179.95" y1="3718.57" x2="5406.25" y2="3698.14" gradientUnits="userSpaceOnUse">
<stop stop-color="#E5C6D6"/>
<stop offset="0.42" stop-color="#EAD4D0"/>
<stop offset="1" stop-color="#F0E9CB"/>
</linearGradient>
<linearGradient id="paint18_linear" x1="4869.47" y1="7034.53" x2="4096.42" y2="6657.79" gradientUnits="userSpaceOnUse">
<stop stop-color="#010101" stop-opacity="0"/>
<stop offset="0.95" stop-color="#010101"/>
</linearGradient>
<linearGradient id="paint19_linear" x1="1536.53" y1="1017.09" x2="1556.65" y2="1017.09" gradientUnits="userSpaceOnUse">
<stop stop-color="#E5C6D6"/>
<stop offset="0.42" stop-color="#EAD4D0"/>
<stop offset="1" stop-color="#F0E9CB"/>
</linearGradient>
<linearGradient id="paint20_linear" x1="2375.07" y1="1382.26" x2="2429.36" y2="1382.26" gradientUnits="userSpaceOnUse">
<stop stop-color="#E5C6D6"/>
<stop offset="0.42" stop-color="#EAD4D0"/>
<stop offset="1" stop-color="#F0E9CB"/>
</linearGradient>
</defs>
</svg>
