<svg width="391" height="280" viewBox="0 0 391 280" fill="none" xmlns="http://www.w3.org/2000/svg">
<g filter="url(#filter0_dddi)">
<path opacity="0.18" d="M92.5161 127.421C99.5247 120 109.956 116.535 116.908 109.061C126.34 98.9218 127.544 83.5836 135.041 71.956C140.342 63.755 148.562 57.7613 157.495 53.8312C173.123 47.0297 190.694 46.1535 206.922 51.3663C214.412 53.8085 221.572 57.5417 229.387 58.5034C242.954 60.1694 258.088 53.5321 269.686 60.7752C277.637 65.7352 280.629 75.587 283.65 84.462C287.69 96.3244 293.813 102.307 299.761 119.674C302.522 127.739 311.726 133.278 311.405 141.794C311.317 144.141 310.583 146.572 308.852 148.155C307.463 149.427 305.6 150.017 303.801 150.566C241.568 169.48 176.702 178.277 111.679 176.623C98.8432 176.294 91.1265 174.181 87.4764 161.838C83.9398 149.885 83.2886 137.186 92.5161 127.421Z" fill="#EAEAEA"/>
<path d="M243.525 100.781C243.806 99.853 244.502 99.0995 244.805 98.1795C245.055 97.4222 245.025 96.6044 245.225 95.8358C245.59 94.6098 246.417 93.5737 247.531 92.9469C248.643 92.3334 249.879 91.9812 251.147 91.917C253.857 91.7008 256.56 92.4095 258.815 93.9275C261.063 95.4654 262.633 97.8096 263.2 100.474C263.309 101.315 263.482 102.147 263.718 102.962C264.01 103.757 264.597 104.51 265.418 104.715L265.339 105.661C266.086 105.812 266.772 106.179 267.311 106.718C267.85 107.257 268.217 107.943 268.368 108.69C268.603 109.951 268.186 111.299 268.588 112.518C268.966 113.654 269.958 114.51 270.102 115.676C270.137 116.395 269.994 117.111 269.686 117.762C269.097 119.292 268.459 120.799 267.77 122.283C266.713 121.147 265.611 120.011 264.188 119.398C263.332 119.019 262.401 118.89 261.537 118.591C256.842 116.986 254.635 111.42 250.235 109.126C249.247 108.607 247.986 108.436 247.054 107.85C246.354 107.407 246.335 106.801 245.918 106.15C244.786 104.408 242.802 103.2 243.525 100.781Z" fill="#1E1E1E"/>
<path d="M246.195 111.605C246.468 112.874 247.373 113.907 248.323 114.793C248.815 115.252 249.357 115.725 249.52 116.38C249.548 116.596 249.612 116.806 249.709 117.001C249.978 117.379 250.58 117.326 251.008 117.122C251.517 116.858 251.96 116.482 252.305 116.023C252.65 115.565 252.887 115.034 252.999 114.472C253.216 113.343 253.084 112.176 252.621 111.125C252.221 110.153 251.619 109.278 250.856 108.556C250.093 107.835 249.186 107.283 248.194 106.937C245.87 106.244 245.892 110.186 246.195 111.605Z" fill="#282828"/>
<path d="M357.97 167.68C358.488 162.826 352.248 160.335 347.368 160.172C337.175 159.835 327.152 162.444 317.095 164.125C290.731 168.573 263.707 166.866 237.123 169.615C216.502 171.746 196.271 176.54 175.957 180.671C152.103 185.517 128.089 189.451 104.015 193.048C92.2396 194.809 80.3314 197.122 68.4686 198.133C62.9972 198.602 47.9273 197.815 46.0417 205.656C45.5911 207.523 47.9122 208.746 49.7637 209.246C65.0532 213.388 80.3617 217.53 95.9579 220.366C106.079 222.21 116.348 223.508 126.143 226.647C134.712 229.396 142.803 233.512 151.345 236.317C165.813 241.069 181.224 241.951 196.43 242.792C200.217 243.004 204.003 243.208 207.733 242.584C212.534 241.777 216.987 239.626 221.364 237.499L351.332 174.332" fill="url(#paint0_linear)"/>
<path d="M137.631 117.077L143.435 104.063C143.435 104.063 149.725 101.034 154.075 103.651C158.426 106.267 154.742 115.074 154.075 117.857C153.409 120.64 149.119 121.726 147.487 120.454C145.855 119.182 143.719 122.949 143.719 122.949L137.631 117.077Z" fill="url(#paint1_linear)"/>
<path d="M347.83 169.759L174.034 231.577C166.683 234.193 158.66 234.225 151.289 231.668L64.5534 201.56C63.9013 201.335 63.2929 200.999 62.7548 200.568C61.6253 199.654 60.8982 198.334 60.7291 196.891C60.6986 196.646 60.6835 196.4 60.6836 196.153C60.6584 194.829 61.0997 193.538 61.9304 192.506C62.7611 191.475 63.9282 190.769 65.2273 190.511L73.3795 188.796L161.247 170.285L256.982 150.112L296.967 156.757L326.153 161.618L347.83 169.759Z" fill="url(#paint2_linear)"/>
<path d="M356.107 157.514C356.107 160.2 355.275 162.819 353.727 165.014C352.178 167.208 349.989 168.87 347.458 169.77L173.662 231.588C166.312 234.204 158.289 234.236 150.917 231.679L64.1746 201.559C63.5226 201.334 62.9142 200.999 62.3761 200.567L60.3579 196.891L60.3125 196.808V180.292L160.891 170.281L296.596 156.757L349.477 151.494C350.655 151.375 351.841 151.606 352.889 152.158C353.936 152.711 354.797 153.559 355.365 154.598" fill="#EAEAEA"/>
<path d="M356.107 157.514C356.107 160.2 355.275 162.819 353.727 165.014C352.178 167.208 349.989 168.87 347.458 169.77L173.662 231.588C166.312 234.204 158.289 234.236 150.917 231.679L64.1746 201.559C63.5226 201.334 62.9142 200.999 62.3761 200.567L60.3579 196.891L60.3125 196.808V180.292L160.891 170.281L296.596 156.757L349.477 151.494C350.655 151.375 351.841 151.606 352.889 152.158C353.936 152.711 354.797 153.559 355.365 154.598" fill="url(#paint3_linear)"/>
<path d="M355.728 154.61C355.086 156.438 354.042 158.099 352.674 159.472C351.306 160.844 349.648 161.893 347.822 162.542L174.026 224.364C166.675 226.978 158.652 227.009 151.281 224.451L64.5535 194.343C63.9017 194.119 63.2933 193.785 62.755 193.355L60.7368 189.674L60.6914 189.591V180.292L161.27 170.281L296.967 156.757L349.848 151.494C351.026 151.375 352.213 151.606 353.26 152.158C354.307 152.711 355.168 153.559 355.736 154.598" fill="url(#paint4_linear)"/>
<path d="M352.767 151.94L174.049 215.739C166.698 218.355 158.674 218.386 151.304 215.826L64.5533 185.718C59.0555 183.824 59.5553 175.873 65.2538 174.669L248.558 134.118C250.853 133.609 253.228 133.568 255.54 133.997L348.076 150.358C348.788 150.483 353.452 151.694 352.767 151.94" fill="#EAEAEA"/>
<path d="M247.615 118.36C247.615 118.36 239.818 127.602 236.956 130.631C233.067 134.747 222.128 130.631 222.128 130.631L226.57 139.68L230.958 140.29L246.248 129.31L247.615 118.36Z" fill="url(#paint5_linear)"/>
<path d="M220.001 128.125L219.607 127.057H221.451V126.288H222.992V125.539L225.597 126.345L229.474 127.284L230.504 126.833L242.625 129.734L242.439 130.442L230.11 135.708L224.836 134.841L220.001 128.125Z" fill="#EAEAEA"/>
<path d="M173.186 120.484C173.186 120.484 175.041 109.97 175.526 106.521C176.408 100.198 178.858 98.0204 181.417 97.6759C191.947 96.2674 194.73 95.9645 206.029 97.5623C211.591 98.3498 212.765 119.791 212.988 125.834C213.024 126.844 212.736 127.839 212.167 128.674L208.225 131.487L207.059 141.381L178.581 142.876L178.312 131.798L167.063 131.54L167.4 122.96L173.186 120.484Z" fill="#FFD02B"/>
<path d="M178.316 131.798L179.967 108.062C179.967 108.062 191.228 107.728 191.178 109.474C191.129 111.219 182.969 127.296 182.969 127.296L178.316 131.798Z" fill="url(#paint6_linear)"/>
<path d="M197.759 96.4415C198.418 96.3402 199.091 96.4586 199.675 96.7785C199.675 96.7785 198.274 102.897 193.064 105.256C187.854 107.615 186.934 99.3115 186.934 99.3115L197.759 96.4415Z" fill="url(#paint7_linear)"/>
<path d="M164.431 122.146C164.28 122.133 164.128 122.158 163.988 122.218C163.67 122.396 163.704 122.896 163.943 123.172C164.214 123.418 164.527 123.611 164.867 123.744C164.937 123.773 165.001 123.815 165.054 123.869C165.108 123.923 165.149 123.988 165.177 124.058C165.196 124.164 165.18 124.273 165.132 124.369C164.806 125.156 163.856 125.433 163.038 125.668C161.798 126.026 160.597 126.506 159.452 127.103C159.311 127.156 159.195 127.26 159.127 127.394C159.013 127.735 159.505 127.947 159.854 127.97C160.722 128.034 161.594 128.034 162.462 127.97C162.235 128.129 161.974 128.348 162.034 128.632C162.095 128.916 162.36 128.992 162.602 129.011C162.847 129.001 163.092 129.028 163.329 129.09C163.708 129.246 163.882 129.715 164.231 129.95C164.578 130.137 164.982 130.192 165.367 130.105C166.102 130.018 166.828 129.86 167.532 129.632C167.947 129.52 168.333 129.324 168.668 129.056C169.042 128.664 169.303 128.179 169.426 127.652C169.781 126.516 170.24 124.244 169.248 123.271C168.256 122.298 165.719 122.18 164.431 122.146Z" fill="url(#paint8_linear)"/>
<path d="M143.716 122.949L152.167 136.628C152.167 136.628 154.882 141.517 158.078 140.854C161.273 140.191 164.265 136.189 164.265 136.189L168.509 140.551C168.509 140.551 161.826 151.834 154.526 150.846C150.463 150.297 141.754 141.846 141.754 141.846L143.716 122.949Z" fill="#E2BA2B"/>
<path d="M143.716 122.949L152.167 136.628C152.167 136.628 154.882 141.517 158.078 140.854C161.273 140.191 164.265 136.189 164.265 136.189L168.509 140.551C168.509 140.551 161.826 151.834 154.526 150.846C150.463 150.297 141.754 141.846 141.754 141.846L143.716 122.949Z" fill="url(#paint9_linear)"/>
<path d="M71.6416 173.231L238.425 139.366L332.351 157.177L182.879 209.363L71.6416 173.231Z" fill="url(#paint10_linear)"/>
<path opacity="0.18" d="M161.932 183.427C163.659 189.198 170.035 193.158 175.972 192.136C179.948 191.458 183.314 188.929 186.794 186.884C195.379 181.869 205.272 179.549 215.192 180.224C221.11 180.644 227.407 182.068 232.738 179.467C236.434 177.661 239.02 174.166 242.439 171.894C245.332 169.963 248.721 168.945 251.852 167.442C256.729 165.102 262.268 158.957 270.106 153.239C274.733 149.866 282.772 146.746 284.904 144.372C280.515 143.179 276.547 148.226 270.106 148.916C256.638 150.32 238.861 149.453 229.429 150.669C218.179 152.115 206.919 153.565 195.806 155.822C172.069 160.638 148.903 166.934 125 170.997C120.252 171.807 107.991 172.512 105.034 177.233C100.627 184.294 114.595 187.6 119.108 188.153C122.724 188.584 162.936 186.778 161.932 183.427Z" fill="#1D2741"/>
<path d="M212.773 165.007C212.773 165.007 207.695 165.188 206.76 166.461C205.825 167.733 207.71 168.782 207.71 168.782L217.854 164.647L212.773 165.007Z" fill="#25233A"/>
<path d="M209.527 141.846C209.527 141.846 212.201 141.702 213.469 143.789C214.737 145.875 214.737 150.843 214.737 150.843C214.737 150.843 212.602 153.512 210.228 152.592C207.854 151.672 208.846 146.458 208.846 146.458L209.527 141.846Z" fill="#282828"/>
<path d="M183.59 160.142L192.155 155.42L191.883 146.651C191.883 146.651 181.879 150.404 181.712 150.907C181.546 151.411 183.59 160.142 183.59 160.142Z" fill="#1E1E1E"/>
<path d="M178.146 135.978C178.146 135.978 170.925 152.728 173.151 157.514C174.431 160.263 177.653 161.099 180.16 161.3C181.055 161.378 181.95 161.149 182.698 160.651C183.446 160.153 184.003 159.415 184.276 158.559C186.059 152.951 190.417 142.126 192.788 160.793C193.166 163.86 203.689 162.383 205.404 160.884C207.119 159.384 211.046 150.104 211.046 150.104C211.046 150.104 210.216 147.208 208.569 146.458C208.569 146.458 210.769 138.223 207.312 136.924C207.301 136.928 182.545 143.671 178.146 135.978Z" fill="#EAEAEA"/>
<path d="M178.146 135.978C178.146 135.978 170.925 152.728 173.151 157.514C174.431 160.263 177.653 161.099 180.16 161.3C181.055 161.378 181.95 161.149 182.698 160.651C183.446 160.153 184.003 159.415 184.276 158.559C186.059 152.951 190.417 142.126 192.788 160.793C193.166 163.86 203.689 162.383 205.404 160.884C207.119 159.384 211.046 150.104 211.046 150.104C211.046 150.104 210.216 147.208 208.569 146.458C208.569 146.458 210.769 138.223 207.312 136.924C207.301 136.928 182.545 143.671 178.146 135.978Z" fill="url(#paint11_linear)"/>
<path d="M140.834 150.842C140.834 150.842 172.208 159.475 178.013 162.243C183.818 165.01 185.105 165.272 185.105 165.272L182.879 171.735L122.516 165.525L140.834 150.842Z" fill="#EAEAEA"/>
<path d="M140.834 150.842C140.834 150.842 172.208 159.475 178.013 162.243C183.818 165.01 185.105 165.272 185.105 165.272L182.879 171.735L122.516 165.525L140.834 150.842Z" fill="url(#paint12_linear)"/>
<path d="M183.753 169.175L171.985 166.211L165.598 157.995L139.725 166.211L140.876 167.937L182.879 171.716L183.753 169.175Z" fill="#192333"/>
<path d="M101.505 186.778L123.954 194.006C124.117 194.063 124.295 194.063 124.458 194.006L124.636 193.938C124.782 193.881 124.907 193.781 124.994 193.65C125.08 193.52 125.125 193.366 125.12 193.209C125.115 193.053 125.062 192.901 124.968 192.776C124.874 192.651 124.743 192.558 124.594 192.51L101.967 185.354C101.808 185.297 101.634 185.297 101.475 185.354V185.354C101.329 185.41 101.205 185.51 101.118 185.639C101.032 185.768 100.987 185.921 100.99 186.077C100.994 186.232 101.045 186.383 101.137 186.508C101.229 186.634 101.357 186.728 101.505 186.778Z" fill="#25233A"/>
<path d="M275.029 143.372L303.305 148.832C304.036 148.975 304.792 148.904 305.483 148.627L307.754 147.73C307.935 147.661 308.087 147.535 308.189 147.371C308.29 147.207 308.335 147.014 308.317 146.822C308.298 146.63 308.217 146.449 308.086 146.308C307.955 146.166 307.782 146.071 307.592 146.038L280.379 140.953C279.559 140.798 278.713 140.854 277.921 141.116L274.957 142.085C274.816 142.13 274.695 142.22 274.612 142.342C274.528 142.463 274.487 142.609 274.496 142.756C274.504 142.903 274.561 143.044 274.657 143.155C274.753 143.266 274.884 143.343 275.029 143.372V143.372Z" fill="#EAEAEA"/>
<path d="M275.029 143.372L303.305 148.832C304.036 148.975 304.792 148.904 305.483 148.627L307.754 147.73C307.935 147.661 308.087 147.535 308.189 147.371C308.29 147.207 308.335 147.014 308.317 146.822C308.298 146.63 308.217 146.449 308.086 146.308C307.955 146.166 307.782 146.071 307.592 146.038L280.379 140.953C279.559 140.798 278.713 140.854 277.921 141.116L274.957 142.085C274.816 142.13 274.695 142.22 274.612 142.342C274.528 142.463 274.487 142.609 274.496 142.756C274.504 142.903 274.561 143.044 274.657 143.155C274.753 143.266 274.884 143.343 275.029 143.372V143.372Z" fill="#282828"/>
<path d="M275.028 142.145L303.305 147.609C304.036 147.748 304.791 147.678 305.483 147.404L307.754 146.507C307.934 146.438 308.087 146.312 308.189 146.148C308.29 145.984 308.335 145.791 308.317 145.599C308.298 145.407 308.217 145.226 308.086 145.085C307.955 144.943 307.782 144.848 307.592 144.815L280.379 139.718C279.559 139.564 278.714 139.619 277.921 139.877L274.949 140.854C274.807 140.899 274.684 140.99 274.6 141.112C274.515 141.235 274.475 141.382 274.484 141.531C274.493 141.679 274.551 141.821 274.65 141.932C274.749 142.043 274.882 142.118 275.028 142.145V142.145Z" fill="#EAEAEA"/>
<path d="M173.004 117.024C173.004 117.024 173.704 115.926 175.609 116.032C177.513 116.138 181.012 117.054 181.012 117.054L168.896 142.846H163C162.759 142.846 162.523 142.785 162.312 142.669C162.101 142.553 161.923 142.386 161.794 142.183C161.665 141.979 161.59 141.747 161.575 141.507C161.56 141.267 161.606 141.027 161.709 140.809L173.004 117.024Z" fill="#EAEAEA"/>
<path d="M173.004 117.024C173.004 117.024 173.704 115.926 175.609 116.032C177.513 116.138 181.012 117.054 181.012 117.054L168.896 142.846H163C162.759 142.846 162.523 142.785 162.312 142.669C162.101 142.553 161.923 142.386 161.794 142.183C161.665 141.979 161.59 141.747 161.575 141.507C161.56 141.267 161.606 141.027 161.709 140.809L173.004 117.024Z" fill="url(#paint13_linear)"/>
<path d="M174.272 117.024C174.272 117.024 174.976 115.926 176.881 116.032C178.157 116.152 179.422 116.364 180.667 116.668C180.861 116.712 181.042 116.798 181.198 116.922C181.353 117.045 181.479 117.202 181.566 117.38C181.653 117.559 181.698 117.754 181.7 117.953C181.701 118.151 181.657 118.347 181.572 118.527L170.649 141.824C170.505 142.129 170.278 142.388 169.993 142.569C169.708 142.75 169.377 142.846 169.039 142.846H164.265C164.024 142.846 163.787 142.786 163.576 142.67C163.365 142.554 163.187 142.386 163.059 142.183C162.93 141.979 162.855 141.747 162.841 141.506C162.827 141.266 162.874 141.026 162.977 140.809L174.272 117.024Z" fill="url(#paint14_linear)"/>
<path d="M114.049 165.34C114.049 165.34 108.688 149.388 123.515 129.711C129.104 122.29 133.572 118.545 136.968 116.758C140.69 114.801 145.094 117.837 144.659 122.021C143.659 131.627 141.777 149.767 141.777 149.914C141.777 150.062 119.343 168.414 114.049 165.34Z" fill="#FFD02B"/>
<path d="M175.525 174.469C173.618 175.449 171.577 176.145 169.467 176.532C168.812 176.653 168.153 176.744 167.494 176.805C162.311 172.833 157.453 168.453 152.966 163.708C143.568 170.327 132.576 176.123 121.16 174.836C119.744 174.738 118.365 174.342 117.112 173.674C116.288 173.147 115.559 172.485 114.954 171.716C113.981 170.516 113.212 169.066 113.129 167.816C112.951 165.166 115.17 164.288 117.343 163.091C127.778 157.351 138.708 152.562 150.001 148.783C152.485 147.95 155.226 147.17 157.676 148.105C160.126 149.04 161.633 151.418 162.977 153.656L175.525 174.469Z" fill="#EAEAEA"/>
<path d="M175.525 174.469C173.618 175.449 171.577 176.145 169.467 176.532C168.812 176.653 168.153 176.744 167.494 176.805C162.311 172.833 157.453 168.453 152.966 163.708C143.568 170.327 132.576 176.123 121.16 174.836C119.744 174.738 118.365 174.342 117.112 173.674C116.288 173.147 115.559 172.485 114.954 171.716C113.981 170.516 113.212 169.066 113.129 167.816C112.951 165.166 115.17 164.288 117.343 163.091C127.778 157.351 138.708 152.562 150.001 148.783C152.485 147.95 155.226 147.17 157.676 148.105C160.126 149.04 161.633 151.418 162.977 153.656L175.525 174.469Z" fill="url(#paint15_linear)"/>
<path d="M162.511 127.527C163.058 127.326 163.628 127.199 164.208 127.148C165.454 126.989 165.946 126.66 167.199 126.705C168.581 126.705 167.544 127.701 167.146 127.841C166.733 127.944 166.342 128.12 165.991 128.36C165.404 128.859 165.469 129.753 165.378 130.518C165.243 131.634 164.681 132.654 163.81 133.365C162.939 134.075 161.826 134.42 160.705 134.327C160.555 134.33 160.406 134.3 160.269 134.239C160.131 134.178 160.009 134.088 159.91 133.975C159.809 133.791 159.76 133.582 159.77 133.373C159.721 132.32 159.331 130.756 159.891 129.813C160.274 129.151 161.678 127.527 162.511 127.527Z" fill="url(#paint16_linear)"/>
<path d="M131.603 127.296C131.603 127.296 119.888 146.95 122.573 159.857C122.573 159.857 142.872 151.842 141.762 149.903C140.653 147.965 140.85 127.284 140.85 127.284L131.603 127.296Z" fill="url(#paint17_linear)"/>
<path d="M131.603 127.296C131.603 127.296 137.631 145.507 140.66 147.976C143.689 150.445 160.728 134.796 160.728 134.796V128.738L146.166 135.073C146.166 135.073 145.389 119.927 143.935 118.989C142.481 118.05 133.417 117.001 131.603 127.296Z" fill="url(#paint18_linear)"/>
<path d="M131.603 127.296C131.603 127.296 137.631 145.507 140.66 147.976C143.689 150.445 160.728 134.796 160.728 134.796V128.738L146.166 135.073C146.166 135.073 145.389 119.927 143.935 118.989C142.481 118.05 133.417 117.001 131.603 127.296Z" fill="url(#paint19_linear)"/>
<path d="M139.865 101.383C139.069 101.999 138.53 102.888 138.35 103.878C138.177 104.857 138.084 105.848 138.074 106.843C137.985 108.292 137.765 109.73 137.415 111.14C137.52 111.049 137.655 111.003 137.794 111.011C137.851 111.406 137.869 111.806 137.847 112.204L138.471 112.102C138.471 113.079 138.434 114.055 138.358 115.032C139.914 114.23 141.092 112.866 142.231 111.538C142.3 111.465 142.358 111.382 142.402 111.291C142.445 111.144 142.454 110.989 142.428 110.837C142.315 110.139 142.433 109.424 142.765 108.8C143.144 108.209 143.969 107.861 144.575 108.206C145.351 108.649 145.287 109.758 145.51 110.621C145.892 109.857 146.169 109.044 146.332 108.206C146.367 107.891 146.464 107.587 146.62 107.312C146.796 107.093 147.02 106.917 147.275 106.797C148.783 105.994 150.526 105.749 152.197 106.104C153.125 106.309 154.06 106.699 154.995 106.521C155.202 106.455 155.42 106.436 155.635 106.464C156.014 106.555 156.294 107.024 156.673 106.933C156.773 106.892 156.864 106.83 156.938 106.751C157.013 106.672 157.069 106.578 157.104 106.475C157.499 105.613 157.66 104.662 157.569 103.718C157.479 102.774 157.141 101.87 156.589 101.099C157.223 101.265 157.873 101.36 158.528 101.383C155.9 97.7366 151.163 95.6769 146.733 96.4341C145.746 96.5609 144.806 96.9332 144 97.517C143.564 97.8765 143.205 98.3204 142.944 98.822C142.684 99.3236 142.528 99.8727 142.485 100.436C142.402 101.258 142.254 101.015 141.55 100.944C140.954 100.888 140.358 101.043 139.865 101.383V101.383Z" fill="#1E1E1E"/>
<path d="M143.364 109.746C143.364 110.015 143.432 110.28 143.447 110.549C143.474 111.022 143.349 111.549 143.617 111.942C143.789 112.15 144.011 112.312 144.261 112.412C144.334 112.46 144.421 112.481 144.507 112.473C144.562 112.454 144.611 112.421 144.649 112.378C144.688 112.335 144.714 112.283 144.727 112.226C144.834 111.855 144.834 111.462 144.727 111.091C144.625 110.732 144.549 110.366 144.5 109.996C144.477 109.727 144.545 109.338 144.356 109.107C143.909 108.569 143.36 109.273 143.364 109.746Z" fill="url(#paint20_linear)"/>
<path d="M175.117 127.557C174.855 127.265 174.458 126.955 174.121 127.148C173.784 127.341 173.871 127.905 174.03 128.284C174.189 128.662 174.382 129.136 174.56 129.56C174.369 129.212 174.128 128.894 173.844 128.617C173.759 128.518 173.643 128.45 173.515 128.424C173.415 128.426 173.32 128.463 173.244 128.528C173.168 128.593 173.117 128.682 173.098 128.78C173.07 128.978 173.09 129.181 173.155 129.37L173.587 131.036C173.347 130.679 173.023 130.385 172.644 130.181C172.591 130.14 172.528 130.113 172.461 130.105C172.395 130.096 172.327 130.105 172.265 130.131C172.118 130.222 172.129 130.438 172.167 130.608C172.346 131.412 172.617 132.192 172.973 132.933C172.765 132.717 172.462 132.483 172.216 132.627C171.97 132.77 172.019 133.244 172.163 133.554L172.996 135.372C173.06 135.574 173.194 135.746 173.375 135.856C173.753 136.004 174.094 135.606 174.291 135.262C174.927 134.141 175.48 132.976 175.946 131.775C176.211 131.101 176.563 130.218 176.381 129.503C176.2 128.787 175.586 128.091 175.117 127.557Z" fill="url(#paint21_linear)"/>
<path d="M183.257 170.622H186.294L187.865 166.211L185.105 165.253L183.257 170.622Z" fill="url(#paint22_linear)"/>
<path d="M192.466 158.18C192.772 157.683 193.177 157.254 193.655 156.919C193.895 156.756 194.177 156.663 194.467 156.652C194.758 156.64 195.045 156.711 195.298 156.855C195.498 157.023 195.663 157.23 195.783 157.462C195.903 157.695 195.975 157.949 195.995 158.21C196.226 159.66 195.923 161.137 195.597 162.568C194.905 165.63 194.118 168.668 193.234 171.682C193.224 171.801 193.188 171.916 193.128 172.018C193.067 172.121 192.985 172.209 192.886 172.276C192.787 172.342 192.674 172.386 192.556 172.403C192.438 172.42 192.318 172.41 192.204 172.375C190.434 172.264 188.685 171.925 187.002 171.364C186.751 171.31 186.527 171.17 186.37 170.966C186.309 170.81 186.283 170.642 186.295 170.474C186.307 170.306 186.355 170.143 186.438 169.997C188.077 165.794 189.819 161.883 192.466 158.18Z" fill="#282828"/>
<path d="M169.929 176.441L172.277 178.516L176.923 176.805L175.522 174.469L169.929 176.441Z" fill="url(#paint23_linear)"/>
<path d="M172.277 178.52L174.84 183.639L188.369 179.788C188.369 179.788 189.077 177.448 185.931 177.206C182.784 176.964 176.923 176.824 176.923 176.824L172.277 178.52Z" fill="#282828"/>
<path d="M171.289 175.714L169.475 176.532C168.82 176.653 168.161 176.744 167.502 176.805C162.319 172.832 157.46 168.453 152.974 163.708C143.576 170.326 132.584 176.123 121.168 174.836C119.752 174.738 118.372 174.342 117.12 173.673C116.296 173.147 115.566 172.485 114.962 171.716V171.716C117.325 173.105 121.244 171.716 121.244 171.716C121.244 171.716 152.016 155.813 153.807 155.503C155.598 155.193 171.289 175.714 171.289 175.714Z" fill="url(#paint24_linear)"/>
<path d="M187.445 96.9113C187.445 96.9113 187.172 102.257 190.709 103.53C194.245 104.802 198.687 96.9113 198.687 96.9113C198.687 96.9113 196.926 96.5137 196.453 94.2798C194.154 83.5193 190.103 96.1086 187.445 96.9113Z" fill="url(#paint25_linear)"/>
<path d="M181.088 91.7087C181.088 91.7087 182.053 101.553 187.146 102.833C192.239 104.112 195.476 94.4689 195.476 94.4689C195.476 94.4689 199.115 84.4958 193.526 84.4731C187.937 84.4504 179.353 81.463 181.088 91.7087Z" fill="url(#paint26_linear)"/>
<path d="M208.229 131.487L199.187 134.577C198.903 134.674 198.603 134.713 198.304 134.691C198.004 134.669 197.713 134.587 197.446 134.45C197.18 134.313 196.943 134.123 196.752 133.893C196.56 133.662 196.417 133.395 196.332 133.108L195.158 129.17C195.039 128.769 195.065 128.339 195.23 127.955C195.395 127.572 195.69 127.258 196.063 127.069L204.272 122.949L202.844 108.062L178.331 131.798L178.433 135.962C178.433 135.962 179.751 138.923 186.915 139.37C194.079 139.817 207.604 136.928 207.604 136.928L208.229 131.487Z" fill="#EABB15"/>
<path d="M196.074 128.769C196.074 128.769 193.802 127.83 192.462 128.223C191.121 128.617 190.031 129.041 190.031 129.041C190.05 129.177 190.099 129.307 190.175 129.421C190.25 129.536 190.349 129.632 190.466 129.704C190.754 129.908 188.717 130.461 187.373 130.772C187.073 130.844 186.814 131.03 186.651 131.292C186.488 131.553 186.435 131.868 186.502 132.169V132.169C186.637 132.784 186.96 133.342 187.427 133.765C187.894 134.187 188.481 134.454 189.107 134.528C190.487 134.712 191.879 134.797 193.272 134.781C195.165 134.66 197.297 132.002 197.297 132.002C197.297 132.002 197.051 129.117 196.074 128.769Z" fill="url(#paint27_linear)"/>
<path d="M174.84 86.7827C174.961 86.8855 175.105 86.9583 175.259 86.9951C175.414 87.032 175.575 87.0318 175.73 86.9948C175.057 85.8221 174.759 84.4721 174.874 83.1252C175.196 83.4811 175.79 83.3864 176.192 83.1252C176.593 82.8639 176.892 82.4664 177.328 82.2316C177.685 82.0543 178.068 81.9354 178.463 81.8795C180.446 81.4698 182.36 80.7747 184.143 79.816C185.218 79.2367 186.256 78.559 187.426 78.1955C190.145 77.3587 193.253 78.4832 195.108 80.6414C195.447 81.076 195.807 81.493 196.188 81.8909C196.521 82.1602 196.836 82.4511 197.13 82.7617C197.793 83.5644 197.827 84.7079 197.74 85.7453C197.515 88.3804 196.724 90.9361 195.423 93.2383L195.559 89.8307C195.582 89.2287 195.472 88.4373 194.878 88.3162C194.393 88.2177 193.98 88.6948 193.776 89.1378C193.465 89.8279 193.356 90.5919 193.461 91.3414C192.636 90.8719 192.132 90.0124 191.542 89.2665C190.951 88.5206 190.133 87.8164 189.187 87.8845C188.13 87.964 187.414 88.9409 186.581 89.5997C185.597 90.365 184.358 90.724 183.117 90.6031C182.849 90.5386 182.57 90.5386 182.303 90.6031C181.599 90.8681 181.572 91.5231 180.754 91.4739C180.277 91.4474 179.054 90.5993 178.604 90.338C177.065 89.4947 175.769 88.2705 174.84 86.7827Z" fill="#1E1E1E"/>
<path d="M256.998 152.785C256.998 152.785 251.284 156.847 242.439 154.632C233.594 152.417 229.16 150.846 229.16 150.846L219.448 162.731L219.399 162.788L218.221 162.337L214.408 160.887C214.408 160.887 218.641 145.606 221.148 142.883C221.905 142.069 224.775 138.484 229.274 139.646C234.484 140.994 244.874 142.497 252.026 144.084C258.418 145.496 256.998 152.785 256.998 152.785Z" fill="#202C40"/>
<path d="M256.998 152.785C256.998 152.785 251.284 156.847 242.439 154.632C233.594 152.417 229.16 150.846 229.16 150.846L219.448 162.731L219.399 162.788L218.221 162.337L214.408 160.887C214.408 160.887 218.641 145.606 221.148 142.883C221.905 142.069 224.775 138.484 229.274 139.646C234.484 140.994 244.874 142.497 252.026 144.084C258.418 145.496 256.998 152.785 256.998 152.785Z" fill="url(#paint28_linear)"/>
<path d="M243.371 148.684L242.439 154.632C233.594 152.417 229.16 150.846 229.16 150.846L219.448 162.731L218.221 162.352L228.191 145.693L243.371 148.684Z" fill="url(#paint29_linear)"/>
<path d="M252.026 144.08L208.793 167.426C208.793 167.426 211.504 169.588 212.11 170.622C212.716 171.655 215.461 172.382 215.461 172.382C215.461 172.382 241.091 164.431 243.768 162.065C243.768 162.065 250.205 161.307 253.234 160.796C256.263 160.285 259.641 157.127 261.333 152.785C263.026 148.442 262.329 143.414 262.329 143.414L252.041 144.08H252.026Z" fill="#EAEAEA"/>
<path d="M252.026 144.08L208.793 167.426C208.793 167.426 211.504 169.588 212.11 170.622C212.716 171.655 215.461 172.382 215.461 172.382C215.461 172.382 241.091 164.431 243.768 162.065C243.768 162.065 250.205 161.307 253.234 160.796C256.263 160.285 259.641 157.127 261.333 152.785C263.026 148.442 262.329 143.414 262.329 143.414L252.041 144.08H252.026Z" fill="#202C40"/>
<path d="M209.417 167.938L205.941 169.653L210.228 173.893L214.082 171.917L209.417 167.938Z" fill="url(#paint30_linear)"/>
<path d="M206.744 169.652C206.744 169.652 201.955 163.129 200.379 163.765C198.804 164.401 198.323 167.172 198.445 167.551C198.535 167.824 202.731 173.67 204.806 176.551C205.114 176.98 205.574 177.276 206.092 177.378C206.61 177.481 207.148 177.383 207.596 177.104L209.838 175.718L210.841 173.586L206.744 169.652Z" fill="#282828"/>
<path d="M214.798 161.031L213.628 164.814L218.221 162.334L214.798 161.031Z" fill="url(#paint31_linear)"/>
<path d="M249.114 145.019L244.029 142.49C244.029 142.49 250.405 135.978 246.096 130.639C246.096 130.639 243.279 128.435 243.779 125.834C244.097 124.187 246.161 120.696 247.626 118.36C248.081 117.636 248.68 117.013 249.386 116.53C250.092 116.047 250.89 115.715 251.731 115.555L260.689 113.839C260.689 113.839 264.336 114.282 265.786 118.879C267.236 123.475 262.306 143.414 262.306 143.414L249.114 145.019Z" fill="#EAEAEA"/>
<path d="M249.114 145.019L244.029 142.49C244.029 142.49 250.405 135.978 246.096 130.639C246.096 130.639 243.279 128.435 243.779 125.834C244.097 124.187 246.161 120.696 247.626 118.36C248.081 117.636 248.68 117.013 249.386 116.53C250.092 116.047 250.89 115.715 251.731 115.555L260.689 113.839C260.689 113.839 264.336 114.282 265.786 118.879C267.236 123.475 262.306 143.414 262.306 143.414L249.114 145.019Z" fill="url(#paint32_linear)"/>
<path d="M260.708 113.85C260.708 113.85 254.074 121.01 251.731 119.606C251.423 119.451 251.163 119.216 250.979 118.925C250.794 118.634 250.693 118.299 250.686 117.955C250.686 116.751 251.731 115.566 251.731 115.566C251.731 115.566 253.45 112.105 250.458 112.601H250.405C247.342 113.142 246.308 105.706 247.577 101.045C248.845 96.3844 256.918 99.9965 257.138 101.598C257.357 103.2 260.708 113.85 260.708 113.85Z" fill="url(#paint33_linear)"/>
<path d="M249.909 97.4257C250.784 97.7476 251.238 98.679 251.723 99.4741C252.952 101.502 254.802 103.08 256.997 103.976C257.986 104.377 259.137 104.623 260.091 104.146C259.503 103.081 259.13 101.91 258.993 100.701C258.959 100.001 258.876 99.3036 258.747 98.6146C258.232 96.589 256.316 95.2411 254.4 94.4157C253.34 93.915 252.187 93.6416 251.015 93.613C250.429 93.6023 249.848 93.7175 249.31 93.9507C248.772 94.1838 248.291 94.5296 247.899 94.9647C247.453 95.5373 247.163 96.2156 247.058 96.9335C246.929 97.6908 246.721 99.3946 247.615 98.6222C248.36 97.971 248.573 96.9335 249.909 97.4257Z" fill="#282828"/>
<path d="M256.21 106.399C256.558 105.975 256.926 105.57 257.308 105.176C257.452 105.029 257.66 104.873 257.842 104.968C257.915 105.016 257.971 105.085 258.005 105.165C258.14 105.427 258.213 105.716 258.219 106.011C258.225 106.305 258.164 106.597 258.039 106.864C257.915 107.131 257.731 107.367 257.502 107.552C257.273 107.737 257.005 107.867 256.717 107.933C257.581 108.092 255.377 112.173 258.876 114.877C262.147 117.402 264.078 115.161 264.745 115.21C264.851 113.616 260.53 107.369 260.47 105.771C260.49 105.276 260.385 104.784 260.167 104.34C259.728 103.582 258.198 102.624 257.369 103.276C256.626 103.847 256.456 105.562 256.21 106.399Z" fill="#282828"/>
<path d="M265.865 117.61C265.65 117.234 265.341 116.921 264.968 116.699C264.596 116.478 264.173 116.357 263.739 116.347C263.306 116.338 262.878 116.44 262.496 116.645C262.114 116.85 261.792 117.15 261.56 117.516C261.105 118.173 260.792 118.919 260.642 119.705C260.492 120.49 260.508 121.299 260.689 122.078C261.674 126.076 270.155 135.016 270.155 135.016L276.592 146.651C276.592 146.651 275.002 150.57 277.539 147.529C278.792 146.034 281.757 145.795 283.389 145.784C283.773 145.785 284.143 145.64 284.424 145.378C284.705 145.117 284.876 144.758 284.903 144.375C284.903 144.148 284.858 143.997 284.684 143.997C284.097 144.057 280.572 143.645 280.572 143.645L277.425 144.379C277.425 144.379 273.29 132.835 273.094 132.623C272.897 132.411 269.148 123.293 265.865 117.61Z" fill="url(#paint34_linear)"/>
<path d="M219.607 128.125L225.067 135.698L232.541 136.614C232.541 136.614 238.486 132.983 239.686 132.362C240.887 131.741 243.37 130.624 243.37 130.624L231.489 128.11L226.014 134.312L224.836 134.827L219.997 128.11L219.607 128.125Z" fill="url(#paint35_linear)"/>
<path d="M221.451 126.289L225.26 133.664L225.498 134.206L226.013 134.323L222.992 126.289H221.451Z" fill="#EAEAEA"/>
<path d="M219.607 127.057L225.067 134.539H225.438L221.451 127.057H219.607Z" fill="#CFCFCF"/>
<path d="M222.992 125.539L226.013 133.24L229.474 127.284L222.992 125.539Z" fill="#EAEAEA"/>
<path d="M221.451 126.289L225.26 133.664L225.498 134.206L226.013 134.323L222.992 126.289H221.451Z" fill="url(#paint36_linear)"/>
<path d="M219.607 127.057L225.067 134.539H225.438L221.451 127.057H219.607Z" fill="url(#paint37_linear)"/>
<path d="M222.992 125.539L226.013 133.24L229.474 127.284L222.992 125.539Z" fill="url(#paint38_linear)"/>
<path d="M212.109 170.622C212.109 170.622 234.355 162.671 243.393 158.771C245.109 158.025 246.907 157.484 248.75 157.162C250.973 156.783 254.116 156.026 256.21 154.602C259.746 152.194 262.313 147.317 262.313 147.317C262.313 147.317 262.408 158.275 253.226 160.796L243.76 162.065C243.76 162.065 240.458 163.988 234.442 166.082C228.425 168.176 215.453 172.382 215.453 172.382C215.453 172.382 212.886 171.538 212.708 171.356C212.53 171.175 212.109 170.622 212.109 170.622Z" fill="url(#paint39_linear)"/>
<path d="M250.686 117.955C250.686 116.751 251.731 115.566 251.731 115.566C251.731 115.566 253.45 112.106 250.458 112.602C255.324 111.803 254.733 108.607 255.881 111.511C257.804 116.38 250.917 117.925 250.686 117.955Z" fill="url(#paint40_linear)"/>
</g>
<defs>
<filter id="filter0_dddi" x="0.984863" y="0.00634766" width="390.015" height="278.995" filterUnits="userSpaceOnUse" color-interpolation-filters="sRGB">
<feFlood flood-opacity="0" result="BackgroundImageFix"/>
<feColorMatrix in="SourceAlpha" type="matrix" values="0 0 0 0 0 0 0 0 0 0 0 0 0 0 0 0 0 0 127 0"/>
<feOffset dx="-9" dy="-12"/>
<feGaussianBlur stdDeviation="18"/>
<feColorMatrix type="matrix" values="0 0 0 0 1 0 0 0 0 1 0 0 0 0 1 0 0 0 1 0"/>
<feBlend mode="normal" in2="BackgroundImageFix" result="effect1_dropShadow"/>
<feColorMatrix in="SourceAlpha" type="matrix" values="0 0 0 0 0 0 0 0 0 0 0 0 0 0 0 0 0 0 127 0"/>
<feOffset dx="9" dy="12"/>
<feGaussianBlur stdDeviation="12"/>
<feColorMatrix type="matrix" values="0 0 0 0 0.716667 0 0 0 0 0.716667 0 0 0 0 0.716667 0 0 0 0.33 0"/>
<feBlend mode="normal" in2="effect1_dropShadow" result="effect2_dropShadow"/>
<feColorMatrix in="SourceAlpha" type="matrix" values="0 0 0 0 0 0 0 0 0 0 0 0 0 0 0 0 0 0 127 0"/>
<feOffset dx="-6" dy="-18"/>
<feGaussianBlur stdDeviation="2"/>
<feColorMatrix type="matrix" values="0 0 0 0 1 0 0 0 0 1 0 0 0 0 1 0 0 0 0.38 0"/>
<feBlend mode="normal" in2="effect2_dropShadow" result="effect3_dropShadow"/>
<feBlend mode="normal" in="SourceGraphic" in2="effect3_dropShadow" result="shape"/>
<feColorMatrix in="SourceAlpha" type="matrix" values="0 0 0 0 0 0 0 0 0 0 0 0 0 0 0 0 0 0 127 0" result="hardAlpha"/>
<feOffset dx="4" dy="6"/>
<feGaussianBlur stdDeviation="3"/>
<feComposite in2="hardAlpha" operator="arithmetic" k2="-1" k3="1"/>
<feColorMatrix type="matrix" values="0 0 0 0 1 0 0 0 0 1 0 0 0 0 1 0 0 0 0.08 0"/>
<feBlend mode="normal" in2="shape" result="effect4_innerShadow"/>
</filter>
<linearGradient id="paint0_linear" x1="54.5" y1="206.5" x2="361.5" y2="228.5" gradientUnits="userSpaceOnUse">
<stop stop-color="#D8D8D8"/>
<stop offset="1" stop-color="#D5D5D5" stop-opacity="0"/>
</linearGradient>
<linearGradient id="paint1_linear" x1="10431.5" y1="5156.54" x2="10475.9" y2="5132.14" gradientUnits="userSpaceOnUse">
<stop stop-color="#D5C7CE"/>
<stop offset="0.42" stop-color="#EFD4D1"/>
<stop offset="1" stop-color="#F2EAC9"/>
</linearGradient>
<linearGradient id="paint2_linear" x1="60.6836" y1="191.836" x2="347.83" y2="191.836" gradientUnits="userSpaceOnUse">
<stop stop-color="#68E1FD"/>
<stop offset="1" stop-color="#69B9EB"/>
</linearGradient>
<linearGradient id="paint3_linear" x1="210.527" y1="181.322" x2="249.6" y2="262.883" gradientUnits="userSpaceOnUse">
<stop offset="0.01" stop-color="#3C3A52" stop-opacity="0"/>
<stop offset="0.86"/>
</linearGradient>
<linearGradient id="paint4_linear" x1="204.064" y1="150.99" x2="218.481" y2="224.44" gradientUnits="userSpaceOnUse">
<stop offset="0.01" stop-color="white" stop-opacity="0"/>
<stop offset="0.99" stop-color="white"/>
</linearGradient>
<linearGradient id="paint5_linear" x1="14376.7" y1="5561.17" x2="14430.1" y2="5523.79" gradientUnits="userSpaceOnUse">
<stop stop-color="#D5C7CE"/>
<stop offset="0.42" stop-color="#EFD4D1"/>
<stop offset="1" stop-color="#F2EAC9"/>
</linearGradient>
<linearGradient id="paint6_linear" x1="182.011" y1="119.583" x2="174.143" y2="120.534" gradientUnits="userSpaceOnUse">
<stop offset="0.01" stop-color="white" stop-opacity="0"/>
<stop offset="0.33" stop-color="white" stop-opacity="0.36"/>
<stop offset="0.99" stop-color="white"/>
</linearGradient>
<linearGradient id="paint7_linear" x1="190.168" y1="99.7356" x2="218.058" y2="107.687" gradientUnits="userSpaceOnUse">
<stop offset="0.01" stop-color="#3C3A52" stop-opacity="0"/>
<stop offset="1"/>
</linearGradient>
<linearGradient id="paint8_linear" x1="6122.47" y1="2108.29" x2="6142.74" y2="2091.9" gradientUnits="userSpaceOnUse">
<stop stop-color="#D5C7CE"/>
<stop offset="0.42" stop-color="#EFD4D1"/>
<stop offset="1" stop-color="#F2EAC9"/>
</linearGradient>
<linearGradient id="paint9_linear" x1="7325.14" y1="8781.14" x2="10629.2" y2="11126.3" gradientUnits="userSpaceOnUse">
<stop offset="0.01" stop-color="#3C3A52" stop-opacity="0"/>
<stop offset="1"/>
</linearGradient>
<linearGradient id="paint10_linear" x1="286.5" y1="155" x2="35" y2="174" gradientUnits="userSpaceOnUse">
<stop stop-color="#1E1E1E"/>
<stop offset="1" stop-color="#C4C4C4" stop-opacity="0"/>
</linearGradient>
<linearGradient id="paint11_linear" x1="14921.2" y1="8201.64" x2="14932.1" y2="10142.4" gradientUnits="userSpaceOnUse">
<stop offset="0.01" stop-color="#202C40"/>
<stop offset="0.33" stop-color="white" stop-opacity="0.36"/>
<stop offset="0.99" stop-color="white"/>
</linearGradient>
<linearGradient id="paint12_linear" x1="12770.6" y1="8047.19" x2="23116.6" y2="8047.19" gradientUnits="userSpaceOnUse">
<stop offset="0.01" stop-color="#202C40"/>
<stop offset="0.99" stop-color="white"/>
</linearGradient>
<linearGradient id="paint13_linear" x1="6390.09" y1="7997.26" x2="7388.52" y2="7997.26" gradientUnits="userSpaceOnUse">
<stop offset="0.01" stop-color="#3C3A52" stop-opacity="0"/>
<stop offset="1"/>
</linearGradient>
<linearGradient id="paint14_linear" x1="177.5" y1="143" x2="174.5" y2="117.5" gradientUnits="userSpaceOnUse">
<stop stop-color="#1E1E1E"/>
<stop offset="1" stop-color="#1E1E1E" stop-opacity="0"/>
</linearGradient>
<linearGradient id="paint15_linear" x1="11175.3" y1="11229.5" x2="21461.1" y2="11229.5" gradientUnits="userSpaceOnUse">
<stop offset="0.01" stop-color="#202C40"/>
<stop offset="0.99" stop-color="white"/>
</linearGradient>
<linearGradient id="paint16_linear" x1="4770.44" y1="2023.12" x2="4788.58" y2="2011.24" gradientUnits="userSpaceOnUse">
<stop stop-color="#D5C7CE"/>
<stop offset="0.42" stop-color="#EFD4D1"/>
<stop offset="1" stop-color="#F2EAC9"/>
</linearGradient>
<linearGradient id="paint17_linear" x1="3998.74" y1="10009" x2="6921.23" y2="11704.3" gradientUnits="userSpaceOnUse">
<stop offset="0.01" stop-color="#DDB938"/>
<stop offset="1"/>
</linearGradient>
<linearGradient id="paint18_linear" x1="142.5" y1="115.5" x2="161" y2="134.5" gradientUnits="userSpaceOnUse">
<stop stop-color="#FFCF25"/>
<stop offset="1" stop-color="#B7951D"/>
</linearGradient>
<linearGradient id="paint19_linear" x1="7157.44" y1="9238.07" x2="10402.4" y2="8656.56" gradientUnits="userSpaceOnUse">
<stop stop-color="white" stop-opacity="0"/>
<stop offset="1"/>
</linearGradient>
<linearGradient id="paint20_linear" x1="945.112" y1="992.801" x2="949.365" y2="991.762" gradientUnits="userSpaceOnUse">
<stop stop-color="#D5C7CE"/>
<stop offset="0.42" stop-color="#EFD4D1"/>
<stop offset="1" stop-color="#F2EAC9"/>
</linearGradient>
<linearGradient id="paint21_linear" x1="2608.96" y1="2311.16" x2="2621.53" y2="2307.38" gradientUnits="userSpaceOnUse">
<stop stop-color="#D5C7CE"/>
<stop offset="0.42" stop-color="#EFD4D1"/>
<stop offset="1" stop-color="#F2EAC9"/>
</linearGradient>
<linearGradient id="paint22_linear" x1="2742.48" y1="1497.76" x2="2753.83" y2="1491.89" gradientUnits="userSpaceOnUse">
<stop stop-color="#D5C7CE"/>
<stop offset="0.42" stop-color="#EFD4D1"/>
<stop offset="1" stop-color="#F2EAC9"/>
</linearGradient>
<linearGradient id="paint23_linear" x1="4053.97" y1="1179.02" x2="4064.45" y2="1168.12" gradientUnits="userSpaceOnUse">
<stop stop-color="#D5C7CE"/>
<stop offset="0.42" stop-color="#EFD4D1"/>
<stop offset="1" stop-color="#F2EAC9"/>
</linearGradient>
<linearGradient id="paint24_linear" x1="14136.3" y1="9038.62" x2="14995.4" y2="7191.05" gradientUnits="userSpaceOnUse">
<stop offset="0.01" stop-color="#202C40"/>
<stop offset="0.99" stop-color="#252729"/>
</linearGradient>
<linearGradient id="paint25_linear" x1="6433.63" y1="3494.57" x2="6461.85" y2="3480.63" gradientUnits="userSpaceOnUse">
<stop stop-color="#D5C7CE"/>
<stop offset="0.42" stop-color="#EFD4D1"/>
<stop offset="1" stop-color="#F2EAC9"/>
</linearGradient>
<linearGradient id="paint26_linear" x1="8944.6" y1="4774.57" x2="8983.9" y2="4754.79" gradientUnits="userSpaceOnUse">
<stop stop-color="#D5C7CE"/>
<stop offset="0.42" stop-color="#EFD4D1"/>
<stop offset="1" stop-color="#F2EAC9"/>
</linearGradient>
<linearGradient id="paint27_linear" x1="6197.53" y1="1780.12" x2="6214.76" y2="1763.23" gradientUnits="userSpaceOnUse">
<stop stop-color="#D5C7CE"/>
<stop offset="0.42" stop-color="#EFD4D1"/>
<stop offset="1" stop-color="#F2EAC9"/>
</linearGradient>
<linearGradient id="paint28_linear" x1="20228" y1="7401.6" x2="21134.7" y2="9919.04" gradientUnits="userSpaceOnUse">
<stop offset="0.01" stop-color="#3C3A52" stop-opacity="0"/>
<stop offset="1"/>
</linearGradient>
<linearGradient id="paint29_linear" x1="215" y1="160" x2="243" y2="149" gradientUnits="userSpaceOnUse">
<stop stop-color="#202C40"/>
<stop offset="1" stop-color="#1E1E1E"/>
</linearGradient>
<linearGradient id="paint30_linear" x1="4727.17" y1="1646.11" x2="4742.31" y2="1633.64" gradientUnits="userSpaceOnUse">
<stop stop-color="#D5C7CE"/>
<stop offset="0.42" stop-color="#EFD4D1"/>
<stop offset="1" stop-color="#F2EAC9"/>
</linearGradient>
<linearGradient id="paint31_linear" x1="2764.43" y1="1099.8" x2="2773.77" y2="1092.97" gradientUnits="userSpaceOnUse">
<stop stop-color="#D5C7CE"/>
<stop offset="0.42" stop-color="#EFD4D1"/>
<stop offset="1" stop-color="#F2EAC9"/>
</linearGradient>
<linearGradient id="paint32_linear" x1="11677.1" y1="8793.06" x2="16792.4" y2="10206.4" gradientUnits="userSpaceOnUse">
<stop offset="0.01" stop-color="#FFD02B"/>
<stop offset="0.99" stop-color="white"/>
</linearGradient>
<linearGradient id="paint33_linear" x1="7834.24" y1="5320.69" x2="7871.23" y2="5306.22" gradientUnits="userSpaceOnUse">
<stop stop-color="#D5C7CE"/>
<stop offset="0.42" stop-color="#EFD4D1"/>
<stop offset="1" stop-color="#F2EAC9"/>
</linearGradient>
<linearGradient id="paint34_linear" x1="13791.2" y1="8142.44" x2="13854.2" y2="8113.82" gradientUnits="userSpaceOnUse">
<stop stop-color="#D5C7CE"/>
<stop offset="0.42" stop-color="#EFD4D1"/>
<stop offset="1" stop-color="#F2EAC9"/>
</linearGradient>
<linearGradient id="paint35_linear" x1="234" y1="126.5" x2="222.5" y2="135" gradientUnits="userSpaceOnUse">
<stop stop-color="#1E1E1E"/>
<stop offset="1" stop-color="#EAEAEA" stop-opacity="0"/>
</linearGradient>
<linearGradient id="paint36_linear" x1="2335.63" y1="1872.82" x2="2390.61" y2="1872.82" gradientUnits="userSpaceOnUse">
<stop offset="0.01" stop-color="white" stop-opacity="0"/>
<stop offset="0.99" stop-color="white"/>
</linearGradient>
<linearGradient id="paint37_linear" x1="2893.16" y1="1763.14" x2="2982.96" y2="1763.14" gradientUnits="userSpaceOnUse">
<stop offset="0.01" stop-color="white" stop-opacity="0"/>
<stop offset="0.99" stop-color="white"/>
</linearGradient>
<linearGradient id="paint38_linear" x1="3253.09" y1="1781" x2="3364.07" y2="1781" gradientUnits="userSpaceOnUse">
<stop offset="0.01" stop-color="white" stop-opacity="0"/>
<stop offset="0.99" stop-color="white"/>
</linearGradient>
<linearGradient id="paint39_linear" x1="262" y1="150" x2="217.5" y2="172" gradientUnits="userSpaceOnUse">
<stop stop-color="#0C1017"/>
<stop offset="1" stop-color="#202C40"/>
</linearGradient>
<linearGradient id="paint40_linear" x1="3449.89" y1="2006.58" x2="3464.8" y2="1999.81" gradientUnits="userSpaceOnUse">
<stop stop-color="#D5C7CE"/>
<stop offset="0.42" stop-color="#EFD4D1"/>
<stop offset="1" stop-color="#F2EAC9"/>
</linearGradient>
</defs>
</svg>
