<svg width="99" height="71" viewBox="0 0 99 71" fill="none" xmlns="http://www.w3.org/2000/svg">
<g filter="url(#filter0_d)">
<path fill-rule="evenodd" clip-rule="evenodd" d="M52.4294 2.21924C37.262 2.21924 24.9663 14.5149 24.9663 29.6823C24.9663 44.8498 37.262 57.1454 52.4294 57.1454C67.5968 57.1454 79.8925 44.8498 79.8925 29.6823C79.8925 14.5149 67.5968 2.21924 52.4294 2.21924ZM52.4292 9.86738C41.4856 9.86738 32.6141 18.7389 32.6141 29.6825C32.6141 40.6261 41.4856 49.4976 52.4292 49.4976C63.3728 49.4976 72.2444 40.6261 72.2444 29.6825C72.2444 18.7389 63.3728 9.86738 52.4292 9.86738Z" fill="url(#paint0_linear)"/>
</g>
<g filter="url(#filter1_d)">
<rect x="38.2817" y="16.0896" width="27.7405" height="27.7405" rx="13.8702" fill="url(#paint1_linear)"/>
</g>
<g filter="url(#filter2_d)">
<path d="M17.7017 0.766099C13.3889 0.342988 9.29263 6.11578 8.5525 13.66C7.81238 21.2042 10.7087 27.663 15.0215 28.0861C19.3344 28.5092 32.8369 16.0424 32.8369 16.0424C32.8369 16.0424 22.0146 1.18921 17.7017 0.766099Z" fill="url(#paint2_linear)"/>
</g>
<g filter="url(#filter3_d)">
<path d="M7.566 40.4508C3.38747 41.5996 1.62905 48.4561 3.63846 55.7654C5.64787 63.0746 10.6642 68.0687 14.8427 66.92C19.0213 65.7712 27.1666 49.2972 27.1666 49.2972C27.1666 49.2972 11.7445 39.3021 7.566 40.4508Z" fill="url(#paint3_linear)"/>
</g>
<g filter="url(#filter4_d)">
<path d="M87.9309 53.0095C92.9398 53.2064 97.2796 46.2633 97.6241 37.5015C97.9686 28.7398 94.1873 21.4773 89.1784 21.2804C84.1695 21.0834 69.4204 36.3926 69.4204 36.3926C69.4204 36.3926 82.922 52.8126 87.9309 53.0095Z" fill="url(#paint4_linear)"/>
</g>
<defs>
<filter id="filter0_d" x="24.9663" y="2.21924" width="57.9262" height="58.9262" filterUnits="userSpaceOnUse" color-interpolation-filters="sRGB">
<feFlood flood-opacity="0" result="BackgroundImageFix"/>
<feColorMatrix in="SourceAlpha" type="matrix" values="0 0 0 0 0 0 0 0 0 0 0 0 0 0 0 0 0 0 127 0"/>
<feOffset dx="2" dy="3"/>
<feGaussianBlur stdDeviation="0.5"/>
<feColorMatrix type="matrix" values="0 0 0 0 0 0 0 0 0 0 0 0 0 0 0 0 0 0 0.45 0"/>
<feBlend mode="normal" in2="BackgroundImageFix" result="effect1_dropShadow"/>
<feBlend mode="normal" in="SourceGraphic" in2="effect1_dropShadow" result="shape"/>
</filter>
<filter id="filter1_d" x="38.2817" y="16.0896" width="30.7405" height="31.7405" filterUnits="userSpaceOnUse" color-interpolation-filters="sRGB">
<feFlood flood-opacity="0" result="BackgroundImageFix"/>
<feColorMatrix in="SourceAlpha" type="matrix" values="0 0 0 0 0 0 0 0 0 0 0 0 0 0 0 0 0 0 127 0"/>
<feOffset dx="2" dy="3"/>
<feGaussianBlur stdDeviation="0.5"/>
<feColorMatrix type="matrix" values="0 0 0 0 0 0 0 0 0 0 0 0 0 0 0 0 0 0 0.45 0"/>
<feBlend mode="normal" in2="BackgroundImageFix" result="effect1_dropShadow"/>
<feBlend mode="normal" in="SourceGraphic" in2="effect1_dropShadow" result="shape"/>
</filter>
<filter id="filter2_d" x="7.2124" y="0" width="26.9647" height="31.7024" filterUnits="userSpaceOnUse" color-interpolation-filters="sRGB">
<feFlood flood-opacity="0" result="BackgroundImageFix"/>
<feColorMatrix in="SourceAlpha" type="matrix" values="0 0 0 0 0 0 0 0 0 0 0 0 0 0 0 0 0 0 127 0"/>
<feOffset dy="2"/>
<feColorMatrix type="matrix" values="0 0 0 0 0 0 0 0 0 0 0 0 0 0 0 0 0 0 0.46 0"/>
<feBlend mode="normal" in2="BackgroundImageFix" result="effect1_dropShadow"/>
<feBlend mode="normal" in="SourceGraphic" in2="effect1_dropShadow" result="shape"/>
</filter>
<filter id="filter3_d" x="0" y="36.0625" width="30.8048" height="34.9373" filterUnits="userSpaceOnUse" color-interpolation-filters="sRGB">
<feFlood flood-opacity="0" result="BackgroundImageFix"/>
<feColorMatrix in="SourceAlpha" type="matrix" values="0 0 0 0 0 0 0 0 0 0 0 0 0 0 0 0 0 0 127 0"/>
<feOffset dy="2"/>
<feColorMatrix type="matrix" values="0 0 0 0 0 0 0 0 0 0 0 0 0 0 0 0 0 0 0.46 0"/>
<feBlend mode="normal" in2="BackgroundImageFix" result="effect1_dropShadow"/>
<feBlend mode="normal" in="SourceGraphic" in2="effect1_dropShadow" result="shape"/>
</filter>
<filter id="filter4_d" x="68.7966" y="20.5281" width="29.4512" height="34.838" filterUnits="userSpaceOnUse" color-interpolation-filters="sRGB">
<feFlood flood-opacity="0" result="BackgroundImageFix"/>
<feColorMatrix in="SourceAlpha" type="matrix" values="0 0 0 0 0 0 0 0 0 0 0 0 0 0 0 0 0 0 127 0"/>
<feOffset dy="2"/>
<feColorMatrix type="matrix" values="0 0 0 0 0 0 0 0 0 0 0 0 0 0 0 0 0 0 0.46 0"/>
<feBlend mode="normal" in2="BackgroundImageFix" result="effect1_dropShadow"/>
<feBlend mode="normal" in="SourceGraphic" in2="effect1_dropShadow" result="shape"/>
</filter>
<linearGradient id="paint0_linear" x1="72.2445" y1="23.6212" x2="31.304" y2="22.6857" gradientUnits="userSpaceOnUse">
<stop stop-color="#FFD02B"/>
<stop offset="0.708333" stop-color="white"/>
<stop offset="1" stop-color="#FFD02B"/>
</linearGradient>
<linearGradient id="paint1_linear" x1="66.0222" y1="25.7172" x2="37.3646" y2="25.0624" gradientUnits="userSpaceOnUse">
<stop offset="0.579652" stop-color="#202C40"/>
<stop offset="0.708333" stop-color="#60656D"/>
<stop offset="0.940648" stop-color="#202C40"/>
</linearGradient>
<linearGradient id="paint2_linear" x1="32.8369" y1="16.0424" x2="8.5525" y2="13.66" gradientUnits="userSpaceOnUse">
<stop offset="0.411458" stop-color="#1E1E1E"/>
<stop offset="0.764663" stop-color="#797979"/>
<stop offset="1" stop-color="#1E1E1E"/>
</linearGradient>
<linearGradient id="paint3_linear" x1="27.1666" y1="49.2972" x2="3.63846" y2="55.7654" gradientUnits="userSpaceOnUse">
<stop offset="0.411458" stop-color="#1E1E1E"/>
<stop offset="0.764663" stop-color="#797979"/>
<stop offset="1" stop-color="#1E1E1E"/>
</linearGradient>
<linearGradient id="paint4_linear" x1="69.4204" y1="36.3926" x2="97.6241" y2="37.5015" gradientUnits="userSpaceOnUse">
<stop offset="0.411458" stop-color="#1E1E1E"/>
<stop offset="0.764663" stop-color="#797979"/>
<stop offset="1" stop-color="#1E1E1E"/>
</linearGradient>
</defs>
</svg>
