<svg width="125" height="134" viewBox="0 0 125 134" fill="none" xmlns="http://www.w3.org/2000/svg">
<g filter="url(#filter0_d)">
<path d="M116.943 86.6172C116.064 108.067 90.6324 124.442 60.1413 123.191C29.6501 121.941 5.64532 103.538 6.52507 82.0885C7.40481 60.6387 65.0949 2.4134 65.0949 2.4134C65.0949 2.4134 117.823 65.1674 116.943 86.6172Z" fill="url(#paint0_linear)"/>
<g filter="url(#filter1_d)">
<circle cx="61.5879" cy="82.3374" r="28.5" transform="rotate(-35.1015 61.5879 82.3374)" fill="url(#paint1_linear)"/>
</g>
<g filter="url(#filter2_d)">
<path d="M85.9129 50.7218C85.5721 59.0299 75.3824 65.3584 63.1535 64.8568C50.9245 64.3553 41.2873 57.2136 41.628 48.9055C41.9688 40.5973 65.0721 18.0761 65.0721 18.0761C65.0721 18.0761 86.2536 42.4136 85.9129 50.7218Z" fill="url(#paint2_linear)"/>
</g>
</g>
<defs>
<filter id="filter0_d" x="0.932617" y="0.149048" width="123.372" height="133.307" filterUnits="userSpaceOnUse" color-interpolation-filters="sRGB">
<feFlood flood-opacity="0" result="BackgroundImageFix"/>
<feColorMatrix in="SourceAlpha" type="matrix" values="0 0 0 0 0 0 0 0 0 0 0 0 0 0 0 0 0 0 127 0"/>
<feOffset dy="4"/>
<feGaussianBlur stdDeviation="2"/>
<feColorMatrix type="matrix" values="0 0 0 0 0 0 0 0 0 0 0 0 0 0 0 0 0 0 0.59 0"/>
<feBlend mode="normal" in2="BackgroundImageFix" result="effect1_dropShadow"/>
<feBlend mode="normal" in="SourceGraphic" in2="effect1_dropShadow" result="shape"/>
</filter>
<filter id="filter1_d" x="20.8828" y="42.6323" width="81.4102" height="82.4102" filterUnits="userSpaceOnUse" color-interpolation-filters="sRGB">
<feFlood flood-opacity="0" result="BackgroundImageFix"/>
<feColorMatrix in="SourceAlpha" type="matrix" values="0 0 0 0 0 0 0 0 0 0 0 0 0 0 0 0 0 0 127 0"/>
<feOffset dy="2"/>
<feGaussianBlur stdDeviation="0.5"/>
<feColorMatrix type="matrix" values="0 0 0 0 0 0 0 0 0 0 0 0 0 0 0 0 0 0 0.72 0"/>
<feBlend mode="normal" in2="BackgroundImageFix" result="effect1_dropShadow"/>
<feBlend mode="normal" in="SourceGraphic" in2="effect1_dropShadow" result="shape"/>
</filter>
<filter id="filter2_d" x="40.0107" y="17.168" width="48.2035" height="53.597" filterUnits="userSpaceOnUse" color-interpolation-filters="sRGB">
<feFlood flood-opacity="0" result="BackgroundImageFix"/>
<feColorMatrix in="SourceAlpha" type="matrix" values="0 0 0 0 0 0 0 0 0 0 0 0 0 0 0 0 0 0 127 0"/>
<feOffset dy="4"/>
<feGaussianBlur stdDeviation="0.5"/>
<feColorMatrix type="matrix" values="0 0 0 0 0 0 0 0 0 0 0 0 0 0 0 0 0 0 0.67 0"/>
<feBlend mode="normal" in2="BackgroundImageFix" result="effect1_dropShadow"/>
<feBlend mode="normal" in="SourceGraphic" in2="effect1_dropShadow" result="shape"/>
</filter>
<linearGradient id="paint0_linear" x1="69.2965" y1="7.67833" x2="62.3664" y2="123.325" gradientUnits="userSpaceOnUse">
<stop offset="0.0470807" stop-color="#FFD02B"/>
<stop offset="0.392184" stop-color="#AD8C18"/>
<stop offset="0.758568" stop-color="#FFD02B"/>
</linearGradient>
<linearGradient id="paint1_linear" x1="66.5475" y1="88.9535" x2="76.9805" y2="110.837" gradientUnits="userSpaceOnUse">
<stop/>
<stop offset="1" stop-color="#787878"/>
</linearGradient>
<linearGradient id="paint2_linear" x1="58.4181" y1="34.9248" x2="63.9783" y2="20.6705" gradientUnits="userSpaceOnUse">
<stop stop-color="#202C40"/>
<stop offset="1" stop-color="#1E1E1E"/>
</linearGradient>
</defs>
</svg>
