<svg width="102" height="73" viewBox="0 0 102 73" fill="none" xmlns="http://www.w3.org/2000/svg">
<g filter="url(#filter0_d)">
<circle r="13.6757" transform="matrix(1 0 0 -1 85.8104 36.6756)" fill="#1E1E1E"/>
</g>
<g filter="url(#filter1_d)">
<path d="M0 0H14.6081C33.6619 0 49.1081 15.4462 49.1081 34.5C49.1081 53.5538 33.6619 69 14.6081 69H0V0Z" fill="url(#paint0_linear)"/>
</g>
<g filter="url(#filter2_d)">
<path fill-rule="evenodd" clip-rule="evenodd" d="M68.766 7.3039C66.8994 6.99769 64.9775 6.83789 63.0151 6.83789C45.065 6.83789 30.5137 20.2069 30.5137 36.6985C30.5137 53.19 45.065 66.5591 63.0151 66.5591C64.9777 66.5591 66.8996 66.3992 68.7664 66.093C53.5595 63.5984 42.0159 51.3869 42.0159 36.6984C42.0159 22.01 53.5593 9.7986 68.766 7.3039Z" fill="#202C40"/>
</g>
<g filter="url(#filter3_d)">
<path fill-rule="evenodd" clip-rule="evenodd" d="M82.3117 14.6917C71.8518 16.5593 63.9117 25.7017 63.9117 36.6985C63.9117 47.6952 71.8516 56.8375 82.3114 58.7052C81.0274 58.9345 79.7055 59.0541 78.3557 59.0541C66.009 59.0541 56 49.0451 56 36.6984C56 24.3517 66.009 14.3428 78.3557 14.3428C79.7056 14.3428 81.0276 14.4624 82.3117 14.6917Z" fill="#202C40"/>
</g>
<defs>
<filter id="filter0_d" x="70.1348" y="23" width="31.3514" height="32.3514" filterUnits="userSpaceOnUse" color-interpolation-filters="sRGB">
<feFlood flood-opacity="0" result="BackgroundImageFix"/>
<feColorMatrix in="SourceAlpha" type="matrix" values="0 0 0 0 0 0 0 0 0 0 0 0 0 0 0 0 0 0 127 0"/>
<feOffset dy="3"/>
<feGaussianBlur stdDeviation="1"/>
<feColorMatrix type="matrix" values="0 0 0 0 0 0 0 0 0 0 0 0 0 0 0 0 0 0 0.57 0"/>
<feBlend mode="normal" in2="BackgroundImageFix" result="effect1_dropShadow"/>
<feBlend mode="normal" in="SourceGraphic" in2="effect1_dropShadow" result="shape"/>
</filter>
<filter id="filter1_d" x="0" y="0" width="52.1081" height="73" filterUnits="userSpaceOnUse" color-interpolation-filters="sRGB">
<feFlood flood-opacity="0" result="BackgroundImageFix"/>
<feColorMatrix in="SourceAlpha" type="matrix" values="0 0 0 0 0 0 0 0 0 0 0 0 0 0 0 0 0 0 127 0"/>
<feOffset dx="2" dy="3"/>
<feGaussianBlur stdDeviation="0.5"/>
<feColorMatrix type="matrix" values="0 0 0 0 0 0 0 0 0 0 0 0 0 0 0 0 0 0 0.45 0"/>
<feBlend mode="normal" in2="BackgroundImageFix" result="effect1_dropShadow"/>
<feBlend mode="normal" in="SourceGraphic" in2="effect1_dropShadow" result="shape"/>
</filter>
<filter id="filter2_d" x="28.5137" y="6.83789" width="42.2527" height="64.7212" filterUnits="userSpaceOnUse" color-interpolation-filters="sRGB">
<feFlood flood-opacity="0" result="BackgroundImageFix"/>
<feColorMatrix in="SourceAlpha" type="matrix" values="0 0 0 0 0 0 0 0 0 0 0 0 0 0 0 0 0 0 127 0"/>
<feOffset dy="3"/>
<feGaussianBlur stdDeviation="1"/>
<feColorMatrix type="matrix" values="0 0 0 0 0 0 0 0 0 0 0 0 0 0 0 0 0 0 0.57 0"/>
<feBlend mode="normal" in2="BackgroundImageFix" result="effect1_dropShadow"/>
<feBlend mode="normal" in="SourceGraphic" in2="effect1_dropShadow" result="shape"/>
</filter>
<filter id="filter3_d" x="54" y="14.3428" width="30.3117" height="49.7113" filterUnits="userSpaceOnUse" color-interpolation-filters="sRGB">
<feFlood flood-opacity="0" result="BackgroundImageFix"/>
<feColorMatrix in="SourceAlpha" type="matrix" values="0 0 0 0 0 0 0 0 0 0 0 0 0 0 0 0 0 0 127 0"/>
<feOffset dy="3"/>
<feGaussianBlur stdDeviation="1"/>
<feColorMatrix type="matrix" values="0 0 0 0 0 0 0 0 0 0 0 0 0 0 0 0 0 0 0.57 0"/>
<feBlend mode="normal" in2="BackgroundImageFix" result="effect1_dropShadow"/>
<feBlend mode="normal" in="SourceGraphic" in2="effect1_dropShadow" result="shape"/>
</filter>
<linearGradient id="paint0_linear" x1="49.1081" y1="23.9471" x2="-1.63672" y2="23.1218" gradientUnits="userSpaceOnUse">
<stop stop-color="#FFC700"/>
<stop offset="0.708333" stop-color="#FCF1CD"/>
<stop offset="1" stop-color="#EDB900"/>
</linearGradient>
</defs>
</svg>
